<?xml version="1.0" encoding="UTF-8" standalone="no"?><!-- Generator: Gravit.io --><svg xmlns="http://www.w3.org/2000/svg" xmlns:xlink="http://www.w3.org/1999/xlink" style="isolation:isolate" viewBox="33.22 83.144 136.158 119.501" width="136.158pt" height="119.501pt"><g><path d=" M 154.987 196.518 L 61.833 196.518 L 59.304 196.518 L 47.61 196.518 C 45.917 196.518 44.547 197.889 44.547 199.581 C 44.547 201.274 45.917 202.645 47.61 202.645 L 59.304 202.645 L 61.833 202.645 L 154.987 202.645 C 156.68 202.645 158.052 201.274 158.052 199.582 C 158.052 197.889 156.68 196.518 154.987 196.518 Z " fill="rgb(222,244,241)"/><path d=" M 79.395 153.231 C 79.098 152.934 78.789 152.655 78.453 152.377 C 78.342 152.289 78.23 152.206 78.036 152.062 L 77.926 151.979 C 77.786 151.874 77.646 151.769 77.461 151.645 C 77.331 151.559 77.2 151.479 77.065 151.4 L 76.86 151.277 C 76.718 151.192 76.577 151.106 76.411 151.017 C 76.268 150.94 76.119 150.872 75.968 150.801 L 75.801 150.721 C 75.649 150.647 75.492 150.575 75.319 150.502 C 75.163 150.435 75.003 150.377 74.845 150.323 L 74.64 150.25 C 74.479 150.19 74.319 150.131 74.11 150.069 C 73.97 150.028 73.828 149.993 73.569 149.928 C 73.56 149.926 73.444 149.896 73.434 149.896 C 73.273 149.854 73.113 149.814 72.961 149.784 C 72.774 149.747 72.586 149.719 72.396 149.692 L 72.17 149.658 C 72.033 149.636 71.895 149.618 71.732 149.602 C 71.321 149.561 70.905 149.541 70.494 149.541 L 56.169 149.541 C 55.905 149.463 55.632 149.41 55.345 149.41 C 43.145 149.41 33.22 159.336 33.22 171.535 C 33.22 173.201 34.571 174.551 36.238 174.551 C 37.906 174.551 39.255 173.201 39.255 171.535 C 39.255 163.264 45.531 156.436 53.568 155.548 C 53.65 155.555 53.729 155.573 53.814 155.573 L 70.494 155.573 C 70.712 155.573 70.932 155.586 71.244 155.622 L 71.553 155.667 C 71.624 155.677 71.696 155.685 71.783 155.702 L 73.274 156.203 L 74.628 157.046 C 74.798 157.186 74.962 157.333 75.122 157.494 L 88.622 170.992 C 89.211 171.582 89.985 171.876 90.755 171.876 C 91.527 171.876 92.301 171.582 92.89 170.992 C 94.066 169.813 94.066 167.904 92.889 166.725 L 79.395 153.231 Z " fill="rgb(220,107,149)"/><path d=" M 69.713 169.389 C 68.047 169.389 66.695 170.74 66.695 172.407 L 66.695 192.266 L 57.5 196.862 C 56.012 197.607 55.406 199.419 56.151 200.91 C 56.68 201.968 57.744 202.578 58.854 202.578 C 59.305 202.578 59.767 202.475 60.199 202.26 L 71.061 196.827 C 72.082 196.319 72.729 195.272 72.729 194.13 L 72.729 172.407 C 72.729 170.74 71.379 169.389 69.713 169.389 Z " fill="rgb(220,107,149)"/><path d=" M 142.268 196.861 L 133.073 192.265 L 133.073 173.445 C 133.073 171.779 131.722 170.428 130.056 170.428 C 128.389 170.428 127.039 171.779 127.039 173.445 L 127.039 194.13 C 127.039 195.271 127.686 196.318 128.706 196.827 L 139.568 202.259 C 140.002 202.476 140.461 202.578 140.914 202.578 C 142.022 202.578 143.086 201.967 143.616 200.91 C 144.364 199.419 143.758 197.606 142.268 196.861 Z " fill="rgb(220,107,149)"/><path d=" M 147.256 134.323 C 146.621 134.323 146.033 134.521 145.549 134.855 L 139.869 134.855 C 139.67 134.855 139.471 134.847 139.219 134.818 L 138.381 134.662 C 138.372 134.66 138.249 134.63 138.241 134.629 L 136.51 133.844 C 136.441 133.798 136.377 133.746 136.215 133.623 C 136.204 133.614 136.047 133.501 136.035 133.491 C 135.867 133.357 135.712 133.215 135.573 133.079 L 122.748 120.254 C 121.57 119.075 119.66 119.075 118.484 120.254 C 117.303 121.43 117.303 123.342 118.484 124.52 L 131.32 137.357 C 131.597 137.633 131.891 137.896 132.19 138.142 C 132.307 138.24 132.428 138.329 132.549 138.416 L 132.651 138.493 C 132.812 138.616 132.975 138.739 133.163 138.865 C 133.29 138.949 133.423 139.028 133.648 139.163 C 133.657 139.168 133.752 139.224 133.762 139.23 C 133.896 139.31 134.03 139.392 134.172 139.467 C 134.33 139.551 134.491 139.628 134.654 139.703 L 134.818 139.781 C 134.953 139.844 135.09 139.908 135.22 139.963 C 135.395 140.037 135.57 140.097 135.86 140.201 C 136.031 140.265 136.205 140.326 136.354 140.37 C 136.51 140.417 136.669 140.457 136.826 140.494 L 136.965 140.529 C 137.135 140.574 137.307 140.619 137.5 140.657 C 137.686 140.695 137.872 140.72 138.059 140.746 L 138.254 140.775 C 138.399 140.799 138.543 140.82 138.658 140.83 C 139.061 140.871 139.463 140.89 139.869 140.89 L 150.767 140.89 C 150.896 140.89 151.017 140.867 151.14 140.853 C 158.138 142.596 163.344 148.918 163.344 156.448 C 163.344 158.115 164.695 159.465 166.361 159.465 C 168.027 159.465 169.379 158.115 169.379 156.448 C 169.379 144.25 159.454 134.323 147.256 134.323 Z " fill="rgb(220,107,149)"/><path d=" M 128.998 175.895 C 125.445 175.895 121.891 174.543 119.185 171.838 L 78.043 130.695 C 76.865 129.517 76.865 127.605 78.043 126.428 C 79.221 125.25 81.131 125.25 82.31 126.428 L 123.451 167.57 C 126.512 170.629 131.487 170.629 134.547 167.57 C 137.603 164.511 137.603 159.535 134.545 156.477 L 75.26 97.188 C 73.775 95.706 71.807 94.89 69.711 94.89 C 67.618 94.89 65.646 95.706 64.164 97.188 C 62.684 98.669 61.865 100.64 61.865 102.735 C 61.865 104.831 62.684 106.801 64.164 108.283 L 67.018 111.139 C 68.196 112.316 68.196 114.226 67.018 115.405 C 65.838 116.581 63.928 116.581 62.752 115.405 L 59.897 112.551 C 57.275 109.928 55.832 106.443 55.832 102.735 C 55.832 99.027 57.275 95.541 59.897 92.92 C 62.519 90.298 66.006 88.855 69.711 88.855 C 73.416 88.855 76.904 90.298 79.524 92.922 L 138.812 152.211 C 144.223 157.622 144.223 166.426 138.812 171.838 C 136.105 174.541 132.553 175.895 128.998 175.895 Z " fill="rgb(220,107,149)"/><path d=" M 132.406 137.282 C 131.635 137.282 130.863 136.987 130.272 136.398 L 91.439 97.56 C 88.144 94.268 88.144 88.909 91.439 85.615 C 94.733 82.319 100.093 82.321 103.386 85.615 L 112.811 95.039 C 113.99 96.217 113.99 98.128 112.811 99.304 C 111.635 100.482 109.722 100.482 108.545 99.304 L 99.121 89.881 C 98.208 88.969 96.617 88.969 95.704 89.881 C 94.765 90.821 94.763 92.353 95.704 93.295 L 134.541 132.131 C 135.718 133.308 135.718 135.219 134.539 136.398 C 133.951 136.987 133.178 137.282 132.406 137.282 Z " fill="rgb(220,107,149)"/><path d=" M 123.215 94.762 C 119.671 94.762 116.336 96.143 113.83 98.651 L 65.754 146.725 C 63.248 149.233 61.865 152.567 61.867 156.114 C 61.867 159.658 63.248 162.992 65.754 165.498 C 68.264 168.008 71.597 169.389 75.143 169.389 C 78.689 169.389 82.022 168.008 84.529 165.5 L 132.604 117.426 C 135.112 114.917 136.492 111.584 136.492 108.039 C 136.492 104.491 135.112 101.158 132.604 98.651 C 130.096 96.143 126.762 94.762 123.215 94.762 Z  M 75.143 175.424 C 69.986 175.424 65.137 173.414 61.488 169.766 C 57.841 166.119 55.834 161.271 55.834 156.114 C 55.834 150.955 57.841 146.106 61.488 142.459 L 109.564 94.384 C 113.209 90.737 118.059 88.728 123.215 88.728 C 128.373 88.728 133.223 90.737 136.871 94.382 C 140.517 98.03 142.527 102.88 142.527 108.039 C 142.527 113.197 140.517 118.045 136.871 121.692 L 88.797 169.766 C 85.151 173.414 80.301 175.424 75.143 175.424 Z " fill="rgb(220,107,149)"/><path d=" M 96.481 175.418 C 94.317 175.418 92.155 174.595 90.507 172.949 L 77.728 160.168 C 76.547 158.988 76.547 157.078 77.728 155.901 C 78.905 154.723 80.815 154.723 81.995 155.901 L 94.774 168.682 C 95.715 169.623 97.248 169.623 98.188 168.682 C 98.645 168.225 98.895 167.619 98.895 166.973 C 98.895 166.329 98.645 165.724 98.19 165.27 L 63.627 130.705 C 61.002 128.084 59.559 124.6 59.559 120.892 C 59.559 117.184 61.002 113.699 63.627 111.077 C 69.038 105.668 77.843 105.666 83.254 111.076 L 116.652 144.476 C 117.831 145.653 117.831 147.563 116.652 148.742 C 115.473 149.92 113.561 149.92 112.385 148.742 L 78.987 115.344 C 75.929 112.286 70.952 112.285 67.893 115.344 C 66.412 116.824 65.594 118.796 65.594 120.892 C 65.594 122.986 66.412 124.955 67.893 126.438 L 102.455 161.002 C 104.049 162.596 104.93 164.717 104.93 166.973 C 104.93 169.231 104.051 171.353 102.455 172.949 C 100.807 174.595 98.645 175.418 96.481 175.418 Z " fill="rgb(220,107,149)"/><path d=" M 110.924 100.418 C 110.15 100.418 109.379 100.123 108.789 99.535 L 100.644 91.391 C 99.465 90.212 99.465 88.303 100.642 87.123 C 101.82 85.945 103.733 85.945 104.91 87.123 L 113.056 95.268 C 114.237 96.445 114.237 98.355 113.056 99.533 C 112.467 100.123 111.694 100.418 110.924 100.418 Z " fill="rgb(220,107,149)"/><path d=" M 129.256 157.674 C 124.356 157.674 119.45 155.809 115.719 152.078 L 85.985 122.342 C 84.805 121.164 84.805 119.254 85.985 118.076 C 87.16 116.897 89.071 116.897 90.251 118.076 L 119.986 147.813 C 125.099 152.922 133.417 152.922 138.526 147.811 C 143.637 142.699 143.637 134.383 138.526 129.273 L 132.085 122.83 C 130.906 121.653 130.906 119.742 132.085 118.563 C 133.262 117.385 135.174 117.385 136.352 118.563 L 142.793 125.006 C 150.256 132.467 150.256 144.611 142.793 152.078 C 139.061 155.809 134.156 157.674 129.256 157.674 Z " fill="rgb(220,107,149)"/><path d=" M 129.051 107.032 C 129.051 104.034 126.617 101.601 123.619 101.601 C 120.619 101.601 118.19 104.034 118.19 107.032 C 118.19 110.033 120.619 112.463 123.619 112.463 C 126.617 112.463 129.051 110.033 129.051 107.032 Z " fill="rgb(255,255,255)"/><path d=" M 123.619 104.618 C 122.287 104.618 121.205 105.701 121.205 107.032 C 121.205 108.363 122.287 109.445 123.619 109.445 C 124.951 109.445 126.033 108.363 126.033 107.032 C 126.033 105.701 124.951 104.618 123.619 104.618 Z  M 123.619 115.48 C 118.96 115.48 115.17 111.691 115.17 107.032 C 115.17 102.375 118.96 98.584 123.619 98.584 C 128.275 98.584 132.066 102.375 132.066 107.032 C 132.066 111.691 128.275 115.48 123.619 115.48 Z " fill="rgb(120,53,96)"/><path d=" M 78.059 121.113 C 78.059 118.334 75.81 116.084 73.031 116.084 C 70.253 116.084 68.002 118.334 68.002 121.113 C 68.002 123.89 70.253 126.141 73.031 126.141 C 75.81 126.141 78.059 123.89 78.059 121.113 Z " fill="rgb(120,53,96)"/><path d=" M 105.539 137.793 C 102.875 137.793 100.375 136.757 98.49 134.872 L 96.336 132.718 C 94.803 131.186 92.308 131.186 90.775 132.718 L 85.802 137.695 C 84.623 138.873 82.713 138.872 81.533 137.695 C 80.355 136.516 80.355 134.605 81.533 133.428 L 86.51 128.451 C 90.395 124.564 96.719 124.564 100.603 128.451 L 102.758 130.606 C 104.245 132.094 106.834 132.092 108.318 130.606 L 113.177 125.748 C 114.355 124.569 116.266 124.569 117.445 125.746 C 118.623 126.926 118.623 128.836 117.445 130.014 L 112.586 134.872 C 110.703 136.757 108.201 137.793 105.539 137.793 Z " fill="rgb(120,53,96)"/><path d=" M 53.815 155.572 L 55.86 155.572 C 55.916 153.482 56.307 151.455 57 149.54 L 56.17 149.54 C 55.906 149.463 55.633 149.409 55.346 149.409 C 53.71 149.409 52.12 149.601 50.583 149.939 C 50.085 151.937 49.799 154 49.799 156.113 C 49.799 156.225 49.813 156.335 49.815 156.448 C 51.008 156.008 52.264 155.691 53.569 155.548 C 53.651 155.554 53.729 155.572 53.815 155.572 Z " fill="rgb(157,73,127)"/><path d=" M 148.229 140.891 L 150.767 140.891 C 150.896 140.891 151.017 140.868 151.14 140.854 C 152.196 141.116 153.204 141.495 154.166 141.955 C 154.459 139.801 154.489 137.621 154.227 135.467 C 152.23 134.803 150.112 134.422 147.913 134.358 C 148.391 136.503 148.498 138.713 148.229 140.891 Z " fill="rgb(157,73,127)"/><path d=" M 92.363 166.199 L 92.327 166.234 L 93.211 167.119 C 93.115 166.982 93.013 166.847 92.888 166.724 L 92.363 166.199 Z " fill="rgb(157,73,127)"/><path d=" M 72.729 175.256 C 70.617 174.994 68.584 174.385 66.696 173.463 L 66.696 179.988 C 68.633 180.672 70.649 181.145 72.729 181.339 L 72.729 175.256 Z " fill="rgb(157,73,127)"/><path d=" M 133.072 181.51 L 133.072 175.281 C 131.745 175.688 130.375 175.895 128.998 175.895 C 128.343 175.895 127.689 175.834 127.038 175.741 L 127.038 181.835 C 127.685 181.898 128.341 181.93 128.998 181.93 C 130.386 181.93 131.745 181.783 133.072 181.51 Z " fill="rgb(157,73,127)"/></g></svg>