<?xml version="1.0" encoding="UTF-8" standalone="no"?><!-- Generator: Gravit.io --><svg xmlns="http://www.w3.org/2000/svg" xmlns:xlink="http://www.w3.org/1999/xlink" style="isolation:isolate" viewBox="29.553 78.079 140.35 124.566" width="140.35pt" height="124.566pt"><g><path d=" M 153.415 196.518 L 70.102 196.518 L 67.573 196.518 L 46.037 196.518 C 44.344 196.518 42.975 197.889 42.975 199.581 C 42.975 201.274 44.344 202.645 46.037 202.645 L 67.573 202.645 L 70.102 202.645 L 153.415 202.645 C 155.108 202.645 156.48 201.274 156.48 199.582 C 156.48 197.889 155.108 196.518 153.415 196.518 Z " fill="rgb(222,244,241)"/><path d=" M 66.777 202.563 C 65.657 202.563 64.581 201.944 64.045 200.876 C 63.291 199.368 63.904 197.536 65.409 196.782 L 74.708 192.133 L 74.708 172.051 C 74.708 170.366 76.072 169 77.757 169 C 79.443 169 80.81 170.366 80.81 172.051 L 80.81 194.018 C 80.81 195.174 80.156 196.231 79.123 196.749 L 68.138 202.241 C 67.7 202.458 67.235 202.563 66.777 202.563 Z " fill="rgb(249,145,110)"/><path d=" M 132.675 202.563 C 132.215 202.563 131.75 202.459 131.313 202.241 L 120.328 196.749 C 119.296 196.231 118.643 195.174 118.643 194.018 L 118.643 172.051 C 118.643 170.366 120.009 169 121.694 169 C 123.379 169 124.744 170.366 124.744 172.051 L 124.744 192.133 L 134.041 196.782 C 135.549 197.536 136.159 199.368 135.406 200.876 C 134.871 201.944 133.793 202.563 132.675 202.563 Z " fill="rgb(249,145,110)"/><path d=" M 55.791 139.1 L 55.791 150.084 L 55.791 161.067 C 55.791 167.134 60.708 172.051 66.773 172.051 L 132.677 172.051 C 138.744 172.051 143.66 167.134 143.66 161.067 L 143.66 150.084 L 143.66 134.457 L 143.66 106.149 L 121.693 106.149 L 121.693 117.133 L 99.727 117.133 L 99.727 95.164 L 77.758 95.164 L 77.758 78.079 L 55.791 78.079 L 55.791 118.658 L 55.791 139.1 Z " fill="rgb(249,145,110)"/><line x1="99.727" y1="155.996" x2="77.758" y2="155.996"/><path d=" M 99.727 159.048 L 77.758 159.048 C 76.073 159.048 74.708 157.682 74.708 155.996 C 74.708 154.313 76.073 152.945 77.758 152.945 L 99.727 152.945 C 101.413 152.945 102.777 154.313 102.777 155.996 C 102.777 157.682 101.413 159.048 99.727 159.048 Z " fill="rgb(129,69,53)"/><path d=" M 32.606 175.102 C 30.92 175.102 29.553 173.737 29.553 172.051 L 29.553 161.067 C 29.553 159.383 30.92 158.016 32.606 158.016 L 40.538 158.016 L 40.538 150.084 C 40.538 148.399 41.904 147.034 43.587 147.034 L 54.572 147.034 C 56.257 147.034 57.624 148.399 57.624 150.084 C 57.624 151.769 56.257 153.134 54.572 153.134 L 46.639 153.134 L 46.639 161.067 C 46.639 162.752 45.274 164.119 43.587 164.119 L 35.656 164.119 L 35.656 172.051 C 35.656 173.737 34.29 175.102 32.606 175.102 Z " fill="rgb(249,145,110)"/><path d=" M 166.85 175.102 C 165.164 175.102 163.799 173.737 163.799 172.051 L 163.799 164.119 L 155.866 164.119 C 154.182 164.119 152.816 162.752 152.816 161.067 L 152.816 153.134 L 144.883 153.134 C 143.198 153.134 141.831 151.769 141.831 150.084 C 141.831 148.399 143.198 147.034 144.883 147.034 L 155.866 147.034 C 157.551 147.034 158.918 148.399 158.918 150.084 L 158.918 158.016 L 166.85 158.016 C 168.536 158.016 169.903 159.383 169.903 161.067 L 169.903 172.051 C 169.903 173.737 168.536 175.102 166.85 175.102 Z " fill="rgb(249,145,110)"/><path d=" M 74.708 177.543 L 80.811 177.543 L 80.811 172.051 L 74.708 172.051 L 74.708 177.543 Z " fill="rgb(223,101,77)"/><path d=" M 55.791 150.084 L 55.791 147.033 L 50.299 147.033 L 50.299 150.084 L 50.299 153.134 L 55.791 153.134 L 55.791 150.084 Z " fill="rgb(223,101,77)"/><path d=" M 143.66 147.033 L 143.66 150.084 L 143.66 153.134 L 149.154 153.134 L 149.154 150.084 L 149.154 147.033 L 143.66 147.033 Z " fill="rgb(223,101,77)"/><path d=" M 118.643 177.543 L 124.745 177.543 L 124.745 172.051 L 118.643 172.051 L 118.643 177.543 Z " fill="rgb(223,101,77)"/><path d=" M 78.484 126.678 L 78.484 133.701 C 78.484 137.573 81.634 140.723 85.507 140.723 C 89.379 140.723 92.528 137.573 92.528 133.701 L 92.528 126.678 L 78.484 126.678 Z  M 85.507 145.643 C 78.921 145.643 73.564 140.285 73.564 133.701 L 73.564 124.218 C 73.564 122.86 74.666 121.758 76.024 121.758 L 94.988 121.758 C 96.347 121.758 97.449 122.86 97.449 124.218 L 97.449 133.701 C 97.449 140.285 92.091 145.643 85.507 145.643 Z " fill="rgb(129,69,53)"/><path d=" M 108.573 126.678 L 108.573 133.701 C 108.573 137.573 111.722 140.723 115.594 140.723 C 119.466 140.723 122.616 137.573 122.616 133.701 L 122.616 126.678 L 108.573 126.678 Z  M 115.594 145.643 C 109.01 145.643 103.652 140.285 103.652 133.701 L 103.652 124.218 C 103.652 122.86 104.754 121.758 106.113 121.758 L 125.076 121.758 C 126.435 121.758 127.537 122.86 127.537 124.218 L 127.537 133.701 C 127.537 140.285 122.178 145.643 115.594 145.643 Z " fill="rgb(129,69,53)"/><path d=" M 106.248 137.826 C 104.889 137.826 103.787 136.724 103.787 135.366 C 103.787 133.596 102.346 132.154 100.574 132.154 C 98.904 132.154 97.498 133.459 97.374 135.123 C 97.273 136.478 96.1 137.498 94.738 137.394 C 93.383 137.293 92.366 136.113 92.467 134.758 C 92.781 130.539 96.342 127.234 100.574 127.234 C 105.059 127.234 108.707 130.883 108.707 135.366 C 108.707 136.724 107.606 137.826 106.248 137.826 Z " fill="rgb(129,69,53)"/><path d=" M 145.344 126.678 L 125.076 126.678 C 123.717 126.678 122.616 125.576 122.616 124.218 C 122.616 122.86 123.717 121.758 125.076 121.758 L 145.344 121.758 C 146.703 121.758 147.804 122.86 147.804 124.218 C 147.804 125.576 146.703 126.678 145.344 126.678 Z " fill="rgb(129,69,53)"/><path d=" M 91.607 126.678 L 54.156 126.678 C 52.796 126.678 51.695 125.576 51.695 124.218 C 51.695 122.86 52.796 121.758 54.156 121.758 L 91.607 121.758 C 92.966 121.758 94.068 122.86 94.068 124.218 C 94.068 125.576 92.966 126.678 91.607 126.678 Z " fill="rgb(129,69,53)"/><path d=" M 89.846 135.376 C 89.846 136.828 88.668 138.005 87.215 138.005 C 85.764 138.005 84.586 136.828 84.586 135.376 C 84.586 133.924 85.764 132.746 87.215 132.746 C 88.668 132.746 89.846 133.924 89.846 135.376 Z " fill="rgb(129,69,53)"/><path d=" M 116.18 135.376 C 116.18 136.828 115.002 138.005 113.549 138.005 C 112.098 138.005 110.92 136.828 110.92 135.376 C 110.92 133.924 112.098 132.746 113.549 132.746 C 115.002 132.746 116.18 133.924 116.18 135.376 Z " fill="rgb(129,69,53)"/></g></svg>