<?xml version="1.0" encoding="UTF-8" standalone="no"?><!-- Generator: Gravit.io --><svg xmlns="http://www.w3.org/2000/svg" xmlns:xlink="http://www.w3.org/1999/xlink" style="isolation:isolate" viewBox="39.339 81.874 123.298 117.708" width="123.298pt" height="117.708pt"><g><path d=" M 147.656 193.255 L 81.415 193.255 L 78.808 193.255 L 42.502 193.255 C 40.754 193.255 39.339 194.672 39.339 196.418 C 39.339 198.164 40.754 199.581 42.502 199.581 L 78.808 199.581 L 81.415 199.581 L 147.656 199.581 C 149.403 199.581 150.819 198.164 150.819 196.418 C 150.819 194.672 149.403 193.255 147.656 193.255 Z " fill="rgb(222,244,241)"/><path d=" M 162.638 117.98 C 162.638 117.139 162.318 116.301 161.676 115.658 C 160.392 114.373 158.314 114.373 157.03 115.658 L 128.556 144.132 C 127.272 145.415 127.272 147.493 128.556 148.775 C 129.839 150.06 131.919 150.06 133.202 148.775 L 161.676 120.303 C 162.318 119.662 162.638 118.821 162.638 117.98 Z " fill="rgb(237,64,57)"/><path d=" M 146.618 135.36 L 146.682 126.004 L 141.672 131.016 L 141.605 140.372 L 146.618 135.36 Z " fill="rgb(100,6,4)"/><path d=" M 76.678 150.581 L 48.205 179.055 C 47.565 179.696 46.724 180.017 45.883 180.017 C 45.042 180.017 44.203 179.696 43.561 179.055 C 42.277 177.77 42.277 175.692 43.561 174.408 L 72.035 145.935" fill="rgb(237,64,57)"/><path d=" M 63.565 163.696 L 58.919 168.341 L 54.274 163.696 L 58.919 159.051" fill="rgb(100,6,4)"/><path d=" M 119.668 199.582 C 119.174 199.582 118.672 199.469 118.2 199.233 L 106.374 193.319 C 105.261 192.763 104.558 191.627 104.558 190.381 L 104.558 165.747 C 104.558 163.932 106.029 162.461 107.842 162.461 C 109.658 162.461 111.128 163.932 111.128 165.747 L 111.128 188.351 L 121.14 193.356 C 122.763 194.169 123.42 196.141 122.611 197.765 C 122.033 198.917 120.874 199.582 119.668 199.582 Z " fill="rgb(237,64,57)"/><path d=" M 107.842 174.774 L 104.558 174.774 L 104.558 181.344 L 107.842 181.344 L 111.128 181.344 L 111.128 174.774 L 107.842 174.774 Z " fill="rgb(100,6,4)"/><path d=" M 70.867 199.582 C 71.361 199.582 71.863 199.469 72.335 199.233 L 84.161 193.319 C 85.273 192.763 85.977 191.627 85.977 190.381 L 85.977 167.393 C 85.977 165.578 84.506 164.107 82.693 164.107 C 80.877 164.107 79.407 165.578 79.407 167.393 L 79.407 188.351 L 69.395 193.356 C 67.772 194.169 67.115 196.141 67.924 197.765 C 68.502 198.917 69.661 199.582 70.867 199.582 Z " fill="rgb(237,64,57)"/><path d=" M 82.693 174.774 L 85.977 174.774 L 85.977 181.344 L 82.693 181.344 L 79.407 181.344 L 79.407 174.774 L 82.693 174.774 Z " fill="rgb(100,6,4)"/><path d=" M 141.718 108.002 L 115.59 81.874 L 74.946 81.874 L 48.818 108.002 L 48.818 148.646 L 74.946 174.774 L 115.59 174.774 L 141.718 148.646 L 141.718 108.002 Z " fill="rgb(237,64,57)"/><path d=" M 113.879 86.003 L 76.656 86.003 L 52.946 109.712 L 52.946 146.936 L 76.656 170.645 L 113.879 170.645 L 137.589 146.936 L 137.589 109.712 L 113.879 86.003 Z  M 112.597 89.1 L 134.492 110.995 L 134.492 145.653 L 112.597 167.548 L 77.939 167.548 L 56.043 145.653 L 56.043 110.995 L 77.939 89.1 L 112.597 89.1 Z " fill="rgb(255,255,255)"/><path d=" M 110.839 149 L 80.338 149 C 78.5 149 77.009 150.49 77.009 152.33 C 77.009 154.169 78.5 155.659 80.338 155.659 L 110.839 155.659 C 112.68 155.659 114.169 154.169 114.169 152.33 C 114.169 150.49 112.68 149 110.839 149 Z " fill="rgb(100,6,4)"/><path d=" M 77.295 129.721 C 73.854 129.721 71.054 132.522 71.054 135.964 C 71.054 139.406 73.854 142.207 77.295 142.207 C 80.736 142.207 83.538 139.406 83.538 135.964 C 83.538 132.522 80.736 129.721 77.295 129.721 Z " fill="rgb(100,6,4)"/><path d=" M 113.053 129.721 C 109.612 129.721 106.812 132.522 106.812 135.964 C 106.812 139.406 109.612 142.207 113.053 142.207 C 116.494 142.207 119.296 139.406 119.296 135.964 C 119.296 132.522 116.494 129.721 113.053 129.721 Z " fill="rgb(100,6,4)"/></g></svg>