<?xml version="1.0" encoding="UTF-8" standalone="no"?><!-- Generator: Gravit.io --><svg xmlns="http://www.w3.org/2000/svg" xmlns:xlink="http://www.w3.org/1999/xlink" style="isolation:isolate" viewBox="31.836 105.582 137.906 94" width="137.906pt" height="94pt"><g><path d=" M 150.018 193.153 L 83.755 193.153 L 81.106 193.153 L 51.561 193.153 C 49.785 193.153 48.347 194.593 48.347 196.367 C 48.347 198.141 49.785 199.582 51.561 199.582 L 81.106 199.582 L 83.755 199.582 L 150.018 199.582 C 151.794 199.582 153.232 198.141 153.232 196.367 C 153.232 194.593 151.794 193.153 150.018 193.153 Z " fill="rgb(222,244,241)"/><path d=" M 136.491 193.769 L 127.143 189.095 L 127.143 168.9 C 127.143 167.206 125.769 165.832 124.074 165.832 C 122.38 165.832 121.007 167.206 121.007 168.9 L 121.007 190.991 C 121.007 192.152 121.664 193.214 122.701 193.734 L 133.748 199.257 C 134.188 199.478 134.656 199.582 135.117 199.582 C 136.243 199.582 137.326 198.96 137.864 197.886 C 138.622 196.37 138.007 194.527 136.491 193.769 Z  M 78.245 165.832 C 76.55 165.832 75.177 167.206 75.177 168.9 L 75.177 189.095 L 65.828 193.769 C 64.312 194.527 63.698 196.37 64.456 197.886 C 64.994 198.96 66.076 199.582 67.202 199.582 C 67.664 199.582 68.131 199.477 68.573 199.257 L 79.618 193.734 C 80.657 193.214 81.312 192.152 81.312 190.991 L 81.312 168.9 C 81.312 167.206 79.94 165.832 78.245 165.832 Z " fill="rgb(168,179,140)"/><path d=" M 124.074 165.832 C 122.38 165.832 121.007 167.206 121.007 168.9 L 121.007 178.204 C 123.056 178.453 125.102 178.741 127.143 179.068 L 127.143 168.9 C 127.143 167.206 125.769 165.832 124.074 165.832 Z " fill="rgb(125,134,104)"/><path d=" M 78.246 165.832 C 76.551 165.832 75.177 167.206 75.177 168.9 L 75.177 179.068 C 77.218 178.741 79.264 178.453 81.313 178.204 L 81.313 168.9 C 81.313 167.206 79.94 165.832 78.246 165.832 Z " fill="rgb(125,134,104)"/><path d=" M 43.899 131.538 C 44.57 131.538 45.241 131.794 45.753 132.307 C 46.777 133.331 46.777 134.99 45.753 136.015 L 38.167 143.601 L 45.753 151.187 C 46.777 152.211 46.777 153.871 45.753 154.895 C 44.729 155.919 43.069 155.919 42.045 154.895 L 32.605 145.455 C 31.58 144.431 31.58 142.771 32.605 141.747 L 42.045 132.307 C 42.557 131.794 43.228 131.538 43.899 131.538 Z " fill="rgb(168,179,140)"/><path d=" M 34.459 140.979 L 72.221 140.979 C 73.669 140.979 74.843 142.153 74.843 143.602 C 74.843 145.05 73.669 146.224 72.221 146.224 L 34.459 146.224 C 33.011 146.224 31.837 145.05 31.837 143.602 C 31.837 142.153 33.011 140.979 34.459 140.979 Z " fill="rgb(168,179,140)"/><path d=" M 48.044 144.15 C 48.044 144.849 48.005 145.54 47.946 146.223 L 64.872 146.223 C 66.32 146.223 67.494 145.049 67.494 143.601 C 67.494 142.152 66.32 140.979 64.872 140.979 L 47.825 140.979 C 47.964 142.017 48.044 143.073 48.044 144.15 Z " fill="rgb(125,134,104)"/><path d=" M 157.679 155.664 C 157.008 155.664 156.337 155.408 155.825 154.896 C 154.801 153.872 154.801 152.212 155.825 151.187 L 163.411 143.601 L 155.825 136.015 C 154.801 134.991 154.801 133.331 155.825 132.307 C 156.85 131.283 158.509 131.283 159.533 132.307 L 168.974 141.747 C 169.998 142.771 169.998 144.431 168.974 145.456 L 159.533 154.896 C 159.022 155.408 158.351 155.664 157.679 155.664 Z " fill="rgb(168,179,140)"/><path d=" M 167.119 146.223 L 129.358 146.223 C 127.91 146.223 126.736 145.049 126.736 143.601 C 126.736 142.152 127.91 140.978 129.358 140.978 L 167.119 140.978 C 168.568 140.978 169.742 142.152 169.742 143.601 C 169.742 145.049 168.568 146.223 167.119 146.223 Z " fill="rgb(168,179,140)"/><path d=" M 155.634 143.052 C 155.634 142.352 155.672 141.662 155.732 140.978 L 138.806 140.978 C 137.358 140.978 136.184 142.152 136.184 143.601 C 136.184 145.049 137.358 146.223 138.806 146.223 L 155.854 146.223 C 155.714 145.185 155.634 144.128 155.634 143.052 Z " fill="rgb(125,134,104)"/><path d=" M 147.152 176.099 C 117.115 167.352 85.205 167.352 55.168 176.099 C 53.98 176.445 52.792 175.569 52.792 174.33 L 52.792 107.427 C 52.792 106.189 53.98 105.312 55.168 105.659 C 85.205 114.406 117.115 114.406 147.152 105.659 C 148.34 105.312 149.528 106.189 149.528 107.427 L 149.528 174.33 C 149.528 175.569 148.34 176.445 147.152 176.099 Z " fill="rgb(168,179,140)"/><path d=" M 101.16 154.192 C 90.389 154.192 79.619 153.141 68.924 151.038 C 67.503 150.758 66.577 149.38 66.857 147.959 C 67.137 146.538 68.517 145.61 69.936 145.892 C 90.654 149.967 111.666 149.967 132.385 145.892 C 133.808 145.611 135.184 146.538 135.464 147.959 C 135.743 149.38 134.817 150.758 133.396 151.038 C 122.702 153.141 111.931 154.192 101.16 154.192 Z " fill="rgb(40,75,78)"/><path d=" M 138.832 133.132 C 138.832 130.556 136.743 128.468 134.167 128.468 C 131.59 128.468 129.502 130.556 129.502 133.132 C 129.502 135.71 131.59 137.799 134.167 137.799 C 136.743 137.799 138.832 135.71 138.832 133.132 Z " fill="rgb(40,75,78)"/><path d=" M 72.818 133.132 C 72.818 130.556 70.732 128.468 68.153 128.468 C 65.576 128.468 63.488 130.556 63.488 133.132 C 63.488 135.71 65.576 137.799 68.153 137.799 C 70.732 137.799 72.818 135.71 72.818 133.132 Z " fill="rgb(40,75,78)"/></g></svg>