<?xml version="1.0" encoding="UTF-8" standalone="no"?><!-- Generator: Gravit.io --><svg xmlns="http://www.w3.org/2000/svg" xmlns:xlink="http://www.w3.org/1999/xlink" style="isolation:isolate" viewBox="29.877 79.27 141.116 123.381" width="141.116pt" height="123.381pt"><g><path d=" M 167.811 171.426 C 168.624 171.426 169.438 171.115 170.061 170.494 C 171.305 169.25 171.305 167.237 170.061 165.992 L 142.474 138.408 C 141.233 137.164 139.219 137.164 137.977 138.408 C 136.733 139.652 136.733 141.666 137.977 142.909 L 165.561 170.494 C 166.182 171.115 166.997 171.426 167.811 171.426 Z " fill="rgb(166,94,175)"/><path d=" M 144.893 140.825 L 151.258 147.19 L 151.258 151.054 C 151.258 152.654 151.096 154.215 150.789 155.724 L 144.893 149.826 L 144.893 140.825 Z " fill="rgb(92,67,132)"/><path d=" M 33.061 177.426 C 32.246 177.426 31.431 177.115 30.809 176.494 C 29.566 175.25 29.566 173.237 30.809 171.992 L 58.396 144.408 C 59.637 143.164 61.652 143.164 62.894 144.408 C 64.138 145.652 64.138 147.666 62.894 148.909 L 35.311 176.494 C 34.689 177.115 33.875 177.426 33.061 177.426 Z " fill="rgb(166,94,175)"/><path d=" M 55.979 146.825 L 49.612 153.19 L 49.612 157.054 C 49.612 158.654 49.775 160.215 50.082 161.724 L 55.979 155.826 L 55.979 146.825 Z " fill="rgb(92,67,132)"/><path d=" M 161.047 196.522 L 69.588 196.522 L 67.063 196.522 L 39.426 196.522 C 37.733 196.522 36.361 197.895 36.361 199.586 C 36.361 201.278 37.733 202.651 39.426 202.651 L 67.063 202.651 L 69.588 202.651 L 161.047 202.651 C 162.74 202.651 164.111 201.278 164.111 199.586 C 164.111 197.895 162.74 196.522 161.047 196.522 Z " fill="rgb(222,244,241)"/><path d=" M 141.463 202.65 C 140.984 202.65 140.498 202.541 140.041 202.312 L 128.584 196.583 C 127.506 196.044 126.824 194.943 126.824 193.736 L 126.824 157.904 C 126.824 156.146 128.25 154.721 130.006 154.721 C 131.766 154.721 133.19 156.146 133.19 157.904 L 133.19 191.769 L 142.889 196.619 C 144.461 197.406 145.098 199.316 144.315 200.889 C 143.754 202.005 142.631 202.65 141.463 202.65 Z " fill="rgb(166,94,175)"/><path d=" M 130.006 165.322 L 126.824 165.322 L 126.824 171.687 L 130.006 171.687 L 133.19 171.687 L 133.19 165.322 L 130.006 165.322 Z " fill="rgb(92,67,132)"/><path d=" M 59.186 202.65 C 59.665 202.65 60.151 202.541 60.607 202.312 L 72.065 196.583 C 73.143 196.044 73.825 194.943 73.825 193.736 L 73.825 159.499 C 73.825 157.741 72.399 156.316 70.643 156.316 C 68.883 156.316 67.459 157.741 67.459 159.499 L 67.459 191.769 L 57.759 196.619 C 56.188 197.406 55.551 199.316 56.334 200.889 C 56.895 202.005 58.018 202.65 59.186 202.65 Z " fill="rgb(166,94,175)"/><path d=" M 70.643 162.27 L 73.825 162.27 L 73.825 168.635 L 70.643 168.635 L 67.459 168.635 L 67.459 162.27 L 70.643 162.27 Z " fill="rgb(92,67,132)"/><path d=" M 143.397 87.77 L 137.276 87.77 C 136.501 87.77 135.868 88.393 135.84 89.163 L 135.84 95.367 C 135.84 96.16 135.192 96.807 134.401 96.807 L 128.28 96.807 C 127.489 96.807 126.84 96.16 126.84 95.367 L 126.84 94.663 C 126.84 94.679 126.836 94.694 126.836 94.709 L 126.836 89.709 C 126.836 88.917 126.188 88.27 125.397 88.27 L 120.461 88.27 L 120.461 88.261 L 119.276 88.261 C 118.485 88.261 117.836 87.613 117.836 86.821 L 117.836 86.105 L 117.836 80.709 C 117.836 79.917 117.188 79.27 116.397 79.27 L 110.276 79.27 C 109.501 79.27 108.868 79.893 108.84 80.663 L 108.84 94.492 C 108.84 94.509 108.836 94.524 108.836 94.541 L 108.836 94.709 C 108.836 94.681 108.829 94.654 108.827 94.625 C 108.758 95.354 108.147 95.932 107.401 95.932 L 101.28 95.932 C 100.518 95.932 99.895 95.33 99.85 94.577 C 99.846 94.622 99.836 94.664 99.836 94.709 L 99.836 83.709 C 99.836 82.917 99.188 82.27 98.397 82.27 L 75.276 82.27 C 74.501 82.27 73.868 82.893 73.84 83.663 L 73.84 87.84 C 73.84 88.633 73.192 89.282 72.401 89.282 L 66.28 89.282 C 66.26 89.282 66.241 89.277 66.221 89.276 C 65.471 89.304 64.866 89.911 64.84 90.663 L 64.84 95.825 C 64.84 96.617 64.192 97.265 63.401 97.265 L 62.215 97.265 L 62.215 97.27 L 57.276 97.27 C 56.485 97.27 55.835 97.917 55.835 98.709 L 55.835 167.83 C 55.835 168.622 56.485 169.27 57.276 169.27 L 63.397 169.27 C 64.135 169.27 64.743 168.703 64.821 167.983 L 64.821 163.71 C 64.821 162.918 65.469 162.27 66.26 162.27 L 67.446 162.27 L 72.381 162.27 L 72.397 162.27 C 73.17 162.27 73.805 161.647 73.831 160.877 L 73.831 158.7 C 73.831 157.908 74.479 157.259 75.27 157.259 L 98.381 157.259 C 99.172 157.259 99.821 157.908 99.821 158.7 L 99.821 159.311 L 99.836 159.311 L 99.836 163.83 C 99.836 164.622 100.485 165.27 101.276 165.27 L 107.397 165.27 C 108.188 165.27 108.836 164.622 108.836 163.83 L 108.836 156.144 L 108.836 155.695 C 108.836 154.902 109.485 154.253 110.276 154.253 L 116.397 154.253 C 117.188 154.253 117.836 154.902 117.836 155.695 L 117.836 156.144 L 117.836 158.83 C 117.836 159.622 118.485 160.27 119.276 160.27 L 125.397 160.27 C 125.422 160.27 125.448 160.263 125.473 160.262 C 126.229 160.303 126.836 160.929 126.836 161.695 L 126.836 162.144 L 126.836 163.727 L 126.836 163.83 C 126.836 164.622 127.485 165.27 128.276 165.27 L 134.397 165.27 C 135.188 165.27 135.836 164.622 135.836 163.83 L 135.836 161.925 L 135.84 161.925 L 135.84 161.21 C 135.84 160.418 136.489 159.77 137.28 159.77 L 138.465 159.77 L 143.397 159.77 C 144.188 159.77 144.836 159.122 144.836 158.33 L 144.836 89.209 C 144.836 88.417 144.188 87.77 143.397 87.77 Z " fill="rgb(166,94,175)"/><path d=" M 69.902 120.618 C 69.902 121.88 70.931 122.907 72.193 122.907 C 73.455 122.907 74.484 121.88 74.484 120.618 C 74.484 119.355 73.455 118.327 72.193 118.327 C 70.931 118.327 69.902 119.355 69.902 120.618 Z  M 80.209 120.618 C 80.209 125.036 76.613 128.634 72.193 128.634 C 67.775 128.634 64.177 125.036 64.177 120.618 C 64.177 116.198 67.775 112.602 72.193 112.602 C 76.613 112.602 80.209 116.198 80.209 120.618 Z " fill="rgb(92,67,132)"/><path d=" M 124.527 114.201 C 124.527 115.463 125.556 116.49 126.818 116.49 C 128.08 116.49 129.109 115.463 129.109 114.201 C 129.109 112.938 128.08 111.91 126.818 111.91 C 125.556 111.91 124.527 112.938 124.527 114.201 Z  M 134.834 114.201 C 134.834 118.619 131.238 122.217 126.818 122.217 C 122.4 122.217 118.802 118.619 118.802 114.201 C 118.802 109.781 122.4 106.185 126.818 106.185 C 131.238 106.185 134.834 109.781 134.834 114.201 Z " fill="rgb(92,67,132)"/><path d=" M 80.4 112.603 L 80.4 118.328 C 81.662 118.328 82.691 119.356 82.691 120.619 C 82.691 121.88 81.662 122.908 80.4 122.908 L 80.4 128.634 C 84.82 128.634 88.416 125.037 88.416 120.619 C 88.416 116.199 84.82 112.603 80.4 112.603 Z " fill="rgb(92,67,132)"/><path d=" M 89.418 112.603 L 89.418 118.328 C 90.682 118.328 91.709 119.356 91.709 120.619 C 91.709 121.88 90.682 122.908 89.418 122.908 L 89.418 128.634 C 93.838 128.634 97.434 125.037 97.434 120.619 C 97.434 116.199 93.838 112.603 89.418 112.603 Z " fill="rgb(92,67,132)"/><path d=" M 101.986 112.603 L 101.986 118.328 C 103.25 118.328 104.277 119.356 104.277 120.619 C 104.277 121.88 103.25 122.908 101.986 122.908 L 101.986 128.634 C 106.406 128.634 110.002 125.037 110.002 120.619 C 110.002 116.199 106.406 112.603 101.986 112.603 Z " fill="rgb(92,67,132)"/><path d=" M 80.465 144.332 C 74.778 144.332 71.777 143.197 69.129 142.194 L 68.596 141.994 C 67.121 141.444 66.373 139.803 66.926 138.33 C 67.477 136.857 69.121 136.113 70.59 136.662 L 71.141 136.872 C 73.651 137.818 75.82 138.641 80.465 138.641" fill="rgb(92,67,132)"/><path d=" M 94.953 135.912 L 94.402 136.122 C 92.836 136.712 91.402 137.254 89.418 137.579 L 89.418 143.322 C 92.478 142.93 94.537 142.155 96.414 141.444 L 96.947 141.244 C 98.422 140.694 99.17 139.053 98.617 137.58 C 98.066 136.107 96.422 135.363 94.953 135.912 Z " fill="rgb(92,67,132)"/><path d=" M 107.522 135.912 L 106.969 136.122 C 105.405 136.712 103.971 137.254 101.987 137.579 L 101.987 143.322 C 105.047 142.93 107.106 142.155 108.983 141.444 L 109.516 141.244 C 110.991 140.694 111.737 139.053 111.186 137.58 C 110.633 136.107 108.991 135.363 107.522 135.912 Z " fill="rgb(92,67,132)"/><path d=" M 88.256 135.023 C 86.252 135.727 84.117 136.265 80.369 136.265 L 80.369 141.957 C 83.815 141.957 86.264 141.538 88.256 140.987 L 88.256 135.023 Z " fill="rgb(92,67,132)"/></g></svg>