<?xml version="1.0" encoding="UTF-8" standalone="no"?><!-- Generator: Gravit.io --><svg xmlns="http://www.w3.org/2000/svg" xmlns:xlink="http://www.w3.org/1999/xlink" style="isolation:isolate" viewBox="52.815 76.11 94.809 126.945" width="94.809pt" height="126.945pt"><g><path d=" M 144.56 196.927 L 70.102 196.927 L 67.575 196.927 L 55.879 196.927 C 54.186 196.927 52.815 198.299 52.815 199.99 C 52.815 201.683 54.186 203.055 55.879 203.055 L 67.575 203.055 L 70.102 203.055 L 144.56 203.055 C 146.253 203.055 147.624 201.683 147.624 199.991 C 147.624 198.299 146.253 196.927 144.56 196.927 Z " fill="rgb(222,244,241)"/><path d=" M 122.37 161.862 C 121.187 161.862 120.121 162.575 119.668 163.667 C 119.217 164.759 119.467 166.018 120.303 166.854 L 141.361 187.914 C 141.922 188.474 142.67 188.771 143.432 188.771 C 143.807 188.771 144.187 188.698 144.55 188.548 C 145.641 188.095 146.354 187.03 146.354 185.846 C 146.354 172.621 135.596 161.862 122.37 161.862 Z  M 79.472 161.862 C 66.246 161.862 55.487 172.621 55.487 185.846 C 55.487 187.03 56.2 188.095 57.292 188.548 C 57.655 188.698 58.035 188.771 58.41 188.771 C 59.174 188.771 59.92 188.474 60.48 187.914 L 81.539 166.854 C 82.375 166.018 82.627 164.759 82.174 163.667 C 81.721 162.575 80.654 161.862 79.472 161.862 Z " fill="rgb(147,220,211)"/><path d=" M 58.412 125.64 C 56.796 125.64 55.487 124.331 55.487 122.716 L 55.487 118.036 C 55.487 116.42 56.796 115.111 58.412 115.111 L 63.092 115.111 C 64.707 115.111 66.017 116.42 66.017 118.036 C 66.017 119.652 64.707 120.961 63.092 120.961 L 61.338 120.961 L 61.338 122.716 C 61.338 124.331 60.027 125.64 58.412 125.64 Z " fill="rgb(71,177,161)"/><path d=" M 79.732 120.961 L 71.412 120.961 C 69.796 120.961 68.487 119.651 68.487 118.036 C 68.487 116.42 69.796 115.11 71.412 115.11 L 79.732 115.11 C 81.347 115.11 82.657 116.42 82.657 118.036 C 82.657 119.651 81.347 120.961 79.732 120.961 Z  M 96.371 120.961 L 88.052 120.961 C 86.437 120.961 85.128 119.651 85.128 118.036 C 85.128 116.42 86.437 115.11 88.052 115.11 L 96.371 115.11 C 97.986 115.11 99.296 116.42 99.296 118.036 C 99.296 119.651 97.986 120.961 96.371 120.961 Z  M 113.011 120.961 L 104.691 120.961 C 103.075 120.961 101.766 119.651 101.766 118.036 C 101.766 116.42 103.075 115.11 104.691 115.11 L 113.011 115.11 C 114.627 115.11 115.936 116.42 115.936 118.036 C 115.936 119.651 114.627 120.961 113.011 120.961 Z  M 129.65 120.961 L 121.332 120.961 C 119.715 120.961 118.407 119.651 118.407 118.036 C 118.407 116.42 119.715 115.11 121.332 115.11 L 129.65 115.11 C 131.265 115.11 132.576 116.42 132.576 118.036 C 132.576 119.651 131.265 120.961 129.65 120.961 Z " fill="rgb(71,177,161)"/><path d=" M 142.65 125.64 C 141.035 125.64 139.725 124.331 139.725 122.716 L 139.725 120.961 L 137.97 120.961 C 136.354 120.961 135.046 119.652 135.046 118.036 C 135.046 116.42 136.354 115.111 137.97 115.111 L 142.65 115.111 C 144.266 115.111 145.576 116.42 145.576 118.036 L 145.576 122.716 C 145.576 124.331 144.266 125.64 142.65 125.64 Z " fill="rgb(71,177,161)"/><path d=" M 142.65 142.541 C 141.035 142.541 139.725 141.232 139.725 139.616 L 139.725 131.166 C 139.725 129.55 141.035 128.24 142.65 128.24 C 144.266 128.24 145.576 129.55 145.576 131.166 L 145.576 139.616 C 145.576 141.232 144.266 142.541 142.65 142.541 Z " fill="rgb(71,177,161)"/><path d=" M 142.65 155.67 L 137.97 155.67 C 136.354 155.67 135.046 154.361 135.046 152.746 C 135.046 151.13 136.354 149.82 137.97 149.82 L 139.725 149.82 L 139.725 148.066 C 139.725 146.45 141.035 145.141 142.65 145.141 C 144.266 145.141 145.576 146.45 145.576 148.066 L 145.576 152.746 C 145.576 154.361 144.266 155.67 142.65 155.67 Z " fill="rgb(71,177,161)"/><path d=" M 79.731 155.67 L 71.413 155.67 C 69.797 155.67 68.488 154.361 68.488 152.746 C 68.488 151.13 69.797 149.82 71.413 149.82 L 79.731 149.82 C 81.347 149.82 82.657 151.13 82.657 152.746 C 82.657 154.361 81.347 155.67 79.731 155.67 Z  M 96.372 155.67 L 88.051 155.67 C 86.436 155.67 85.127 154.361 85.127 152.746 C 85.127 151.13 86.436 149.82 88.051 149.82 L 96.372 149.82 C 97.987 149.82 99.297 151.13 99.297 152.746 C 99.297 154.361 97.987 155.67 96.372 155.67 Z  M 113.01 155.67 L 104.692 155.67 C 103.076 155.67 101.767 154.361 101.767 152.746 C 101.767 151.13 103.076 149.82 104.692 149.82 L 113.01 149.82 C 114.627 149.82 115.936 151.13 115.936 152.746 C 115.936 154.361 114.627 155.67 113.01 155.67 Z  M 129.651 155.67 L 121.331 155.67 C 119.715 155.67 118.406 154.361 118.406 152.746 C 118.406 151.13 119.715 149.82 121.331 149.82 L 129.651 149.82 C 131.266 149.82 132.577 151.13 132.577 152.746 C 132.577 154.361 131.266 155.67 129.651 155.67 Z " fill="rgb(71,177,161)"/><path d=" M 63.092 155.67 L 58.412 155.67 C 56.796 155.67 55.488 154.361 55.488 152.746 L 55.488 148.066 C 55.488 146.45 56.796 145.141 58.412 145.141 C 60.028 145.141 61.338 146.45 61.338 148.066 L 61.338 149.82 L 63.092 149.82 C 64.707 149.82 66.018 151.13 66.018 152.746 C 66.018 154.361 64.707 155.67 63.092 155.67 Z " fill="rgb(71,177,161)"/><path d=" M 58.412 142.54 C 56.796 142.54 55.487 141.231 55.487 139.614 L 55.487 131.165 C 55.487 129.55 56.796 128.239 58.412 128.239 C 60.027 128.239 61.338 129.55 61.338 131.165 L 61.338 139.614 C 61.338 141.231 60.027 142.54 58.412 142.54 Z " fill="rgb(71,177,161)"/><path d=" M 111.449 110.501 C 110.953 110.501 110.448 110.376 109.988 110.108 L 100.533 104.644 L 91.076 110.108 C 89.681 110.92 87.888 110.44 87.08 109.04 C 86.272 107.642 86.751 105.853 88.149 105.045 L 99.068 98.733 C 99.972 98.21 101.092 98.21 101.996 98.733 L 112.916 105.045 C 114.314 105.853 114.793 107.642 113.984 109.04 C 113.442 109.978 112.459 110.501 111.449 110.501 Z " fill="rgb(60,113,115)"/><path d=" M 79.474 203.055 C 78.401 203.055 77.37 202.462 76.856 201.438 C 76.133 199.992 76.719 198.236 78.164 197.513 L 87.077 193.057 L 87.077 173.804 C 87.077 172.189 88.386 170.879 90.002 170.879 C 91.618 170.879 92.926 172.189 92.926 173.804 L 92.926 194.865 C 92.926 195.972 92.301 196.984 91.311 197.48 L 80.781 202.745 C 80.36 202.954 79.914 203.055 79.474 203.055 Z " fill="rgb(147,220,211)"/><path d=" M 121.589 203.055 C 121.149 203.055 120.703 202.956 120.283 202.745 L 109.752 197.48 C 108.763 196.984 108.137 195.972 108.137 194.865 L 108.137 173.804 C 108.137 172.189 109.445 170.879 111.061 170.879 C 112.677 170.879 113.986 172.189 113.986 173.804 L 113.986 193.057 L 122.899 197.513 C 124.344 198.236 124.93 199.992 124.207 201.438 C 123.694 202.462 122.662 203.055 121.589 203.055 Z " fill="rgb(147,220,211)"/><path d=" M 121.591 89.565 L 79.472 89.565 L 79.472 173.803 L 121.591 173.803 L 121.591 89.565 Z " fill="rgb(147,220,211)"/><path d=" M 82.396 170.879 L 118.666 170.879 L 118.666 92.491 L 82.396 92.491 L 82.396 170.879 Z  M 121.591 176.729 L 79.472 176.729 C 77.855 176.729 76.547 175.419 76.547 173.804 L 76.547 89.565 C 76.547 87.95 77.855 86.64 79.472 86.64 L 121.591 86.64 C 123.206 86.64 124.516 87.95 124.516 89.565 L 124.516 173.804 C 124.516 175.419 123.206 176.729 121.591 176.729 Z " fill="rgb(147,220,211)"/><path d=" M 68.941 89.566 C 68.941 83.749 73.656 79.036 79.471 79.036 C 85.287 79.036 90.002 83.749 90.002 89.566 C 90.002 95.381 85.287 100.095 79.471 100.095 C 73.656 100.095 68.941 95.381 68.941 89.566 Z " fill="rgb(255,255,255)"/><path d=" M 79.472 81.96 C 75.28 81.96 71.867 85.372 71.867 89.566 C 71.867 93.76 75.28 97.172 79.472 97.172 C 83.666 97.172 87.076 93.76 87.076 89.566 C 87.076 85.372 83.666 81.96 79.472 81.96 Z  M 79.472 103.022 C 72.053 103.022 66.018 96.985 66.018 89.566 C 66.018 82.147 72.053 76.11 79.472 76.11 C 86.891 76.11 92.926 82.147 92.926 89.566 C 92.926 96.985 86.891 103.022 79.472 103.022 Z " fill="rgb(60,113,115)"/><path d=" M 75.164 89.566 C 75.164 87.186 77.092 85.256 79.472 85.256 C 81.851 85.256 83.779 87.186 83.779 89.566 C 83.779 91.946 81.851 93.874 79.472 93.874 C 77.092 93.874 75.164 91.946 75.164 89.566 Z " fill="rgb(60,113,115)"/><path d=" M 111.061 89.566 C 111.061 83.749 115.774 79.036 121.591 79.036 C 127.407 79.036 132.122 83.749 132.122 89.566 C 132.122 95.381 127.407 100.095 121.591 100.095 C 115.774 100.095 111.061 95.381 111.061 89.566 Z " fill="rgb(255,255,255)"/><path d=" M 121.591 81.96 C 117.399 81.96 113.987 85.372 113.987 89.566 C 113.987 93.76 117.399 97.172 121.591 97.172 C 125.783 97.172 129.196 93.76 129.196 89.566 C 129.196 85.372 125.783 81.96 121.591 81.96 Z  M 121.591 103.022 C 114.173 103.022 108.137 96.985 108.137 89.566 C 108.137 82.147 114.173 76.11 121.591 76.11 C 129.01 76.11 135.046 82.147 135.046 89.566 C 135.046 96.985 129.01 103.022 121.591 103.022 Z " fill="rgb(60,113,115)"/><path d=" M 117.283 89.566 C 117.283 87.186 119.211 85.256 121.591 85.256 C 123.97 85.256 125.898 87.186 125.898 89.566 C 125.898 91.946 123.97 93.874 121.591 93.874 C 119.211 93.874 117.283 91.946 117.283 89.566 Z " fill="rgb(60,113,115)"/><path d=" M 110.806 103.995 L 100.727 98.013 L 90.649 103.995 L 100.727 109.977 L 110.806 103.995 Z " fill="rgb(255,255,255)"/><path d=" M 96.379 103.995 L 100.727 106.577 L 105.075 103.995 L 100.727 101.413 L 96.379 103.995 Z  M 100.727 112.903 C 100.21 112.903 99.693 112.766 99.233 112.493 L 89.154 106.511 C 88.267 105.983 87.723 105.028 87.723 103.995 C 87.723 102.965 88.267 102.007 89.154 101.48 L 99.233 95.497 C 100.154 94.952 101.299 94.952 102.221 95.497 L 112.299 101.48 C 113.188 102.007 113.731 102.965 113.731 103.995 C 113.731 105.028 113.188 105.983 112.299 106.511 L 102.221 112.493 C 101.76 112.766 101.244 112.903 100.727 112.903 Z " fill="rgb(60,113,115)"/><path d=" M 96.371 115.11 L 88.053 115.11 C 86.437 115.11 85.128 116.42 85.128 118.036 C 85.128 119.651 86.437 120.961 88.053 120.961 L 96.371 120.961 C 97.986 120.961 99.297 119.651 99.297 118.036 C 99.297 116.42 97.986 115.11 96.371 115.11 Z " fill="rgb(255,255,255)"/><path d=" M 113.01 149.82 L 104.692 149.82 C 103.075 149.82 101.767 151.13 101.767 152.746 C 101.767 154.361 103.075 155.67 104.692 155.67 L 113.01 155.67 C 114.627 155.67 115.936 154.361 115.936 152.746 C 115.936 151.13 114.627 149.82 113.01 149.82 Z " fill="rgb(255,255,255)"/><path d=" M 113.012 115.11 L 104.692 115.11 C 103.075 115.11 101.767 116.42 101.767 118.036 C 101.767 119.651 103.075 120.961 104.692 120.961 L 113.012 120.961 C 114.627 120.961 115.937 119.651 115.937 118.036 C 115.937 116.42 114.627 115.11 113.012 115.11 Z " fill="rgb(255,255,255)"/><path d=" M 118.407 118.036 C 118.407 119.651 119.716 120.961 121.332 120.961 L 124.515 120.961 L 124.515 115.11 L 121.332 115.11 C 119.716 115.11 118.407 116.42 118.407 118.036 Z " fill="rgb(255,255,255)"/><path d=" M 82.656 152.746 C 82.656 151.13 81.346 149.82 79.73 149.82 L 76.547 149.82 L 76.547 155.67 L 79.73 155.67 C 81.346 155.67 82.656 154.361 82.656 152.746 Z " fill="rgb(255,255,255)"/><path d=" M 124.516 149.82 L 121.33 149.82 C 119.715 149.82 118.406 151.13 118.406 152.746 C 118.406 154.361 119.715 155.67 121.33 155.67 L 124.516 155.67 L 124.516 149.82 Z " fill="rgb(255,255,255)"/><path d=" M 96.371 149.82 L 88.051 149.82 C 86.435 149.82 85.126 151.13 85.126 152.746 C 85.126 154.361 86.435 155.67 88.051 155.67 L 96.371 155.67 C 97.986 155.67 99.297 154.361 99.297 152.746 C 99.297 151.13 97.986 149.82 96.371 149.82 Z " fill="rgb(255,255,255)"/><path d=" M 76.547 120.961 L 79.733 120.961 C 81.348 120.961 82.657 119.651 82.657 118.036 C 82.657 116.42 81.348 115.11 79.733 115.11 L 76.547 115.11 L 76.547 120.961 Z " fill="rgb(255,255,255)"/><path d=" M 87.076 181.993 L 92.926 181.993 L 92.926 176.729 L 87.076 176.729 L 87.076 181.993 Z " fill="rgb(71,177,161)"/><path d=" M 108.137 181.993 L 113.987 181.993 L 113.987 176.729 L 108.137 176.729 L 108.137 181.993 Z " fill="rgb(71,177,161)"/><path d=" M 71.379 177.014 L 76.547 171.849 L 76.547 162.059 C 74.754 162.279 73.029 162.708 71.379 163.304 L 71.379 177.014 Z " fill="rgb(71,177,161)"/><path d=" M 129.928 163.12 C 128.199 162.542 126.393 162.139 124.516 161.97 L 124.516 171.069 L 129.928 176.48 L 129.928 163.12 Z " fill="rgb(71,177,161)"/></g></svg>