<svg xmlns="http://www.w3.org/2000/svg" viewBox="0 0 86.25 86.25"><defs><style>.cls-1{fill:#1e1e1e;}</style></defs><g id="Layer_2" data-name="Layer 2"><g id="Layer_1-2" data-name="Layer 1"><g id="Layer_2-2" data-name="Layer 2"><g id="Layer_1-2-2" data-name="Layer 1-2"><path class="cls-1" d="M6.57,44.53A55.45,55.45,0,0,0,0,44.94V86.25H59A53.82,53.82,0,0,0,6.57,44.53Z"/><path class="cls-1" d="M75.47,43.13A10.79,10.79,0,0,1,86.25,32.34V0A43.13,43.13,0,0,0,44.61,31.89L32.05,0,0,12.65H0L12.7,44.88,44.48,32.35a43.19,43.19,0,0,0,41.77,53.9h0V53.91A10.78,10.78,0,0,1,75.47,43.13Z"/></g></g></g></g></svg>