<svg xmlns="http://www.w3.org/2000/svg" viewBox="0 0 248.18 79.51"><defs><style>.cls-1{fill:#1e1e1e;}</style></defs><g id="Layer_2" data-name="Layer 2"><g id="Layer_1-2" data-name="Layer 1"><g id="Layer_2-2" data-name="Layer 2"><g id="Layer_1-2-2" data-name="Layer 1-2"><path class="cls-1" d="M35.86,5.59a12.78,12.78,0,0,1,5.23,5,14.87,14.87,0,0,1,1.85,7.47,14.82,14.82,0,0,1-1.85,7.45,12.71,12.71,0,0,1-5.25,5A16.55,16.55,0,0,1,28,32.36H17.26V3.8H28a16.53,16.53,0,0,1,7.9,1.79M33.7,24.18a8.14,8.14,0,0,0,2.2-6.1,8.31,8.31,0,0,0-2.2-6.15,8.27,8.27,0,0,0-6.14-2.19h-3.3v16.6h3.3a8.36,8.36,0,0,0,6.14-2.16"/><path class="cls-1" d="M51.21,32.36h-7V9.65h7Z"/><path class="cls-1" d="M66.4,10.31a7.31,7.31,0,0,1,2.79,2.56V9.66h7V32.32A12.84,12.84,0,0,1,74.9,38a9.59,9.59,0,0,1-3.78,4,12.26,12.26,0,0,1-6.33,1.5,13.12,13.12,0,0,1-8.18-2.38A9,9,0,0,1,53,34.72h6.88a3.32,3.32,0,0,0,1.54,2.06,5.72,5.72,0,0,0,3,.75,4.72,4.72,0,0,0,3.43-1.24,5.32,5.32,0,0,0,1.29-4V29.11a7.73,7.73,0,0,1-2.81,2.58,8.39,8.39,0,0,1-4.19,1,9.27,9.27,0,0,1-5.09-1.45,9.94,9.94,0,0,1-3.6-4.11A13.67,13.67,0,0,1,52.18,21a13.63,13.63,0,0,1,1.32-6.15,9.84,9.84,0,0,1,3.6-4.07,9.43,9.43,0,0,1,5.09-1.42,8.83,8.83,0,0,1,4.21,1M67.74,17a4.88,4.88,0,0,0-6.9-.1l-.1.1A5.66,5.66,0,0,0,59.26,21a5.77,5.77,0,0,0,1.44,4.1,4.66,4.66,0,0,0,3.52,1.53,4.71,4.71,0,0,0,3.52-1.51A5.73,5.73,0,0,0,69.19,21a5.69,5.69,0,0,0-1.45-4.11"/><path class="cls-1" d="M84.89,32.36h-7V9.65h7Z"/><path class="cls-1" d="M100.56,26.46v5.9H97a8.66,8.66,0,0,1-5.9-1.85c-1.41-1.23-2.12-3.25-2.12-6v-9H86.24V9.65H89V4.12h7V9.65h4.56v5.78H96v9.12A1.87,1.87,0,0,0,96.45,26a2.32,2.32,0,0,0,1.63.45Z"/><path class="cls-1" d="M100.78,14.82a9.84,9.84,0,0,1,3.6-4.07,9.43,9.43,0,0,1,5.09-1.42,8.83,8.83,0,0,1,4.21,1,7.13,7.13,0,0,1,2.78,2.56V9.66h7v22.7h-7V29.15a7.39,7.39,0,0,1-2.82,2.56,8.84,8.84,0,0,1-4.22,1,9.14,9.14,0,0,1-5-1.45,9.94,9.94,0,0,1-3.6-4.11A13.62,13.62,0,0,1,99.45,21a13.48,13.48,0,0,1,1.33-6.15m14.22,2a4.88,4.88,0,0,0-6.9-.1l-.1.1a5.62,5.62,0,0,0-1.47,4.1A5.77,5.77,0,0,0,108,25.1a4.79,4.79,0,0,0,7,0A5.68,5.68,0,0,0,116.46,21,5.67,5.67,0,0,0,115,16.9"/><rect class="cls-1" x="124.99" width="6.96" height="32.36"/><rect class="cls-1" x="77.93" y="0.02" width="6.96" height="6.95"/><rect class="cls-1" x="44.25" y="0.02" width="6.96" height="6.95"/><path class="cls-1" d="M173.19,10.65a8,8,0,0,1,4.07-1.08v7.37h-1.91a5.82,5.82,0,0,0-3.91,1.12c-.87.75-1.3,2.05-1.3,3.93V32.53h-7V9.82h7V13.6a9.45,9.45,0,0,1,3.05-2.95"/><path class="cls-1" d="M178.06,15a9.77,9.77,0,0,1,3.6-4.07,9.44,9.44,0,0,1,5.09-1.43,8.83,8.83,0,0,1,4.21,1,7.23,7.23,0,0,1,2.79,2.5V9.82h6.95V32.53h-6.95V29.31a7.6,7.6,0,0,1-2.83,2.57,8.83,8.83,0,0,1-4.21,1,9.21,9.21,0,0,1-5.05-1.44,10,10,0,0,1-3.6-4.11,13.85,13.85,0,0,1-1.32-6.17A13.52,13.52,0,0,1,178.06,15m14.24,2.07a4.91,4.91,0,0,0-6.93-.07l-.07.07a5.65,5.65,0,0,0-1.44,4.09,5.78,5.78,0,0,0,1.44,4.13,4.85,4.85,0,0,0,6.84.16l.16-.16a5.64,5.64,0,0,0,1.45-4.11,5.69,5.69,0,0,0-1.45-4.11"/><path class="cls-1" d="M209.61,32.53h-7V9.82h7Z"/><path class="cls-1" d="M231.76,12.16a10.05,10.05,0,0,1,2.38,7.1V32.53h-6.91V20.2a5,5,0,0,0-1.18-3.54,4.59,4.59,0,0,0-6.35,0,5,5,0,0,0-1.18,3.54V32.53h-7V9.82h7v3a7.23,7.23,0,0,1,2.85-2.38,9.08,9.08,0,0,1,4-.88,8.22,8.22,0,0,1,6.37,2.59"/><rect class="cls-1" x="235.99" y="25.58" width="6.96" height="6.95"/><rect class="cls-1" x="202.64" y="0.12" width="6.96" height="6.95"/><path class="cls-1" d="M19.65,63.36H9l-1.71,5H0L10.34,39.84h8.05L28.73,68.4H21.36ZM17.86,58,14.32,47.53,10.82,58Z"/><path class="cls-1" d="M48,48a10.12,10.12,0,0,1,2.38,7.11V68.4H43.5V56.07a5,5,0,0,0-1.18-3.54,4.63,4.63,0,0,0-6.35,0,5,5,0,0,0-1.18,3.54V68.4h-7V45.69h7v3a7.31,7.31,0,0,1,2.85-2.38,9,9,0,0,1,4-.88A8.25,8.25,0,0,1,48,48"/><path class="cls-1" d="M51.72,50.86a10,10,0,0,1,3.61-4.07,9.4,9.4,0,0,1,5.08-1.42,8.69,8.69,0,0,1,4.21,1,7.16,7.16,0,0,1,2.79,2.56V45.7h7V68.4h-7V65.19a7.49,7.49,0,0,1-2.83,2.56,8.69,8.69,0,0,1-4.21,1,9.14,9.14,0,0,1-5-1.45,10,10,0,0,1-3.61-4.11,14.88,14.88,0,0,1,0-12.34M66,52.94a4.88,4.88,0,0,0-6.9-.1l-.1.1A5.6,5.6,0,0,0,57.48,57a5.75,5.75,0,0,0,1.45,4.13,4.66,4.66,0,0,0,3.52,1.53A4.73,4.73,0,0,0,66,61.16a5.68,5.68,0,0,0,1.44-4.11A5.68,5.68,0,0,0,66,52.94"/><rect class="cls-1" x="75.83" y="35.59" width="6.96" height="32.81"/><path class="cls-1" d="M89.36,67.3a10.41,10.41,0,0,1-4.2-4.07,13.23,13.23,0,0,1,0-12.35,10.63,10.63,0,0,1,4.24-4.09,13.47,13.47,0,0,1,12,0,10.47,10.47,0,0,1,4.23,4.09,12.1,12.1,0,0,1,1.55,6.17,11.86,11.86,0,0,1-1.57,6.16,10.64,10.64,0,0,1-4.27,4.09,12.76,12.76,0,0,1-6,1.43,12.52,12.52,0,0,1-6-1.43m9.4-6.06a5.82,5.82,0,0,0,1.4-4.19,6,6,0,0,0-1.36-4.19,4.62,4.62,0,0,0-6.53-.21l-.21.21a6,6,0,0,0-1.34,4.21A6,6,0,0,0,92,61.24a4.25,4.25,0,0,0,3.32,1.46,4.52,4.52,0,0,0,3.4-1.46"/><path class="cls-1" d="M121.41,46.35a7.16,7.16,0,0,1,2.79,2.56V45.7h7V68.36A12.82,12.82,0,0,1,129.92,74a9.5,9.5,0,0,1-3.79,4,12.22,12.22,0,0,1-6.32,1.5,13.12,13.12,0,0,1-8.18-2.38,9,9,0,0,1-3.58-6.45h6.87a3.33,3.33,0,0,0,1.55,2.06,5.72,5.72,0,0,0,3,.75,4.69,4.69,0,0,0,3.44-1.24,5.35,5.35,0,0,0,1.28-4V65.15a7.73,7.73,0,0,1-2.81,2.58,8.39,8.39,0,0,1-4.19,1,9.24,9.24,0,0,1-5.08-1.45,10,10,0,0,1-3.61-4.11A13.71,13.71,0,0,1,107.19,57a13.63,13.63,0,0,1,1.32-6.15,9.87,9.87,0,0,1,3.61-4.07,9.4,9.4,0,0,1,5.08-1.42,8.69,8.69,0,0,1,4.21,1M122.76,53a4.88,4.88,0,0,0-6.9-.1l-.1.1a5.56,5.56,0,0,0-1.49,4,5.75,5.75,0,0,0,1.45,4.13,4.66,4.66,0,0,0,3.52,1.53,4.71,4.71,0,0,0,3.52-1.51A5.68,5.68,0,0,0,124.2,57a5.68,5.68,0,0,0-1.44-4.11"/><path class="cls-1" d="M159.23,48a10.14,10.14,0,0,1,2.36,7.1V68.41h-6.92V56.08a5,5,0,0,0-1.18-3.54,4.63,4.63,0,0,0-6.35,0A5,5,0,0,0,146,56.08V68.41h-7V34h7V48.75a7.56,7.56,0,0,1,2.89-2.4,9.26,9.26,0,0,1,4.11-.89A8.08,8.08,0,0,1,159.23,48"/><path class="cls-1" d="M185,58.72H169.26A4.8,4.8,0,0,0,170.63,62a4.16,4.16,0,0,0,3,1.12,3.66,3.66,0,0,0,3.62-2.2h7.4a10.17,10.17,0,0,1-5.77,6.83,12,12,0,0,1-5,1,12.17,12.17,0,0,1-5.94-1.42,10.22,10.22,0,0,1-4.07-4.07,12.57,12.57,0,0,1-1.47-6.19,12.65,12.65,0,0,1,1.45-6.18,10,10,0,0,1,4.05-4.07,13.2,13.2,0,0,1,11.84,0,10,10,0,0,1,4,4,12.07,12.07,0,0,1,1.44,6,16.65,16.65,0,0,1-.12,2m-7-3.86a3.58,3.58,0,0,0-1.27-3,4.88,4.88,0,0,0-6-.06,4.53,4.53,0,0,0-1.49,2.89Z"/><path class="cls-1" d="M187.2,50.87a9.84,9.84,0,0,1,3.6-4.07,9.43,9.43,0,0,1,5.09-1.42,8.83,8.83,0,0,1,4.21,1A7.33,7.33,0,0,1,202.89,49V45.7h7V68.41h-7V65.19a7.6,7.6,0,0,1-2.83,2.57,8.84,8.84,0,0,1-4.22,1,9.21,9.21,0,0,1-5-1.44,9.94,9.94,0,0,1-3.6-4.11A13.76,13.76,0,0,1,185.88,57a13.59,13.59,0,0,1,1.32-6.14m14.24,2.07a4.91,4.91,0,0,0-6.93-.07l-.07.07A5.64,5.64,0,0,0,193,57a5.74,5.74,0,0,0,1.44,4.13,4.85,4.85,0,0,0,6.84.16c.06,0,.11-.11.16-.16A5.69,5.69,0,0,0,202.89,57a5.7,5.7,0,0,0-1.45-4.11"/><path class="cls-1" d="M221.53,46.54a7.85,7.85,0,0,1,4.07-1.08v7.36h-1.91a5.82,5.82,0,0,0-3.91,1.12c-.87.75-1.3,2.06-1.3,3.93V68.41h-7V45.7h7v3.79a9,9,0,0,1,3.05-3"/><path class="cls-1" d="M238.72,62.51v5.9h-3.54a8.66,8.66,0,0,1-5.9-1.85c-1.41-1.24-2.11-3.25-2.11-6.05V34.44h7v11h4.55v7.37h-4.55v7.78a1.93,1.93,0,0,0,.49,1.47,2.3,2.3,0,0,0,1.62.45Z"/><rect class="cls-1" x="241.22" y="61.47" width="6.96" height="6.95"/><path class="cls-1" d="M158,10.92a9.44,9.44,0,0,0-5.09-1.43,8.72,8.72,0,0,0-4.19,1A7.31,7.31,0,0,0,145.88,13V0H139l-.1,32.51h7V29.35a7.41,7.41,0,0,0,2.81,2.55,8.84,8.84,0,0,0,4.19,1,9.32,9.32,0,0,0,5.1-1.49,10.21,10.21,0,0,0,3.6-4.11,13.85,13.85,0,0,0,1.32-6.17A13.55,13.55,0,0,0,161.57,15,10.06,10.06,0,0,0,158,10.92Zm-3.63,14.34a4.86,4.86,0,0,1-6.87.19l-.19-.19a5.68,5.68,0,0,1-1.44-4.11A5.74,5.74,0,0,1,147.31,17a5,5,0,0,1,7.07,0h0a5.6,5.6,0,0,1,1.45,4.09,5.72,5.72,0,0,1-1.5,4.13Z"/></g></g></g></g></svg>