<?xml version="1.0" encoding="UTF-8" standalone="no"?><!-- Generator: Gravit.io --><svg xmlns="http://www.w3.org/2000/svg" xmlns:xlink="http://www.w3.org/1999/xlink" style="isolation:isolate" viewBox="28.094 79.145 143.871 123.5" width="143.871pt" height="123.5pt"><g><path d=" M 152.341 196.517 L 77.881 196.517 L 75.356 196.517 L 47.72 196.517 C 46.027 196.517 44.654 197.89 44.654 199.581 C 44.654 201.273 46.027 202.646 47.72 202.646 L 75.356 202.646 L 77.881 202.646 L 152.341 202.646 C 154.034 202.646 155.404 201.273 155.404 199.581 C 155.404 197.89 154.034 196.517 152.341 196.517 Z " fill="rgb(222,244,241)"/><path d=" M 127.138 79.146 L 122.947 79.146 L 120.082 79.146 C 105.758 79.146 105.758 93.469 105.758 93.469 C 105.758 93.469 105.758 107.792 91.436 107.792 C 77.114 107.792 77.114 122.116 77.114 122.116 L 77.114 136.439 L 71.383 136.439 L 54.196 136.439 L 54.196 170.815 L 97.164 170.815 L 100.029 170.815 L 115.68 170.815 L 122.947 170.815 L 145.864 170.815 L 145.864 137.076 L 145.864 132.746 C 143.665 135.327 140.398 136.968 136.741 136.968 C 130.119 136.968 124.753 131.603 124.753 124.98 C 124.753 118.36 130.119 112.992 136.741 112.992 C 140.398 112.992 143.665 114.634 145.864 117.214 L 145.864 112.885 L 145.864 79.146 L 127.138 79.146 Z " fill="rgb(255,216,103)"/><path d=" M 65.656 202.646 C 64.488 202.646 63.365 202.001 62.804 200.885 C 62.021 199.312 62.657 197.402 64.229 196.615 L 73.929 191.765 L 73.929 170.815 C 73.929 169.057 75.353 167.632 77.113 167.632 C 78.869 167.632 80.295 169.057 80.295 170.815 L 80.295 193.732 C 80.295 194.939 79.613 196.04 78.535 196.579 L 67.078 202.308 C 66.619 202.537 66.135 202.646 65.656 202.646 Z " fill="rgb(255,216,103)"/><path d=" M 134.402 202.646 C 133.923 202.646 133.437 202.537 132.98 202.308 L 121.523 196.579 C 120.445 196.04 119.763 194.939 119.763 193.732 L 119.763 170.815 C 119.763 169.057 121.189 167.632 122.946 167.632 C 124.705 167.632 126.129 169.057 126.129 170.815 L 126.129 191.765 L 135.829 196.615 C 137.401 197.402 138.037 199.312 137.254 200.885 C 136.693 202.001 135.57 202.646 134.402 202.646 Z " fill="rgb(255,216,103)"/><path d=" M 31.277 173.997 C 30.463 173.997 29.649 173.686 29.026 173.065 C 27.783 171.821 27.783 169.808 29.026 168.563 L 56.613 140.979 C 57.854 139.735 59.869 139.735 61.111 140.979 C 62.355 142.223 62.355 144.237 61.111 145.48 L 33.527 173.065 C 32.906 173.686 32.091 173.997 31.277 173.997 Z " fill="rgb(255,216,103)"/><path d=" M 140.346 156.599 C 139.532 156.599 138.718 156.287 138.096 155.665 C 136.852 154.422 136.852 152.409 138.096 151.165 L 166.532 122.73 C 167.775 121.487 169.789 121.487 171.033 122.73 C 172.276 123.973 172.276 125.988 171.033 127.231 L 142.596 155.665 C 141.974 156.287 141.16 156.599 140.346 156.599 Z " fill="rgb(255,216,103)"/><path d=" M 54.195 90.604 L 54.195 90.604 L 54.195 79.145 L 65.654 79.145 C 71.982 79.145 77.113 84.275 77.113 90.604 C 77.113 96.932 71.982 102.063 65.654 102.063 C 59.324 102.063 54.195 96.932 54.195 90.604 Z " fill="rgb(255,216,103)"/><path d=" M 54.195 113.521 L 65.654 113.521 L 65.654 124.98 L 54.195 124.98 L 54.195 113.521 Z " fill="rgb(255,216,103)"/><path d=" M 131.978 124.979 C 131.978 122.351 134.111 120.217 136.741 120.217 C 139.37 120.217 141.503 122.351 141.503 124.979 C 141.503 127.611 139.37 129.741 136.741 129.741 C 134.111 129.741 131.978 127.611 131.978 124.979 Z " fill="rgb(61,95,48)"/><path d=" M 100.028 124.979 C 100.028 121.817 102.593 119.25 105.757 119.25 C 108.924 119.25 111.487 121.817 111.487 124.979 C 111.487 128.145 108.924 130.708 105.757 130.708 C 102.593 130.708 100.028 128.145 100.028 124.979 Z " fill="rgb(255,255,255)"/><path d=" M 105.758 122.433 C 104.355 122.433 103.213 123.577 103.213 124.98 C 103.213 126.384 104.355 127.527 105.758 127.527 C 107.162 127.527 108.305 126.384 108.305 124.98 C 108.305 123.577 107.162 122.433 105.758 122.433 Z  M 105.758 133.892 C 100.846 133.892 96.846 129.894 96.846 124.98 C 96.846 120.067 100.846 116.068 105.758 116.068 C 110.672 116.068 114.67 120.067 114.67 124.98 C 114.67 129.894 110.672 133.892 105.758 133.892 Z " fill="rgb(61,95,48)"/><line x1="100.028" y1="147.897" x2="134.404" y2="147.897"/><path d=" M 134.404 151.08 L 100.028 151.08 C 98.271 151.08 96.845 149.655 96.845 147.897 C 96.845 146.139 98.271 144.714 100.028 144.714 L 134.404 144.714 C 136.164 144.714 137.588 146.139 137.588 147.897 C 137.588 149.655 136.164 151.08 134.404 151.08 Z " fill="rgb(61,95,48)"/><path d=" M 73.93 177.18 L 80.295 177.18 L 80.295 170.815 L 73.93 170.815 L 73.93 177.18 Z " fill="rgb(253,167,94)"/><path d=" M 54.195 143.397 L 47.829 149.762 L 47.829 153.626 C 47.829 155.226 47.992 156.787 48.299 158.296 L 54.195 152.398 L 54.195 143.397 Z " fill="rgb(253,167,94)"/><path d=" M 122.946 170.815 L 119.763 170.815 L 119.763 177.18 L 122.946 177.18 L 126.129 177.18 L 126.129 170.815 L 122.946 170.815 Z " fill="rgb(253,167,94)"/><path d=" M 145.863 143.397 L 145.863 152.398 L 152.229 146.033 L 152.229 137.076 L 152.229 137.031 L 145.863 143.397 Z " fill="rgb(253,167,94)"/></g></svg>