<?xml version="1.0" encoding="UTF-8" standalone="no"?><!-- Generator: Gravit.io --><svg xmlns="http://www.w3.org/2000/svg" xmlns:xlink="http://www.w3.org/1999/xlink" style="isolation:isolate" viewBox="39.934 78.097 124.106 124.548" width="124.106pt" height="124.548pt"><g><path d=" M 160.977 196.518 L 70.102 196.518 L 67.575 196.518 L 43.875 196.518 C 42.182 196.518 40.811 197.889 40.811 199.581 C 40.811 201.274 42.182 202.645 43.875 202.645 L 67.575 202.645 L 70.102 202.645 L 160.977 202.645 C 162.67 202.645 164.041 201.274 164.041 199.582 C 164.041 197.889 162.67 196.518 160.977 196.518 Z " fill="rgb(222,244,241)"/><path d=" M 73.567 147.527 L 65.705 147.527 C 64.498 147.527 63.521 146.55 63.521 145.343 C 63.521 144.138 64.498 143.16 65.705 143.16 L 71.382 143.16 L 71.382 132.241 C 71.382 131.035 72.36 130.056 73.567 130.056 C 74.773 130.056 75.75 131.035 75.75 132.241 L 75.75 145.343 C 75.75 146.55 74.773 147.527 73.567 147.527 Z " fill="rgb(206,196,93)"/><path d=" M 136.461 160.194 C 136.072 160.194 135.68 160.091 135.323 159.873 L 127.461 155.069 C 126.813 154.672 126.417 153.966 126.417 153.206 L 126.417 122.631 C 126.417 121.425 127.395 120.447 128.6 120.447 C 129.807 120.447 130.785 121.425 130.785 122.631 L 130.785 151.98 L 137.602 156.147 C 138.631 156.775 138.955 158.121 138.326 159.15 C 137.914 159.823 137.196 160.194 136.461 160.194 Z " fill="rgb(206,196,93)"/><path d=" M 65.707 202.563 C 64.906 202.563 64.135 202.12 63.752 201.355 C 63.211 200.276 63.65 198.965 64.728 198.424 L 71.383 195.098 L 71.383 180.723 C 71.383 179.517 72.36 178.54 73.567 178.54 C 74.773 178.54 75.75 179.517 75.75 180.723 L 75.75 196.448 C 75.75 197.274 75.283 198.031 74.543 198.401 L 66.682 202.332 C 66.367 202.488 66.035 202.563 65.707 202.563 Z " fill="rgb(206,196,93)"/><path d=" M 136.461 202.563 C 136.133 202.563 135.799 202.489 135.486 202.332 L 127.624 198.401 C 126.884 198.031 126.417 197.274 126.417 196.448 L 126.417 180.723 C 126.417 179.517 127.395 178.54 128.6 178.54 C 129.807 178.54 130.785 179.517 130.785 180.723 L 130.785 195.098 L 137.44 198.424 C 138.518 198.965 138.955 200.276 138.416 201.355 C 138.032 202.12 137.262 202.563 136.461 202.563 Z " fill="rgb(206,196,93)"/><path d=" M 153.731 183.109 C 129.729 159.107 121.643 151.021 89.292 151.021 L 57.844 151.021 C 56.637 151.021 55.66 152 55.66 153.206 L 55.66 184.653 C 55.66 185.86 56.637 186.838 57.844 186.838 L 152.186 186.838 C 153.069 186.838 153.866 186.304 154.204 185.49 C 154.543 184.673 154.356 183.734 153.731 183.109 Z " fill="rgb(206,196,93)"/><path d=" M 143.888 132.241 L 143.888 100.793 C 143.888 99.586 142.91 98.609 141.703 98.609 L 110.256 98.609 C 77.904 98.609 69.818 106.695 45.817 130.697 C 45.192 131.321 45.005 132.26 45.342 133.077 C 45.68 133.892 46.477 134.424 47.36 134.424 L 141.703 134.424 C 142.91 134.424 143.888 133.447 143.888 132.241 Z " fill="rgb(206,196,93)"/><path d=" M 102.539 168.59 C 102.539 166.418 100.781 164.658 98.607 164.658 C 96.437 164.658 94.678 166.418 94.678 168.59 C 94.678 170.76 96.437 172.522 98.607 172.522 C 100.781 172.522 102.539 170.76 102.539 168.59 Z " fill="rgb(88,104,83)"/><path d=" M 73.567 168.59 C 73.567 166.418 71.805 164.658 69.635 164.658 C 67.463 164.658 65.705 166.418 65.705 168.59 C 65.705 170.76 67.463 172.522 69.635 172.522 C 71.805 172.522 73.567 170.76 73.567 168.59 Z " fill="rgb(88,104,83)"/><path d=" M 84 178.977 C 81.184 178.977 78.469 178.137 76.15 176.547 C 75.154 175.866 74.9 174.506 75.582 173.512 C 76.264 172.516 77.623 172.262 78.617 172.944 C 80.207 174.034 82.068 174.609 84 174.609 C 85.904 174.609 87.742 174.049 89.316 172.991 C 90.314 172.319 91.672 172.582 92.348 173.584 C 93.02 174.584 92.754 175.942 91.753 176.616 C 89.457 178.16 86.775 178.977 84 178.977 Z " fill="rgb(88,104,83)"/><path d=" M 133.842 116.176 C 133.842 114.006 132.081 112.246 129.911 112.246 C 127.739 112.246 125.98 114.006 125.98 116.176 C 125.98 118.348 127.739 120.108 129.911 120.108 C 132.081 120.108 133.842 118.348 133.842 116.176 Z " fill="rgb(88,104,83)"/><path d=" M 104.867 116.176 C 104.867 114.006 103.109 112.246 100.937 112.246 C 98.765 112.246 97.006 114.006 97.006 116.176 C 97.006 118.348 98.765 120.108 100.937 120.108 C 103.109 120.108 104.867 118.348 104.867 116.176 Z " fill="rgb(88,104,83)"/><path d=" M 115.303 126.563 C 112.486 126.563 109.77 125.723 107.451 124.135 C 106.456 123.452 106.203 122.093 106.885 121.098 C 107.567 120.103 108.927 119.85 109.92 120.531 C 111.51 121.62 113.369 122.196 115.303 122.196 C 117.206 122.196 119.045 121.636 120.617 120.579 C 121.619 119.905 122.976 120.17 123.649 121.17 C 124.321 122.172 124.056 123.53 123.055 124.202 C 120.758 125.747 118.076 126.563 115.303 126.563 Z " fill="rgb(88,104,83)"/><path d=" M 42.117 186.838 C 40.912 186.838 39.934 185.86 39.934 184.653 C 39.934 174.779 47.967 166.746 57.842 166.746 C 59.049 166.746 60.025 167.724 60.025 168.93 C 60.025 170.136 59.049 171.114 57.842 171.114 C 50.375 171.114 44.303 177.188 44.303 184.653 C 44.303 185.86 43.324 186.838 42.117 186.838 Z " fill="rgb(206,196,93)"/><path d=" M 128.6 178.977 C 127.395 178.977 126.417 177.998 126.417 176.791 C 126.417 175.586 127.395 174.609 128.6 174.609 C 136.067 174.609 142.141 168.534 142.141 161.069 C 142.141 159.862 143.119 158.885 144.326 158.885 C 145.532 158.885 146.508 159.862 146.508 161.069 C 146.508 170.942 138.475 178.977 128.6 178.977 Z " fill="rgb(206,196,93)"/><path d=" M 141.703 126.563 C 140.498 126.563 139.519 125.585 139.519 124.379 C 139.519 123.172 140.498 122.196 141.703 122.196 C 149.17 122.196 155.244 116.122 155.244 108.656 C 155.244 107.449 156.221 106.471 157.428 106.471 C 158.635 106.471 159.611 107.449 159.611 108.656 C 159.611 118.53 151.578 126.563 141.703 126.563 Z " fill="rgb(206,196,93)"/><path d=" M 78.809 118.701 C 68.934 118.701 60.901 110.668 60.901 100.793 C 60.901 99.586 61.878 98.609 63.085 98.609 C 64.291 98.609 65.268 99.586 65.268 100.793 C 65.268 108.26 71.342 114.333 78.809 114.333 C 80.015 114.333 80.993 115.31 80.993 116.517 C 80.993 117.722 80.015 118.701 78.809 118.701 Z " fill="rgb(206,196,93)"/><path d=" M 141.703 126.563 C 140.498 126.563 139.519 125.585 139.519 124.379 C 139.519 123.172 140.498 122.196 141.703 122.196 C 149.17 122.196 155.244 116.122 155.244 108.656 C 155.244 107.449 156.221 106.471 157.428 106.471 C 158.635 106.471 159.611 107.449 159.611 108.656 C 159.611 118.53 151.578 126.563 141.703 126.563 Z " fill="rgb(206,196,93)"/><path d=" M 143.888 122.002 L 143.888 126.416 C 145.411 126.229 146.873 125.851 148.256 125.305 L 148.256 120.496 C 146.922 121.236 145.448 121.748 143.888 122.002 Z " fill="rgb(155,173,85)"/><path d=" M 126.417 191.205 L 130.785 191.205 L 130.785 186.838 L 126.417 186.838 L 126.417 191.205 Z " fill="rgb(155,173,85)"/><path d=" M 65.178 112.379 C 66.34 111.43 67.489 110.538 68.635 109.699 C 67.672 108.601 66.877 107.354 66.307 105.984 C 65.13 106.84 63.953 107.747 62.769 108.709 C 63.424 110.031 64.23 111.266 65.178 112.379 Z " fill="rgb(155,173,85)"/><path d=" M 55.659 171.307 L 55.659 166.893 C 54.137 167.08 52.672 167.459 51.291 168.004 L 51.291 172.813 C 52.625 172.073 54.097 171.561 55.659 171.307 Z " fill="rgb(155,173,85)"/><path d=" M 75.75 186.838 L 71.383 186.838 L 71.383 191.205 L 75.75 191.205 L 75.75 186.838 Z " fill="rgb(155,173,85)"/><path d=" M 139.417 169.177 C 140.463 170.129 141.531 171.129 142.625 172.17 C 143.551 171.006 144.325 169.719 144.939 168.344 C 143.77 167.24 142.625 166.184 141.5 165.172 C 141.035 166.632 140.32 167.978 139.417 169.177 Z " fill="rgb(155,173,85)"/><path d=" M 126.417 138.792 L 130.785 138.792 L 130.785 134.424 L 126.417 134.424 L 126.417 138.792 Z " fill="rgb(155,173,85)"/><path d=" M 75.75 134.424 L 71.383 134.424 L 71.383 138.792 L 75.75 138.792 L 75.75 134.424 Z " fill="rgb(155,173,85)"/><line x1="98.348" y1="92.074" x2="129.795" y2="92.074"/><path d=" M 129.795 94.258 L 98.348 94.258 C 97.141 94.258 96.163 93.279 96.163 92.074 C 96.163 90.867 97.141 89.891 98.348 89.891 L 129.795 89.891 C 131.001 89.891 131.979 90.867 131.979 92.074 C 131.979 93.279 131.001 94.258 129.795 94.258 Z " fill="rgb(88,104,83)"/><path d=" M 118.002 80.281 C 117.221 80.281 116.498 80.51 115.887 80.902 C 115.344 81.186 114.727 81.353 114.07 81.353 C 113.404 81.353 112.781 81.181 112.232 80.888 C 111.627 80.506 110.91 80.281 110.139 80.281 C 107.968 80.281 106.209 82.041 106.209 84.211 L 106.209 92.074 L 121.932 92.074 L 121.932 84.211 C 121.932 82.041 120.172 80.281 118.002 80.281 Z " fill="rgb(255,255,255)"/><path d=" M 108.392 89.891 L 119.748 89.891 L 119.748 84.211 C 119.748 83.248 118.965 82.465 118.002 82.465 C 117.666 82.465 117.352 82.557 117.066 82.741 C 117.013 82.776 116.956 82.808 116.901 82.836 C 115.136 83.761 112.967 83.754 111.207 82.817 C 111.159 82.791 111.112 82.764 111.065 82.735 C 110.782 82.555 110.471 82.465 110.139 82.465 C 109.176 82.465 108.392 83.248 108.392 84.211 L 108.392 89.891 Z  M 121.932 94.258 L 106.209 94.258 C 105.002 94.258 104.024 93.28 104.024 92.075 L 104.024 84.211 C 104.024 80.84 106.767 78.097 110.139 78.097 C 111.258 78.097 112.354 78.405 113.311 78.989 C 113.795 79.227 114.33 79.229 114.813 78.997 C 115.776 78.408 116.875 78.097 118.002 78.097 C 121.373 78.097 124.116 80.84 124.116 84.211 L 124.116 92.075 C 124.116 93.28 123.139 94.258 121.932 94.258 Z " fill="rgb(88,104,83)"/></g></svg>