<?xml version="1.0" encoding="UTF-8" standalone="no"?><!-- Generator: Gravit.io --><svg xmlns="http://www.w3.org/2000/svg" xmlns:xlink="http://www.w3.org/1999/xlink" style="isolation:isolate" viewBox="39.186 89.408 117.567 110.174" width="117.567pt" height="110.174pt"><g><path d=" M 151.398 193.153 L 80.936 193.153 L 78.287 193.153 L 44.543 193.153 C 42.766 193.153 41.328 194.593 41.328 196.367 C 41.328 198.141 42.766 199.582 44.543 199.582 L 78.287 199.582 L 80.936 199.582 L 151.398 199.582 C 153.174 199.582 154.612 198.141 154.612 196.367 C 154.612 194.593 153.174 193.153 151.398 193.153 Z " fill="rgb(222,244,241)"/><path d=" M 139.304 195.785 L 132.281 181.74 C 131.836 180.852 130.929 180.291 129.935 180.291 C 128.942 180.291 128.033 180.852 127.589 181.74 L 120.567 195.785 C 119.919 197.081 120.444 198.655 121.74 199.304 C 123.034 199.95 124.609 199.426 125.258 198.131 L 129.935 188.777 L 134.613 198.131 C 135.073 199.05 135.998 199.581 136.96 199.581 C 137.355 199.581 137.754 199.491 138.131 199.304 C 139.427 198.655 139.951 197.081 139.304 195.785 Z  M 92.749 181.74 C 92.305 180.852 91.397 180.291 90.404 180.291 C 89.41 180.291 88.502 180.852 88.058 181.74 L 81.035 195.785 C 80.388 197.081 80.913 198.655 82.208 199.304 C 82.585 199.492 82.985 199.581 83.378 199.581 C 84.34 199.581 85.267 199.05 85.727 198.131 L 90.404 188.777 L 95.079 198.131 C 95.728 199.426 97.301 199.948 98.598 199.304 C 99.893 198.656 100.418 197.081 99.771 195.785 L 92.749 181.74 Z  M 63.914 181.74 C 63.47 180.852 62.562 180.291 61.569 180.291 C 60.575 180.291 59.667 180.852 59.223 181.74 L 52.2 195.785 C 51.552 197.081 52.076 198.655 53.372 199.304 C 54.667 199.95 56.242 199.426 56.891 198.131 L 61.569 188.777 L 66.245 198.131 C 66.705 199.05 67.631 199.581 68.593 199.581 C 68.988 199.581 69.387 199.491 69.764 199.304 C 71.06 198.655 71.584 197.081 70.937 195.785 L 63.914 181.74 Z " fill="rgb(252,133,190)"/><path d=" M 132.28 181.74 C 131.836 180.852 130.928 180.291 129.934 180.291 C 128.941 180.291 128.033 180.852 127.589 181.74 L 122.846 191.224 C 124.515 191.841 126.293 192.229 128.139 192.366 L 129.934 188.776 L 131.701 192.309 C 133.523 192.112 135.27 191.661 136.909 190.996 L 132.28 181.74 Z " fill="rgb(229,101,164)"/><path d=" M 68.376 190.664 L 63.914 181.741 C 63.469 180.852 62.562 180.291 61.568 180.291 C 60.574 180.291 59.667 180.852 59.223 181.741 L 54.779 190.626 C 56.299 191.488 57.996 192.07 59.804 192.305 L 61.568 188.777 L 63.334 192.31 C 65.147 192.086 66.85 191.518 68.376 190.664 Z " fill="rgb(229,101,164)"/><path d=" M 92.749 181.74 C 92.305 180.852 91.396 180.291 90.403 180.291 C 89.41 180.291 88.502 180.852 88.058 181.74 L 83.39 191.075 C 85.015 191.771 86.768 192.223 88.606 192.369 L 90.403 188.776 L 92.151 192.274 C 93.956 192.034 95.671 191.508 97.247 190.737 L 92.749 181.74 Z " fill="rgb(229,101,164)"/><path d=" M 140.917 89.408 C 138.601 89.408 136.722 91.287 136.722 93.604 L 136.722 172.904 C 136.722 176.836 133.521 180.036 129.589 180.036 C 125.656 180.036 122.456 176.836 122.456 172.904 L 122.456 167.239 L 122.456 110.596 L 122.456 103.516 C 122.456 95.738 116.127 89.408 108.349 89.408 C 100.569 89.408 94.24 95.738 94.24 103.516 L 94.24 104.932 L 94.24 167.239 L 94.24 175.735 C 94.24 178.106 92.312 180.036 89.939 180.036 C 87.568 180.036 85.639 178.106 85.639 175.735 L 85.639 172.904 L 85.639 104.932 L 85.639 100.684 C 85.639 100.539 85.631 100.396 85.617 100.254 C 85.389 94.237 80.436 89.408 74.362 89.408 C 74.218 89.408 74.074 89.415 73.933 89.43 C 68.059 89.653 63.331 94.38 63.108 100.254 C 63.094 100.396 63.087 100.539 63.087 100.684 L 63.087 104.932 L 63.087 178.567 C 63.087 179.377 62.428 180.036 61.619 180.036 C 60.809 180.036 60.149 179.377 60.149 178.567 L 60.149 100.002 C 60.149 99.516 60.063 99.051 59.911 98.617 C 59.11 94.361 55.373 91.13 50.888 91.13 C 50.742 91.13 50.6 91.137 50.458 91.152 C 45.735 91.372 41.942 95.165 41.723 99.888 C 41.708 100.029 41.7 100.172 41.7 100.318 L 41.7 104.59 C 41.7 106.907 43.579 108.785 45.896 108.785 C 48.213 108.785 50.092 106.907 50.092 104.59 L 50.092 100.318 C 50.092 99.879 50.449 99.522 50.888 99.522 C 51.326 99.522 51.684 99.879 51.684 100.318 C 51.684 100.583 51.711 100.843 51.759 101.095 L 51.759 178.567 C 51.759 178.712 51.766 178.855 51.78 178.997 C 52.008 184.234 56.326 188.428 61.619 188.428 C 66.91 188.428 71.229 184.234 71.456 178.997 C 71.471 178.855 71.479 178.712 71.479 178.567 L 71.479 104.932 L 71.479 100.684 C 71.479 99.094 72.771 97.8 74.362 97.8 C 75.953 97.8 77.247 99.094 77.247 100.684 L 77.247 104.932 L 77.247 172.904 L 77.247 175.735 C 77.247 182.733 82.941 188.428 89.939 188.428 C 96.938 188.428 102.632 182.733 102.632 175.735 L 102.632 167.239 L 102.632 104.932 L 102.632 103.516 C 102.632 100.365 105.196 97.8 108.349 97.8 C 111.5 97.8 114.065 100.365 114.065 103.516 L 114.065 110.596 L 114.065 167.239 L 114.065 172.904 C 114.065 181.463 121.029 188.428 129.589 188.428 C 138.148 188.428 145.113 181.463 145.113 172.904 L 145.113 93.604 C 145.113 91.287 143.234 89.408 140.917 89.408 Z " fill="rgb(252,133,190)"/><path d=" M 154.547 101.63 C 154.547 104.237 152.434 106.35 149.826 106.35 C 147.22 106.35 145.107 104.237 145.107 101.63 C 145.107 99.023 147.22 96.91 149.826 96.91 C 152.434 96.91 154.547 99.023 154.547 101.63 Z " fill="rgb(96,47,105)"/><path d=" M 136.786 101.63 C 136.786 104.237 134.673 106.35 132.066 106.35 C 129.459 106.35 127.346 104.237 127.346 101.63 C 127.346 99.023 129.459 96.91 132.066 96.91 C 134.673 96.91 136.786 99.023 136.786 101.63 Z " fill="rgb(96,47,105)"/><path d=" M 141.164 118.801 C 137.459 118.801 133.753 118.071 130.225 116.609 C 128.887 116.054 128.252 114.52 128.806 113.182 C 129.36 111.843 130.893 111.21 132.232 111.764 C 137.99 114.151 144.336 114.151 150.096 111.764 C 151.436 111.207 152.968 111.844 153.522 113.182 C 154.076 114.52 153.441 116.054 152.103 116.609 C 148.576 118.071 144.87 118.801 141.164 118.801 Z " fill="rgb(96,47,105)"/><path d=" M 153.082 144.487 L 42.857 144.487 C 40.83 144.487 39.186 142.843 39.186 140.816 C 39.186 138.789 40.83 137.145 42.857 137.145 L 153.082 137.145 C 155.109 137.145 156.753 138.789 156.753 140.816 C 156.753 142.843 155.109 144.487 153.082 144.487 Z " fill="rgb(71,177,161)"/><path d=" M 71.479 137.145 L 63.087 137.145 L 63.087 144.487 L 71.479 144.487 L 71.479 137.145 Z " fill="rgb(96,47,105)"/><path d=" M 51.759 144.487 L 60.151 144.487 L 60.151 137.145 L 51.759 137.145 L 51.759 144.487 Z " fill="rgb(96,47,105)"/><path d=" M 85.639 137.145 L 77.248 137.145 L 77.248 144.487 L 85.639 144.487 L 85.639 137.145 Z " fill="rgb(96,47,105)"/><path d=" M 102.632 137.145 L 94.24 137.145 L 94.24 144.487 L 102.632 144.487 L 102.632 137.145 Z " fill="rgb(96,47,105)"/><path d=" M 145.113 137.145 L 136.721 137.145 L 136.721 144.487 L 145.113 144.487 L 145.113 137.145 Z " fill="rgb(96,47,105)"/><path d=" M 122.456 137.145 L 114.064 137.145 L 114.064 144.487 L 122.456 144.487 L 122.456 137.145 Z " fill="rgb(96,47,105)"/></g></svg>