<?xml version="1.0" encoding="UTF-8" standalone="no"?><!-- Generator: Gravit.io --><svg xmlns="http://www.w3.org/2000/svg" xmlns:xlink="http://www.w3.org/1999/xlink" style="isolation:isolate" viewBox="31.362 82.114 137.717 120.603" width="137.717pt" height="120.603pt"><g><path d=" M 144.561 196.517 L 70.102 196.517 L 67.576 196.517 L 55.881 196.517 C 54.188 196.517 52.815 197.89 52.815 199.581 C 52.815 201.273 54.188 202.646 55.881 202.646 L 67.576 202.646 L 70.102 202.646 L 144.561 202.646 C 146.253 202.646 147.624 201.273 147.624 199.581 C 147.624 197.89 146.253 196.517 144.561 196.517 Z " fill="rgb(222,244,241)"/><path d=" M 32.26 177.613 C 32.858 178.212 33.641 178.511 34.426 178.511 C 35.209 178.511 35.993 178.212 36.593 177.613 L 56.293 157.913 L 56.293 149.249 L 32.26 173.28 C 31.063 174.477 31.063 176.417 32.26 177.613 Z  M 168.182 173.28 L 144.199 149.301 L 144.199 157.965 L 163.85 177.613 C 164.447 178.212 165.231 178.511 166.015 178.511 C 166.799 178.511 167.583 178.212 168.182 177.613 C 169.378 176.417 169.378 174.477 168.182 173.28 Z  M 131.385 196.911 L 122.051 192.243 L 122.051 172.078 C 122.051 170.384 120.678 169.013 118.987 169.013 C 117.294 169.013 115.922 170.384 115.922 172.078 L 115.922 194.137 C 115.922 195.296 116.578 196.357 117.614 196.876 L 128.644 202.391 C 129.084 202.612 129.551 202.716 130.013 202.716 C 131.137 202.716 132.217 202.095 132.756 201.022 C 133.512 199.509 132.901 197.668 131.385 196.911 Z  M 78.544 169.013 C 76.854 169.013 75.481 170.384 75.481 172.078 L 75.481 192.243 L 66.144 196.911 C 64.631 197.668 64.019 199.509 64.774 201.022 C 65.312 202.095 66.392 202.716 67.518 202.716 C 67.977 202.716 68.447 202.611 68.883 202.391 L 79.912 196.876 C 80.951 196.357 81.608 195.296 81.608 194.137 L 81.608 172.078 C 81.608 170.384 80.237 169.013 78.544 169.013 Z " fill="rgb(163,175,206)"/><path d=" M 145.051 131.609 C 138.608 131.609 135.255 129.5 132.301 127.638 C 129.716 126.013 127.487 124.612 122.811 124.612 C 118.135 124.612 115.906 126.013 113.323 127.638 C 110.366 129.5 107.018 131.609 100.572 131.609 C 94.133 131.609 90.781 129.5 87.825 127.639 C 85.244 126.013 83.016 124.612 78.34 124.612 C 73.665 124.612 71.437 126.013 68.854 127.638 C 65.897 129.5 62.547 131.609 56.104 131.609 C 50.127 131.609 46.112 129.081 42.884 127.048 C 40.371 125.467 38.387 124.217 35.947 124.217 L 35.938 124.217 C 34.246 124.217 32.874 122.848 32.873 121.157 C 32.872 119.464 34.242 118.092 35.935 118.09 L 35.947 118.09 C 40.154 118.09 43.201 120.009 46.149 121.863 C 49.104 123.724 51.897 125.482 56.104 125.482 C 60.778 125.482 63.008 124.078 65.588 122.453 C 68.546 120.593 71.897 118.483 78.34 118.483 C 84.783 118.483 88.133 120.593 91.09 122.453 C 93.67 124.078 95.901 125.482 100.572 125.482 C 105.248 125.482 107.479 124.078 110.061 122.453 C 113.017 120.593 116.367 118.483 122.811 118.483 C 129.253 118.483 132.607 120.593 135.562 122.453 C 138.145 124.078 140.375 125.482 145.051 125.482 C 149.259 125.482 152.053 123.724 155.006 121.863 C 157.955 120.009 161.002 118.09 165.208 118.09 L 165.224 118.09 C 166.917 118.092 168.287 119.464 168.285 121.158 C 168.281 122.849 166.911 124.217 165.222 124.217 L 165.208 124.217 C 162.77 124.217 160.785 125.467 158.272 127.048 C 155.044 129.081 151.028 131.609 145.051 131.609 Z " fill="rgb(163,175,206)"/><path d=" M 145.051 123.378 C 138.464 123.378 135.075 120.817 132.084 118.56 C 129.436 116.559 127.344 114.98 122.811 114.98 C 118.279 114.98 116.188 116.559 113.539 118.56 C 110.549 120.817 107.16 123.378 100.572 123.378 C 93.989 123.378 90.601 120.817 87.612 118.56 C 84.965 116.559 82.871 114.98 78.34 114.98 C 73.809 114.98 71.717 116.559 69.069 118.56 C 66.078 120.817 62.69 123.378 56.104 123.378 C 49.984 123.378 45.928 120.314 42.67 117.852 C 40.197 115.983 38.242 114.507 35.946 114.507 L 35.938 114.507 C 34.246 114.507 32.874 113.138 32.873 111.446 C 32.872 109.754 34.242 108.381 35.935 108.38 L 35.947 108.38 C 40.297 108.38 43.381 110.709 46.363 112.963 C 49.281 115.167 52.04 117.251 56.104 117.251 C 60.637 117.251 62.727 115.671 65.375 113.67 C 68.363 111.411 71.754 108.852 78.34 108.852 C 84.926 108.852 88.315 111.413 91.305 113.672 C 93.951 115.671 96.044 117.251 100.572 117.251 C 105.106 117.251 107.197 115.671 109.846 113.67 C 112.835 111.411 116.225 108.852 122.811 108.852 C 129.397 108.852 132.786 111.411 135.778 113.67 C 138.426 115.671 140.519 117.251 145.051 117.251 C 149.117 117.251 151.875 115.167 154.793 112.963 C 157.776 110.709 160.86 108.38 165.21 108.38 L 165.224 108.38 C 166.917 108.381 168.287 109.755 168.285 111.446 C 168.281 113.139 166.911 114.507 165.222 114.507 L 165.212 114.507 C 162.914 114.507 160.961 115.983 158.487 117.852 C 155.227 120.314 151.171 123.378 145.051 123.378 Z " fill="rgb(163,175,206)"/><path d=" M 145.051 114.507 C 138.21 114.507 134.627 110.878 131.75 107.962 C 129.147 105.323 127.09 103.24 122.811 103.24 C 118.531 103.24 116.475 105.323 113.872 107.961 C 110.995 110.877 107.414 114.507 100.572 114.507 C 93.735 114.507 90.155 110.878 87.278 107.962 C 84.674 105.323 82.619 103.24 78.34 103.24 C 74.061 103.24 72.006 105.323 69.403 107.961 C 66.526 110.877 62.944 114.507 56.104 114.507 C 49.731 114.507 45.631 110.353 42.336 107.013 C 40.003 104.65 37.988 102.609 35.946 102.609 C 35.944 102.607 35.941 102.607 35.938 102.609 C 34.247 102.609 32.876 101.238 32.873 99.547 C 32.872 97.855 34.24 96.482 35.935 96.481 L 35.947 96.481 C 40.551 96.481 43.675 99.647 46.697 102.708 C 49.574 105.626 52.293 108.38 56.104 108.38 C 60.381 108.38 62.438 106.295 65.042 103.657 C 67.918 100.743 71.5 97.114 78.34 97.114 C 85.181 97.114 88.762 100.743 91.638 103.659 C 94.242 106.295 96.297 108.38 100.572 108.38 C 104.852 108.38 106.908 106.295 109.512 103.657 C 112.389 100.743 115.971 97.114 122.811 97.114 C 129.651 97.114 133.234 100.741 136.112 103.657 C 138.715 106.295 140.772 108.38 145.051 108.38 C 148.864 108.38 151.582 105.626 154.459 102.708 C 157.483 99.647 160.608 96.481 165.21 96.481 L 165.226 96.481 C 166.917 96.482 168.287 97.855 168.285 99.549 C 168.281 101.238 166.911 102.609 165.222 102.609 C 165.218 102.607 165.217 102.607 165.212 102.609 C 163.169 102.609 161.153 104.65 158.821 107.013 C 155.526 110.353 151.425 114.507 145.051 114.507 Z " fill="rgb(163,175,206)"/><path d=" M 145.051 104.797 C 137.907 104.797 134.318 99.735 131.432 95.668 C 128.553 91.609 126.596 89.122 122.811 89.122 C 119.026 89.122 117.071 91.609 114.192 95.668 C 111.307 99.735 107.716 104.797 100.572 104.797 C 93.433 104.797 89.842 99.735 86.959 95.669 C 84.082 91.609 82.124 89.122 78.34 89.122 C 74.557 89.122 72.6 91.609 69.721 95.668 C 66.838 99.735 63.247 104.797 56.104 104.797 C 49.43 104.797 45.319 99.003 42.018 94.347 C 39.988 91.485 37.688 88.242 35.947 88.242 L 35.938 88.242 C 34.249 88.242 32.878 86.876 32.873 85.186 C 32.87 83.494 34.238 82.118 35.931 82.114 C 40.881 82.068 43.983 86.526 47.016 90.802 C 49.76 94.671 52.596 98.669 56.104 98.669 C 59.888 98.669 61.844 96.182 64.723 92.124 C 67.608 88.056 71.197 82.994 78.34 82.994 C 85.483 82.994 89.072 88.056 91.955 92.124 C 94.835 96.182 96.791 98.669 100.572 98.669 C 104.359 98.669 106.313 96.182 109.194 92.124 C 112.077 88.056 115.667 82.994 122.811 82.994 C 129.954 82.994 133.545 88.056 136.43 92.124 C 139.309 96.182 141.266 98.669 145.051 98.669 C 148.561 98.669 151.397 94.671 154.141 90.802 C 157.174 86.526 160.343 82.112 165.229 82.114 C 166.922 82.12 168.29 83.495 168.285 85.187 C 168.28 86.876 166.909 88.242 165.222 88.242 L 165.208 88.242 C 163.469 88.242 161.168 91.485 159.139 94.347 C 155.836 99.003 151.726 104.797 145.051 104.797 Z " fill="rgb(163,175,206)"/><path d=" M 144.174 172.767 L 56.268 172.767 C 54.576 172.767 53.203 171.395 53.203 169.703 C 53.203 168.012 54.576 166.64 56.268 166.64 L 56.268 166.638 L 144.174 166.638 C 145.866 166.638 147.238 168.01 147.238 169.702 C 147.238 171.395 145.866 172.767 144.174 172.767 Z " fill="rgb(163,175,206)"/><path d=" M 145.051 139.841 C 138.763 139.841 135.465 138.179 132.554 136.714 C 129.917 135.388 127.643 134.243 122.811 134.243 C 117.979 134.243 115.703 135.388 113.071 136.714 C 110.16 138.179 106.862 139.841 100.572 139.841 C 94.288 139.841 90.99 138.179 88.081 136.714 C 85.446 135.388 83.172 134.243 78.34 134.243 C 73.509 134.243 71.233 135.388 68.599 136.714 C 65.688 138.179 62.39 139.841 56.104 139.841 C 50.283 139.841 46.322 137.846 43.137 136.241 C 40.57 134.948 38.54 133.927 35.946 133.927 L 35.938 133.927 C 34.246 133.927 32.874 132.558 32.873 130.865 C 32.872 129.173 34.242 127.802 35.936 127.8 L 35.946 127.8 C 39.997 127.8 42.995 129.31 45.894 130.769 C 48.9 132.283 51.74 133.714 56.104 133.714 C 60.936 133.714 63.211 132.568 65.845 131.241 C 68.754 129.777 72.054 128.114 78.34 128.114 C 84.627 128.114 87.926 129.777 90.836 131.241 C 93.469 132.568 95.743 133.714 100.572 133.714 C 105.405 133.714 107.68 132.568 110.315 131.241 C 113.223 129.777 116.524 128.114 122.811 128.114 C 129.098 128.114 132.397 129.777 135.309 131.241 C 137.944 132.568 140.219 133.714 145.051 133.714 C 149.416 133.714 152.256 132.283 155.262 130.769 C 158.16 129.31 161.158 127.8 165.21 127.8 L 165.223 127.8 C 166.916 127.802 168.285 129.174 168.285 130.866 C 168.283 132.558 166.911 133.927 165.222 133.927 L 165.21 133.927 C 162.613 133.927 160.586 134.948 158.016 136.241 C 154.834 137.846 150.87 139.841 145.051 139.841 Z " fill="rgb(163,175,206)"/><path d=" M 100.572 148.072 C 94.457 148.072 91.226 146.852 88.376 145.774 C 85.674 144.755 83.34 143.875 78.34 143.875 C 73.34 143.875 71.004 144.755 68.298 145.774 C 65.475 146.838 62.274 148.044 56.279 148.068 L 56.267 148.068 C 54.581 148.068 53.211 146.705 53.203 145.017 C 53.197 143.325 54.563 141.947 56.255 141.94 C 61.146 141.921 63.459 141.05 66.135 140.04 C 68.99 138.965 72.222 137.747 78.34 137.747 C 84.459 137.747 87.687 138.967 90.541 140.042 C 93.242 141.063 95.574 141.945 100.572 141.945 C 105.574 141.945 107.907 141.063 110.609 140.042 C 113.461 138.967 116.691 137.747 122.81 137.747 C 128.926 137.747 132.166 138.963 135.023 140.036 C 137.586 140.997 139.798 141.827 144.24 141.923 C 145.932 141.96 147.274 143.361 147.236 145.052 C 147.2 146.721 145.836 148.051 144.174 148.051 C 144.152 148.051 144.129 148.051 144.109 148.05 C 138.623 147.93 135.566 146.784 132.869 145.771 C 130.157 144.753 127.814 143.875 122.81 143.875 C 117.81 143.875 115.476 144.755 112.774 145.774 C 109.922 146.852 106.691 148.072 100.572 148.072 Z " fill="rgb(163,175,206)"/><path d=" M 100.572 164.534 C 94.824 164.534 91.902 164.167 89.074 163.81 C 86.314 163.464 83.707 163.135 78.34 163.135 C 72.972 163.135 70.363 163.463 67.599 163.81 C 64.801 164.163 61.906 164.526 56.271 164.533 L 56.267 164.533 C 54.577 164.533 53.207 163.165 53.203 161.473 C 53.201 159.782 54.572 158.409 56.263 158.407 C 61.517 158.398 64.1 158.075 66.836 157.73 C 69.664 157.376 72.589 157.008 78.34 157.008 C 84.092 157.008 87.013 157.376 89.841 157.731 C 92.599 158.079 95.207 158.408 100.572 158.408 C 105.939 158.408 108.547 158.079 111.308 157.731 C 114.135 157.376 117.057 157.008 122.81 157.008 C 128.56 157.008 131.492 157.375 134.328 157.729 C 136.943 158.055 139.413 158.366 144.197 158.4 C 145.887 158.413 147.249 159.795 147.238 161.485 C 147.226 163.171 145.855 164.528 144.174 164.528 L 144.15 164.528 C 139.009 164.49 136.242 164.143 133.566 163.809 C 130.797 163.463 128.179 163.135 122.81 163.135 C 117.443 163.135 114.837 163.464 112.074 163.81 C 109.248 164.167 106.326 164.534 100.572 164.534 Z " fill="rgb(163,175,206)"/><path d=" M 100.572 156.304 C 94.636 156.304 91.623 155.545 88.709 154.811 C 86.041 154.14 83.519 153.504 78.34 153.504 C 73.16 153.504 70.636 154.138 67.965 154.81 C 65.08 155.536 62.093 156.286 56.275 156.301 L 56.267 156.301 C 54.579 156.301 53.209 154.935 53.203 153.244 C 53.198 151.554 54.567 150.178 56.259 150.174 C 61.329 150.159 63.826 149.533 66.47 148.867 C 69.385 148.136 72.402 147.377 78.34 147.377 C 84.279 147.377 87.291 148.136 90.205 148.87 C 92.875 149.541 95.396 150.177 100.572 150.177 C 105.754 150.177 108.273 149.541 110.943 148.87 C 113.857 148.136 116.871 147.377 122.81 147.377 C 128.748 147.377 131.769 148.133 134.691 148.865 C 137.22 149.497 139.609 150.097 144.218 150.163 C 145.91 150.186 147.261 151.577 147.238 153.27 C 147.214 154.962 145.779 156.327 144.129 156.288 C 138.811 156.212 135.959 155.498 133.203 154.808 C 130.523 154.138 127.992 153.504 122.81 153.504 C 117.629 153.504 115.109 154.14 112.44 154.811 C 109.525 155.545 106.512 156.304 100.572 156.304 Z " fill="rgb(163,175,206)"/><path d=" M 99.89 148.072 C 93.77 148.072 90.538 146.85 87.688 145.771 L 87.114 145.555 C 85.526 144.964 84.723 143.197 85.317 141.612 C 85.911 140.026 87.68 139.225 89.26 139.816 L 89.854 140.042 C 92.557 141.061 94.89 141.945 99.89 141.945 C 104.888 141.945 107.223 141.063 109.924 140.044 C 110.35 139.883 110.78 139.722 111.216 139.564 C 112.805 138.994 114.563 139.814 115.138 141.406 C 115.713 142.997 114.888 144.753 113.295 145.328 C 112.887 145.474 112.488 145.627 112.086 145.777 C 109.237 146.852 106.006 148.072 99.89 148.072 Z " fill="rgb(67,77,97)"/><path d=" M 69.057 111.361 L 69.057 120.257 C 69.057 125.169 73.041 129.151 77.952 129.151 C 82.864 129.151 86.848 125.169 86.848 120.257 L 86.848 111.361 L 69.057 111.361 Z " fill="rgb(67,77,97)"/><path d=" M 72.121 114.425 L 72.121 120.257 C 72.121 123.472 74.738 126.087 77.951 126.087 C 81.168 126.087 83.783 123.472 83.783 120.257 L 83.783 114.425 L 72.121 114.425 Z  M 77.951 132.215 C 71.359 132.215 65.994 126.85 65.994 120.257 L 65.994 111.362 C 65.994 109.67 67.367 108.299 69.057 108.299 L 86.848 108.299 C 88.539 108.299 89.91 109.67 89.91 111.362 L 89.91 120.257 C 89.91 126.85 84.547 132.215 77.951 132.215 Z " fill="rgb(67,77,97)"/><path d=" M 113.545 111.361 L 113.545 120.257 C 113.545 125.169 117.525 129.151 122.439 129.151 C 127.352 129.151 131.33 125.169 131.33 120.257 L 131.33 111.361 L 113.545 111.361 Z " fill="rgb(67,77,97)"/><path d=" M 116.607 114.425 L 116.607 120.257 C 116.607 123.472 119.223 126.087 122.438 126.087 C 125.652 126.087 128.268 123.472 128.268 120.257 L 128.268 114.425 L 116.607 114.425 Z  M 122.438 132.215 C 115.843 132.215 110.48 126.85 110.48 120.257 L 110.48 111.362 C 110.48 109.67 111.851 108.299 113.544 108.299 L 131.33 108.299 C 133.023 108.299 134.394 109.67 134.394 111.362 L 134.394 120.257 C 134.394 126.85 129.031 132.215 122.438 132.215 Z " fill="rgb(67,77,97)"/><line x1="131.33" y1="111.361" x2="145.692" y2="111.361"/><path d=" M 145.692 114.425 L 131.33 114.425 C 129.638 114.425 128.268 113.055 128.268 111.362 C 128.268 109.67 129.638 108.299 131.33 108.299 L 145.692 108.299 C 147.384 108.299 148.756 109.67 148.756 111.362 C 148.756 113.055 147.384 114.425 145.692 114.425 Z " fill="rgb(67,77,97)"/><line x1="54.749" y1="111.361" x2="83.678" y2="111.361"/><path d=" M 83.678 114.425 L 54.749 114.425 C 53.057 114.425 51.685 113.055 51.685 111.362 C 51.685 109.67 53.057 108.299 54.749 108.299 L 83.678 108.299 C 85.37 108.299 86.741 109.67 86.741 111.362 C 86.741 113.055 85.37 114.425 83.678 114.425 Z " fill="rgb(67,77,97)"/><path d=" M 113.014 123.721 C 112.007 123.721 111.02 123.224 110.435 122.312 C 108.166 118.781 104.319 116.673 100.146 116.673 C 95.969 116.673 92.121 118.781 89.856 122.312 C 88.938 123.735 87.042 124.147 85.621 123.235 C 84.198 122.32 83.785 120.426 84.7 119.001 C 88.098 113.706 93.873 110.545 100.146 110.545 C 106.416 110.545 112.189 113.706 115.59 119.001 C 116.504 120.424 116.091 122.32 114.668 123.235 C 114.155 123.563 113.582 123.721 113.014 123.721 Z " fill="rgb(67,77,97)"/><path d=" M 115.896 178.892 L 122.025 178.892 L 122.025 172.763 L 115.896 172.763 L 115.896 178.892 Z " fill="rgb(106,134,188)"/><path d=" M 50.141 164.041 L 56.268 157.913 L 56.268 149.249 L 50.141 155.376 L 50.141 164.041 Z " fill="rgb(106,134,188)"/><path d=" M 150.301 155.428 L 144.174 149.301 L 144.174 157.965 L 150.301 164.093 L 150.301 155.428 Z " fill="rgb(106,134,188)"/><path d=" M 81.583 172.763 L 75.455 172.763 L 75.455 178.892 L 81.583 178.892 L 81.583 172.763 Z " fill="rgb(106,134,188)"/></g></svg>