<?xml version="1.0" encoding="UTF-8" standalone="no"?><!-- Generator: Gravit.io --><svg xmlns="http://www.w3.org/2000/svg" xmlns:xlink="http://www.w3.org/1999/xlink" style="isolation:isolate" viewBox="29.007 79.113 142.225 123.467" width="142.225pt" height="123.467pt"><g><path d=" M 152.934 196.452 L 61.475 196.452 L 58.948 196.452 L 47.252 196.452 C 45.559 196.452 44.188 197.824 44.188 199.515 C 44.188 201.208 45.559 202.58 47.252 202.58 L 58.948 202.58 L 61.475 202.58 L 152.934 202.58 C 154.627 202.58 155.998 201.208 155.998 199.516 C 155.998 197.824 154.627 196.452 152.934 196.452 Z " fill="rgb(222,244,241)"/><path d=" M 57.373 202.551 C 56.299 202.551 55.268 201.958 54.754 200.934 C 54.031 199.488 54.617 197.732 56.062 197.009 L 64.975 192.553 L 64.975 173.3 C 64.975 171.685 66.285 170.375 67.9 170.375 C 69.516 170.375 70.824 171.685 70.824 173.3 L 70.824 194.361 C 70.824 195.468 70.199 196.48 69.209 196.976 L 58.68 202.241 C 58.258 202.45 57.812 202.551 57.373 202.551 Z " fill="rgb(75,205,220)"/><path d=" M 64.975 178.993 L 70.825 178.993 L 70.825 173.729 L 64.975 173.729 L 64.975 178.993 Z " fill="rgb(0,156,181)"/><path d=" M 142.738 202.551 C 142.297 202.551 141.851 202.452 141.431 202.241 L 130.9 196.976 C 129.912 196.48 129.285 195.468 129.285 194.361 L 129.285 173.3 C 129.285 171.685 130.593 170.375 132.209 170.375 C 133.826 170.375 135.134 171.685 135.134 173.3 L 135.134 192.553 L 144.047 197.009 C 145.492 197.732 146.078 199.488 145.355 200.934 C 144.843 201.958 143.81 202.551 142.738 202.551 Z " fill="rgb(75,205,220)"/><path d=" M 129.285 178.842 L 135.135 178.842 L 135.135 173.578 L 129.285 173.578 L 129.285 178.842 Z " fill="rgb(0,156,181)"/><path d=" M 32.06 152.015 C 30.374 152.015 29.007 150.65 29.007 148.964 L 29.007 137.98 C 29.007 136.296 30.374 134.929 32.06 134.929 L 39.993 134.929 L 39.993 126.997 C 39.993 125.312 41.36 123.947 43.043 123.947 L 54.027 123.947 C 55.713 123.947 57.079 125.312 57.079 126.997 C 57.079 128.682 55.713 130.047 54.027 130.047 L 46.094 130.047 L 46.094 137.98 C 46.094 139.665 44.729 141.032 43.043 141.032 L 35.112 141.032 L 35.112 148.964 C 35.112 150.65 33.744 152.015 32.06 152.015 Z " fill="rgb(75,205,220)"/><path d=" M 55.246 126.998 L 55.246 123.947 L 49.754 123.947 L 49.754 126.998 L 49.754 130.048 L 55.246 130.048 L 55.246 126.998 Z " fill="rgb(0,156,181)"/><path d=" M 168.18 152.015 C 166.494 152.015 165.129 150.65 165.129 148.964 L 165.129 141.032 L 157.196 141.032 C 155.512 141.032 154.147 139.665 154.147 137.98 L 154.147 130.047 L 146.213 130.047 C 144.528 130.047 143.162 128.682 143.162 126.997 C 143.162 125.312 144.528 123.947 146.213 123.947 L 157.196 123.947 C 158.881 123.947 160.248 125.312 160.248 126.997 L 160.248 134.929 L 168.18 134.929 C 169.866 134.929 171.233 136.296 171.233 137.98 L 171.233 148.964 C 171.233 150.65 169.866 152.015 168.18 152.015 Z " fill="rgb(75,205,220)"/><path d=" M 144.99 123.947 L 144.99 126.998 L 144.99 130.048 L 150.484 130.048 L 150.484 126.998 L 150.484 123.947 L 144.99 123.947 Z " fill="rgb(0,156,181)"/><path d=" M 145.272 127.62 C 145.272 126.005 143.961 124.696 142.346 124.696 L 58.108 124.696 C 56.493 124.696 55.182 126.005 55.182 127.62 L 55.182 173.747 L 145.272 173.747 L 145.272 127.62 Z " fill="rgb(75,205,220)"/><path d=" M 114.482 146.752 C 114.482 147.788 115.837 148.627 117.511 148.627 L 142.242 148.627 C 143.914 148.627 145.271 147.788 145.271 146.752 L 145.271 117.872 L 114.482 117.871 L 114.482 146.752 Z " fill="rgb(75,205,220)"/><path d=" M 55.195 141.49 C 55.195 142.835 56.549 143.923 58.22 143.923 L 82.912 143.923 C 84.584 143.923 85.937 142.835 85.937 141.49 L 85.937 104.018 L 55.195 104.017 L 55.195 141.49 Z " fill="rgb(75,205,220)"/><path d=" M 85.764 90.038 L 85.764 138.192 C 85.764 139.921 87.039 141.319 88.61 141.319 L 111.852 141.319 C 113.422 141.319 114.698 139.921 114.698 138.192 L 114.698 90.04 L 85.764 90.038 Z " fill="rgb(75,205,220)"/><path d=" M 52.639 148.761 C 52.639 142.944 57.354 138.231 63.168 138.231 C 68.985 138.231 73.7 142.944 73.7 148.761 C 73.7 154.576 68.985 159.29 63.168 159.29 C 57.354 159.29 52.639 154.576 52.639 148.761 Z " fill="rgb(255,255,255)"/><path d=" M 63.168 141.155 C 58.977 141.155 55.563 144.567 55.563 148.761 C 55.563 152.955 58.977 156.367 63.168 156.367 C 67.363 156.367 70.773 152.955 70.773 148.761 C 70.773 144.567 67.363 141.155 63.168 141.155 Z  M 63.168 162.217 C 55.75 162.217 49.715 156.18 49.715 148.761 C 49.715 141.342 55.75 135.305 63.168 135.305 C 70.588 135.305 76.623 141.342 76.623 148.761 C 76.623 156.18 70.588 162.217 63.168 162.217 Z " fill="rgb(55,123,136)"/><path d=" M 58.861 148.762 C 58.861 146.382 60.789 144.452 63.168 144.452 C 65.548 144.452 67.476 146.382 67.476 148.762 C 67.476 151.142 65.548 153.07 63.168 153.07 C 60.789 153.07 58.861 151.142 58.861 148.762 Z " fill="rgb(55,123,136)"/><path d=" M 126.758 148.761 C 126.758 142.944 131.471 138.231 137.287 138.231 C 143.104 138.231 147.819 142.944 147.819 148.761 C 147.819 154.576 143.104 159.29 137.287 159.29 C 131.471 159.29 126.758 154.576 126.758 148.761 Z " fill="rgb(255,255,255)"/><path d=" M 137.287 141.155 C 133.096 141.155 129.683 144.567 129.683 148.761 C 129.683 152.955 133.096 156.367 137.287 156.367 C 141.48 156.367 144.892 152.955 144.892 148.761 C 144.892 144.567 141.48 141.155 137.287 141.155 Z  M 137.287 162.217 C 129.869 162.217 123.834 156.18 123.834 148.761 C 123.834 141.342 129.869 135.305 137.287 135.305 C 144.707 135.305 150.742 141.342 150.742 148.761 C 150.742 156.18 144.707 162.217 137.287 162.217 Z " fill="rgb(55,123,136)"/><path d=" M 132.981 148.762 C 132.981 146.382 134.909 144.452 137.288 144.452 C 139.668 144.452 141.596 146.382 141.596 148.762 C 141.596 151.142 139.668 153.07 137.288 153.07 C 134.909 153.07 132.981 151.142 132.981 148.762 Z " fill="rgb(55,123,136)"/><path d=" M 100.152 158.839 L 106.134 148.76 L 100.152 138.682 L 94.17 148.76 L 100.152 158.839 Z " fill="rgb(255,255,255)"/><path d=" M 100.152 144.414 L 97.57 148.762 L 100.152 153.11 L 102.734 148.762 L 100.152 144.414 Z  M 91.242 148.762 C 91.242 148.245 91.379 147.728 91.652 147.268 L 97.636 137.189 C 98.164 136.302 99.119 135.758 100.152 135.758 C 101.181 135.758 102.14 136.302 102.666 137.189 L 108.65 147.268 C 109.195 148.189 109.195 149.334 108.65 150.256 L 102.666 160.334 C 102.14 161.223 101.181 161.766 100.152 161.766 C 99.119 161.766 98.164 161.223 97.636 160.334 L 91.652 150.256 C 91.379 149.795 91.242 149.279 91.242 148.762 Z " fill="rgb(55,123,136)"/><path d=" M 120.547 185.372 L 112.227 185.372 L 112.227 179.522 L 114.697 179.522 L 114.697 173.921 L 120.547 173.921 L 120.547 185.372 Z " fill="rgb(0,156,181)"/><path d=" M 106.436 185.372 L 94.061 185.372 L 94.061 179.522 L 106.436 179.522 L 106.436 185.372 Z " fill="rgb(0,156,181)"/><path d=" M 88.227 185.372 L 79.948 185.372 L 79.948 173.921 L 85.797 173.921 L 85.797 179.522 L 88.227 179.522 L 88.227 185.372 Z " fill="rgb(0,156,181)"/><path d=" M 85.797 104.019 L 79.947 104.019 L 79.947 94.7 L 85.797 94.7 L 85.797 104.019 Z " fill="rgb(0,156,181)"/><path d=" M 85.797 90.04 L 79.947 90.04 L 79.947 79.114 L 88.164 79.114 L 88.164 84.964 L 85.797 84.964 L 85.797 90.04 Z " fill="rgb(0,156,181)"/><path d=" M 106.436 84.963 L 94.061 84.963 L 94.061 79.113 L 106.436 79.113 L 106.436 84.963 Z " fill="rgb(0,156,181)"/><path d=" M 120.547 90.04 L 114.697 90.04 L 114.697 84.964 L 112.248 84.964 L 112.248 79.114 L 120.547 79.114 L 120.547 90.04 Z " fill="rgb(0,156,181)"/><path d=" M 120.547 104.02 L 114.697 104.02 L 114.697 94.7 L 120.547 94.7 L 120.547 104.02 Z  M 120.547 118 L 114.697 118 L 114.697 108.681 L 120.547 108.681 L 120.547 118 Z " fill="rgb(0,156,181)"/><path d=" M 120.547 173.92 L 114.697 173.92 L 114.697 164.6 L 120.547 164.6 L 120.547 173.92 Z " fill="rgb(255,255,255)"/><path d=" M 120.547 159.94 L 114.697 159.94 L 114.697 150.621 L 120.547 150.621 L 120.547 159.94 Z " fill="rgb(255,255,255)"/><path d=" M 120.547 145.959 L 114.697 145.959 L 114.697 136.64 L 120.547 136.64 L 120.547 145.959 Z " fill="rgb(255,255,255)"/><path d=" M 120.547 131.98 L 114.697 131.98 L 114.697 122.66 L 120.547 122.66 L 120.547 131.98 Z " fill="rgb(255,255,255)"/><path d=" M 85.797 173.92 L 79.947 173.92 L 79.947 164.6 L 85.797 164.6 L 85.797 173.92 Z " fill="rgb(255,255,255)"/><path d=" M 85.797 159.94 L 79.947 159.94 L 79.947 150.62 L 85.797 150.62 L 85.797 159.94 Z " fill="rgb(255,255,255)"/><path d=" M 85.797 145.959 L 79.947 145.959 L 79.947 136.639 L 85.797 136.639 L 85.797 145.959 Z " fill="rgb(255,255,255)"/><path d=" M 85.797 131.979 L 79.947 131.979 L 79.947 122.66 L 85.797 122.66 L 85.797 131.979 Z " fill="rgb(255,255,255)"/><path d=" M 85.797 118 L 79.947 118 L 79.947 108.68 L 85.797 108.68 L 85.797 118 Z " fill="rgb(255,255,255)"/></g></svg>