<?xml version="1.0" encoding="UTF-8" standalone="no"?><!-- Generator: Gravit.io --><svg xmlns="http://www.w3.org/2000/svg" xmlns:xlink="http://www.w3.org/1999/xlink" style="isolation:isolate" viewBox="27.71 84.257 146.78 118.594" width="146.78pt" height="118.594pt"><g><path d=" M 148.955 196.722 L 74.497 196.722 L 71.971 196.722 L 44.334 196.722 C 42.641 196.722 41.27 198.095 41.27 199.786 C 41.27 201.478 42.641 202.851 44.334 202.851 L 71.971 202.851 L 74.497 202.851 L 148.955 202.851 C 150.648 202.851 152.019 201.478 152.019 199.786 C 152.019 198.095 150.648 196.722 148.955 196.722 Z " fill="rgb(222,244,241)"/><path d=" M 120.227 202.851 C 119.748 202.851 119.262 202.742 118.805 202.513 L 107.348 196.784 C 106.27 196.245 105.588 195.144 105.588 193.937 L 105.588 171.02 C 105.588 169.262 107.014 167.837 108.77 167.837 C 110.53 167.837 111.954 169.262 111.954 171.02 L 111.954 191.97 L 121.653 196.82 C 123.225 197.607 123.862 199.517 123.079 201.09 C 122.518 202.206 121.395 202.851 120.227 202.851 Z " fill="rgb(99,195,104)"/><path d=" M 108.77 171.546 L 105.588 171.546 L 105.588 177.911 L 108.77 177.911 L 111.954 177.911 L 111.954 171.546 L 108.77 171.546 Z " fill="rgb(73,114,59)"/><path d=" M 173.555 120.703 C 173.217 121.042 172.795 121.307 172.311 121.47 L 160.159 125.52 C 159.014 125.901 157.754 125.604 156.901 124.751 L 140.696 108.547 C 139.453 107.305 139.453 105.288 140.696 104.046 C 141.94 102.802 143.953 102.804 145.198 104.046 L 160.01 118.859 L 170.299 115.431 C 171.967 114.875 173.768 115.775 174.326 117.442 C 174.719 118.628 174.381 119.878 173.555 120.703 Z " fill="rgb(99,195,104)"/><path d=" M 75.248 201.918 C 75.824 202.494 76.618 202.85 77.498 202.851 C 79.257 202.851 80.682 201.427 80.681 199.667 L 80.68 160.656 C 80.682 158.898 79.258 157.475 77.499 157.476 C 75.74 157.475 74.315 158.899 74.316 160.658 L 74.315 199.669 C 74.315 200.547 74.672 201.343 75.248 201.918 Z " fill="rgb(99,195,104)"/><path d=" M 77.522 171.546 L 80.704 171.546 L 80.704 177.911 L 77.522 177.911 L 74.338 177.911 L 74.338 171.546 L 77.522 171.546 Z " fill="rgb(73,114,59)"/><path d=" M 98.942 171.757 L 109.598 171.757 C 127.254 171.757 141.567 157.444 141.567 139.788 L 141.567 129.132 L 99.873 132.15 L 98.942 171.757 Z " fill="rgb(99,195,104)"/><path d=" M 141.566 113.018 L 141.566 95.195 L 122.527 95.195 L 122.527 106.132 L 113.615 106.132 L 113.615 117.07 L 102.678 117.07 L 102.678 128.007 L 91.74 128.007 L 80.803 128.007 L 80.803 117.07 L 91.74 117.07 L 91.74 105.929 L 102.678 105.929 L 102.678 89.32 L 91.74 89.32 L 91.74 95.195 L 80.803 95.195 L 80.803 84.257 L 65.004 84.257 L 54.066 84.257 L 54.066 95.195 L 54.066 128.007 L 54.066 171.757 L 86.879 171.757 L 92.348 171.757 L 104.566 171.757 L 104.544 135.682 L 141.566 135.757 L 141.566 128.007 L 126.441 128.007 L 126.441 113.018 L 141.566 113.018 Z " fill="rgb(99,195,104)"/><path d=" M 30.893 164.114 C 30.079 164.114 29.264 163.803 28.641 163.182 C 27.399 161.938 27.399 159.925 28.641 158.68 L 56.229 131.096 C 57.469 129.852 59.485 129.852 60.727 131.096 C 61.971 132.34 61.971 134.354 60.727 135.597 L 33.143 163.182 C 32.522 163.803 31.707 164.114 30.893 164.114 Z " fill="rgb(99,195,104)"/><path d=" M 64.387 105.25 C 64.387 99.129 65.609 95.898 66.688 93.047 L 66.904 92.473 C 67.495 90.885 69.262 90.082 70.847 90.676 C 72.433 91.27 73.234 93.039 72.643 94.619 L 72.417 95.213 C 71.398 97.916 70.514 100.25 70.514 105.25 C 70.514 110.248 71.396 112.582 72.415 115.283 C 72.576 115.709 72.737 116.139 72.895 116.576 C 73.465 118.164 72.645 119.922 71.053 120.498 C 69.462 121.072 67.706 120.248 67.131 118.654 C 66.985 118.246 66.832 117.848 66.682 117.445 C 65.607 114.596 64.387 111.365 64.387 105.25 Z " fill="rgb(73,114,59)"/><path d=" M 85.313 148.774 C 85.313 151.494 83.108 153.699 80.388 153.699 C 77.668 153.699 75.463 151.494 75.463 148.774 C 75.463 146.053 77.668 143.849 80.388 143.849 C 83.108 143.849 85.313 146.053 85.313 148.774 Z " fill="rgb(255,255,255)"/><path d=" M 78.16 148.8 C 78.16 150.001 79.14 150.98 80.342 150.98 C 81.544 150.98 82.523 150.001 82.523 148.8 C 82.523 147.598 81.544 146.618 80.342 146.618 C 79.14 146.618 78.16 147.598 78.16 148.8 Z  M 87.974 148.8 C 87.974 153.007 84.55 156.433 80.342 156.433 C 76.135 156.433 72.709 153.007 72.709 148.8 C 72.709 144.592 76.135 141.167 80.342 141.167 C 84.55 141.167 87.974 144.592 87.974 148.8 Z " fill="rgb(73,114,59)"/><path d=" M 103.681 140.919 C 103.681 134.479 108.898 129.261 115.337 129.261 C 121.777 129.261 126.995 134.479 126.995 140.919 C 126.995 147.356 121.777 152.575 115.337 152.575 C 108.898 152.575 103.681 147.356 103.681 140.919 Z " fill="rgb(255,255,255)"/><path d=" M 115.337 132.498 C 110.696 132.498 106.919 136.275 106.919 140.919 C 106.919 145.561 110.696 149.338 115.337 149.338 C 119.98 149.338 123.758 145.561 123.758 140.919 C 123.758 136.275 119.98 132.498 115.337 132.498 Z  M 115.337 155.814 C 107.126 155.814 100.443 149.133 100.443 140.919 C 100.443 132.704 107.126 126.021 115.337 126.021 C 123.551 126.021 130.233 132.704 130.233 140.919 C 130.233 149.133 123.551 155.814 115.337 155.814 Z " fill="rgb(73,114,59)"/><path d=" M 110.569 140.919 C 110.569 138.284 112.704 136.148 115.338 136.148 C 117.973 136.148 120.108 138.284 120.108 140.919 C 120.108 143.553 117.973 145.688 115.338 145.688 C 112.704 145.688 110.569 143.553 110.569 140.919 Z " fill="rgb(73,114,59)"/><path d=" M 147.389 106.247 L 141.498 100.356 L 141.498 109.357 L 147.389 115.25 L 147.389 106.247 Z " fill="rgb(73,114,59)"/><path d=" M 47.971 139.351 L 47.971 148.356 L 53.811 142.514 L 53.811 133.513 L 47.971 139.351 Z " fill="rgb(73,114,59)"/></g></svg>