<svg xmlns="http://www.w3.org/2000/svg" xmlns:xlink="http://www.w3.org/1999/xlink" viewBox="0 0 89.96 78.78"><defs><style>.cls-1{fill:none;}.cls-2{fill:#ddf1ee;}.cls-3{fill:#a9a9c7;}.cls-4{clip-path:url(#clip-path);}.cls-5{fill:#505062;}.cls-6{fill:#fff;}.cls-7{fill:#7a83b5;}</style><clipPath id="clip-path" transform="translate(0 -7.68)"><rect class="cls-1" x="16.27" width="57.42" height="82.45"/></clipPath></defs><g id="Layer_2" data-name="Layer 2"><g id="Layer_1-2" data-name="Layer 1"><path class="cls-2" d="M73.94,82.41H16a2,2,0,1,0,0,4H73.94a2,2,0,1,0,0-4Z" transform="translate(0 -7.68)"/><path class="cls-3" d="M30.82,64.44a2,2,0,0,0-2,2V79.62l-6.1,3a2,2,0,0,0,.9,3.79,2,2,0,0,0,.89-.21l7.2-3.61a2,2,0,0,0,1.11-1.79V66.44A2,2,0,0,0,30.82,64.44ZM65.34,82.67l-6.1-3V66.44a2,2,0,0,0-4,0V80.85a2,2,0,0,0,1.1,1.79l7.21,3.61a2,2,0,0,0,1.79-3.58Zm24-15.44L73.71,51.57v5.65L86.54,70.06a2,2,0,0,0,1.42.59,2,2,0,0,0,1.41-3.42ZM.59,70.06A2,2,0,0,0,2,70.65a2,2,0,0,0,1.42-.59L16.29,57.19V51.53L.59,67.23A2,2,0,0,0,.59,70.06Z" transform="translate(0 -7.68)"/><g class="cls-4"><path class="cls-3" d="M74.26,40a13.81,13.81,0,0,1-8.32-2.59,10.7,10.7,0,0,0-12.4,0A13.87,13.87,0,0,1,45.21,40a13.87,13.87,0,0,1-8.33-2.59,10,10,0,0,0-6.19-2,10,10,0,0,0-6.2,2A13.87,13.87,0,0,1,16.16,40c-3.9,0-6.53-1.65-8.63-3C5.89,36,4.59,35.18,3,35.18H3a2,2,0,0,1,0-4H3c2.74,0,4.73,1.25,6.66,2.46S13.41,36,16.16,36a10.07,10.07,0,0,0,6.2-2,13.79,13.79,0,0,1,8.33-2.6A13.82,13.82,0,0,1,39,34a10.68,10.68,0,0,0,12.39,0,14.64,14.64,0,0,1,16.66,0,10,10,0,0,0,6.19,2c2.75,0,4.58-1.15,6.51-2.37s3.91-2.46,6.66-2.46h0a2,2,0,0,1,0,4h0c-1.59,0-2.89.82-4.53,1.85C80.79,38.36,78.17,40,74.26,40Z" transform="translate(0 -7.68)"/><path class="cls-3" d="M74.26,34.63a12.55,12.55,0,0,1-8.47-3.15c-1.73-1.3-3.09-2.33-6.05-2.33s-4.33,1-6.06,2.33a13,13,0,0,1-16.94,0c-1.73-1.3-3.09-2.33-6.05-2.33s-4.33,1-6.06,2.33a12.53,12.53,0,0,1-8.47,3.15c-4,0-6.65-2-8.77-3.61C5.77,29.8,4.49,28.84,3,28.84H3a2,2,0,1,1,0-4H3c2.85,0,4.86,1.52,6.81,3s3.71,2.8,6.36,2.8c3,0,4.33-1,6.06-2.34a13,13,0,0,1,16.94,0c1.72,1.31,3.09,2.34,6.05,2.34s4.33-1,6.06-2.34a13,13,0,0,1,16.94,0c1.73,1.31,3.09,2.34,6.05,2.34,2.66,0,4.46-1.36,6.37-2.8s4-3,6.8-3h0a2,2,0,0,1,0,4h0c-1.5,0-2.77,1-4.39,2.18C80.91,32.63,78.26,34.63,74.26,34.63Z" transform="translate(0 -7.68)"/><path class="cls-3" d="M74.26,28.84c-4.46,0-6.81-2.37-8.68-4.28-1.71-1.72-3-3.08-5.84-3.08s-4.14,1.36-5.84,3.08c-1.88,1.91-4.22,4.28-8.69,4.28s-6.81-2.37-8.68-4.28c-1.71-1.72-3.05-3.08-5.84-3.08s-4.14,1.36-5.84,3.08c-1.88,1.91-4.22,4.28-8.69,4.28-4.16,0-6.84-2.72-9-4.9C5.64,22.4,4.33,21.06,3,21.06H3a2,2,0,1,1,0-4H3c3,0,5,2.07,7,4.07s3.65,3.71,6.14,3.71c2.8,0,4.14-1.37,5.84-3.09,1.88-1.9,4.22-4.27,8.69-4.27s6.8,2.37,8.68,4.27c1.7,1.72,3.05,3.09,5.84,3.09s4.14-1.37,5.84-3.09c1.88-1.9,4.22-4.27,8.69-4.27s6.8,2.37,8.68,4.27c1.7,1.72,3,3.09,5.84,3.09,2.49,0,4.27-1.8,6.15-3.71s4-4.07,7-4.07h0a2,2,0,1,1,0,4h0c-1.33,0-2.65,1.34-4.17,2.88C81.11,26.12,78.43,28.84,74.26,28.84Z" transform="translate(0 -7.68)"/><path class="cls-3" d="M74.26,22.49c-4.66,0-7-3.3-8.89-6s-3.16-4.27-5.63-4.27S56,13.88,54.11,16.53s-4.23,6-8.9,6-7-3.3-8.89-6-3.16-4.27-5.63-4.27-3.75,1.62-5.63,4.27-4.23,6-8.9,6c-4.36,0-7-3.78-9.2-6.82-1.33-1.87-2.83-4-4-4H3a2,2,0,0,1,0-4c3.24,0,5.26,2.88,7.25,5.67,1.79,2.53,3.64,5.14,5.93,5.14,2.47,0,3.75-1.62,5.63-4.27s4.23-6,8.9-6,7,3.31,8.89,6,3.16,4.27,5.63,4.27,3.75-1.62,5.63-4.27,4.23-6,8.9-6,7,3.31,8.89,6,3.16,4.27,5.63,4.27c2.3,0,4.15-2.61,5.94-5.14,2-2.79,4-5.67,7.24-5.67a2,2,0,0,1,0,4h0c-1.14,0-2.64,2.12-4,4C81.31,18.71,78.62,22.49,74.26,22.49Z" transform="translate(0 -7.68)"/><path class="cls-3" d="M73.69,66.89H16.27a2,2,0,1,1,0-4H73.69a2,2,0,0,1,0,4Z" transform="translate(0 -7.68)"/><path class="cls-3" d="M74.26,45.39a15.91,15.91,0,0,1-8.16-2,12.12,12.12,0,0,0-6.36-1.61,12.14,12.14,0,0,0-6.37,1.61,15.88,15.88,0,0,1-8.16,2,15.88,15.88,0,0,1-8.16-2,12.12,12.12,0,0,0-6.36-1.61,12.14,12.14,0,0,0-6.37,1.61,15.88,15.88,0,0,1-8.16,2A17.54,17.54,0,0,1,7.69,43,10.22,10.22,0,0,0,3,41.52H3a2,2,0,0,1,0-4H3a13.78,13.78,0,0,1,6.5,1.94,13.61,13.61,0,0,0,6.67,1.92,12.1,12.1,0,0,0,6.36-1.61,16,16,0,0,1,8.17-2,15.93,15.93,0,0,1,8.16,2,12.12,12.12,0,0,0,6.36,1.61,12.1,12.1,0,0,0,6.36-1.61,15.94,15.94,0,0,1,8.17-2,15.93,15.93,0,0,1,8.16,2,12.12,12.12,0,0,0,6.36,1.61,13.55,13.55,0,0,0,6.67-1.92,13.85,13.85,0,0,1,6.5-1.94h0a2,2,0,0,1,0,4h0A10.26,10.26,0,0,0,82.73,43,17.54,17.54,0,0,1,74.26,45.39Z" transform="translate(0 -7.68)"/><path class="cls-3" d="M45.21,50.76a19.6,19.6,0,0,1-8-1.5A15.78,15.78,0,0,0,30.69,48a15.8,15.8,0,0,0-6.56,1.24,19.76,19.76,0,0,1-7.85,1.5h0a2,2,0,0,1,0-4,15.72,15.72,0,0,0,6.45-1.24,19.7,19.7,0,0,1,8-1.5,19.68,19.68,0,0,1,8,1.5,15.75,15.75,0,0,0,6.55,1.24,15.84,15.84,0,0,0,6.56-1.24,19.6,19.6,0,0,1,8-1.5,19.85,19.85,0,0,1,8,1.49,15.73,15.73,0,0,0,6,1.24,2,2,0,0,1,0,4h0a19.67,19.67,0,0,1-7.34-1.49A15.8,15.8,0,0,0,59.74,48a15.84,15.84,0,0,0-6.56,1.24A19.6,19.6,0,0,1,45.21,50.76Z" transform="translate(0 -7.68)"/><path class="cls-3" d="M45.21,61.52A50.46,50.46,0,0,1,37.7,61a48.87,48.87,0,0,0-7-.44,49,49,0,0,0-7,.44,52.24,52.24,0,0,1-7.4.48h0a2,2,0,0,1,0-4,46.21,46.21,0,0,0,6.9-.44,52.42,52.42,0,0,1,7.52-.47,52.36,52.36,0,0,1,7.51.47,47.32,47.32,0,0,0,7,.44,47.32,47.32,0,0,0,7-.44,52.42,52.42,0,0,1,7.52-.47,52.53,52.53,0,0,1,7.52.47,47.44,47.44,0,0,0,6.45.44,2,2,0,0,1,0,4h0A50.48,50.48,0,0,1,66.76,61a49.15,49.15,0,0,0-7-.44,49,49,0,0,0-7,.44A50.35,50.35,0,0,1,45.21,61.52Z" transform="translate(0 -7.68)"/><path class="cls-3" d="M45.21,56.14a27.28,27.28,0,0,1-7.75-1,24,24,0,0,0-6.77-.85,23.7,23.7,0,0,0-6.78.85,27.08,27.08,0,0,1-7.64,1h0a2,2,0,0,1,0-4,23.32,23.32,0,0,0,6.67-.86,27.5,27.5,0,0,1,7.76-1,27.42,27.42,0,0,1,7.75,1,23.55,23.55,0,0,0,6.77.86A23.55,23.55,0,0,0,52,51.28a27.5,27.5,0,0,1,7.76-1,27.56,27.56,0,0,1,7.76,1,23.39,23.39,0,0,0,6.22.85,2,2,0,1,1-.06,4,27.21,27.21,0,0,1-7.14-1,23.75,23.75,0,0,0-6.78-.85,24.07,24.07,0,0,0-6.78.85A27.28,27.28,0,0,1,45.21,56.14Z" transform="translate(0 -7.68)"/></g><path class="cls-5" d="M44.76,50.76a19.85,19.85,0,0,1-8-1.5l-.37-.14a2,2,0,1,1,1.4-3.75l.39.15a15.78,15.78,0,0,0,6.55,1.24,15.84,15.84,0,0,0,6.56-1.24l.84-.31A2,2,0,0,1,53.52,49l-.79.29A19.6,19.6,0,0,1,44.76,50.76Z" transform="translate(0 -7.68)"/><path class="cls-5" d="M24.62,26.78v5.81a5.81,5.81,0,1,0,11.62,0V26.78Z" transform="translate(0 -7.68)"/><path class="cls-5" d="M30.43,40.4a7.82,7.82,0,0,1-7.81-7.81V26.78a2,2,0,0,1,2-2H36.24a2,2,0,0,1,2,2v5.81A7.81,7.81,0,0,1,30.43,40.4ZM26.62,28.78v3.81a3.81,3.81,0,1,0,7.62,0V28.78Z" transform="translate(0 -7.68)"/><path class="cls-5" d="M53.68,26.78v5.81a5.81,5.81,0,1,0,11.62,0V26.78Z" transform="translate(0 -7.68)"/><path class="cls-5" d="M59.49,40.4a7.82,7.82,0,0,1-7.81-7.81V26.78a2,2,0,0,1,2-2H65.3a2,2,0,0,1,2,2v5.81A7.81,7.81,0,0,1,59.49,40.4ZM55.68,28.78v3.81a3.81,3.81,0,1,0,7.62,0V28.78Z" transform="translate(0 -7.68)"/><line class="cls-6" x1="65.3" y1="19.1" x2="74.68" y2="19.1"/><path class="cls-5" d="M74.68,28.78H65.3a2,2,0,0,1,0-4h9.38a2,2,0,0,1,0,4Z" transform="translate(0 -7.68)"/><line class="cls-6" x1="15.28" y1="19.1" x2="34.17" y2="19.1"/><path class="cls-5" d="M34.17,28.78H15.28a2,2,0,0,1,0-4H34.17a2,2,0,0,1,0,4Z" transform="translate(0 -7.68)"/><path class="cls-5" d="M53.34,34.86a2,2,0,0,1-1.69-.92,8,8,0,0,0-13.44,0,2,2,0,1,1-3.37-2.17,12,12,0,0,1,20.18,0,2,2,0,0,1-.6,2.77A2.05,2.05,0,0,1,53.34,34.86Z" transform="translate(0 -7.68)"/><rect class="cls-7" x="55.22" y="59.21" width="4" height="4"/><polygon class="cls-7" points="12.27 53.52 16.27 49.51 16.27 43.85 12.27 47.86 12.27 53.52"/><polygon class="cls-7" points="77.69 47.89 73.69 43.89 73.69 49.55 77.69 53.55 77.69 47.89"/><rect class="cls-7" x="28.8" y="59.21" width="4" height="4"/></g></g></svg>