<svg xmlns="http://www.w3.org/2000/svg" viewBox="0 0 91.68 81.37"><defs><style>.cls-1{fill:#ddf1ee;}.cls-2{fill:#eb9371;}.cls-3{fill:#fff;}.cls-4{fill:#7f4a38;}.cls-5{fill:#d16a53;}</style></defs><g id="Layer_2" data-name="Layer 2"><g id="Layer_1-2" data-name="Layer 1"><path class="cls-1" d="M80.91,77.37H10.77a2,2,0,1,0,0,4H80.91a2,2,0,0,0,0-4Z"/><path class="cls-2" d="M24.32,81.32a2,2,0,0,1-.9-3.78l6.08-3V61.38a2,2,0,1,1,4,0V75.73a2,2,0,0,1-1.1,1.79L25.21,81.1A1.92,1.92,0,0,1,24.32,81.32Z"/><path class="cls-2" d="M67.36,81.32a1.92,1.92,0,0,1-.89-.22L59.3,77.52a2,2,0,0,1-1.1-1.79V61.38a2,2,0,0,1,4,0V74.5l6.07,3a2,2,0,0,1-.89,3.78Z"/><path class="cls-2" d="M17.14,39.86V54.21a7.17,7.17,0,0,0,7.17,7.17H67.36a7.17,7.17,0,0,0,7.18-7.17V18.34H60.19v7.17H45.84V11.16H31.49V0H17.14V39.86Z"/><line class="cls-3" x1="45.84" y1="50.9" x2="31.49" y2="50.9"/><path class="cls-4" d="M45.84,52.89H31.49a2,2,0,0,1,0-4H45.84a2,2,0,0,1,0,4Z"/><path class="cls-2" d="M2,63.38a2,2,0,0,1-2-2V54.21a2,2,0,0,1,2-2H7.18V47a2,2,0,0,1,2-2h7.17a2,2,0,1,1,0,4H11.16v5.18a2,2,0,0,1-2,2H4v5.18A2,2,0,0,1,2,63.38Z"/><path class="cls-2" d="M89.68,63.38a2,2,0,0,1-2-2V56.2H82.51a2,2,0,0,1-2-2V49H75.34a2,2,0,1,1,0-4h7.17a2,2,0,0,1,2,2v5.18h5.18a2,2,0,0,1,2,2v7.17A2,2,0,0,1,89.68,63.38Z"/><rect class="cls-5" x="29.5" y="61.38" width="3.99" height="3.59"/><polygon class="cls-5" points="17.14 47.04 17.14 45.04 13.55 45.04 13.55 47.04 13.55 49.03 17.14 49.03 17.14 47.04"/><polygon class="cls-5" points="74.54 45.04 74.54 47.04 74.54 49.03 78.13 49.03 78.13 47.04 78.13 45.04 74.54 45.04"/><rect class="cls-5" x="58.2" y="61.38" width="3.99" height="3.59"/><path class="cls-4" d="M36.55,44.13a7.81,7.81,0,0,1-7.8-7.8V30.14a1.61,1.61,0,0,1,1.61-1.61H42.74a1.61,1.61,0,0,1,1.61,1.61v6.19A7.81,7.81,0,0,1,36.55,44.13ZM32,31.75v4.58a4.59,4.59,0,0,0,9.18,0V31.75Z"/><path class="cls-4" d="M56.2,44.13a7.81,7.81,0,0,1-7.8-7.8V30.14A1.61,1.61,0,0,1,50,28.53H62.4A1.61,1.61,0,0,1,64,30.14v6.19A7.82,7.82,0,0,1,56.2,44.13ZM51.62,31.75v4.58a4.59,4.59,0,1,0,9.17,0V31.75Z"/><path class="cls-4" d="M50.1,39a1.61,1.61,0,0,1-1.61-1.61,2.1,2.1,0,0,0-4.19-.16A1.6,1.6,0,1,1,41.1,37a5.31,5.31,0,0,1,10.61.4A1.61,1.61,0,0,1,50.1,39Z"/><path class="cls-4" d="M75.64,31.75H62.4a1.61,1.61,0,1,1,0-3.22H75.64a1.61,1.61,0,0,1,0,3.22Z"/><path class="cls-4" d="M40.54,31.75H16.07a1.61,1.61,0,0,1,0-3.22H40.54a1.61,1.61,0,0,1,0,3.22Z"/><path class="cls-4" d="M39.38,37.43a1.72,1.72,0,1,1-1.71-1.72A1.71,1.71,0,0,1,39.38,37.43Z"/><path class="cls-4" d="M56.59,37.43a1.72,1.72,0,1,1-1.72-1.72A1.72,1.72,0,0,1,56.59,37.43Z"/></g></g></svg>