<svg xmlns="http://www.w3.org/2000/svg" viewBox="0 0 90.08 61.4"><defs><style>.cls-1{fill:#ddf1ee;}.cls-2{fill:#a2af88;}.cls-3{fill:#7a8467;}.cls-4{fill:#285250;}</style></defs><g id="Layer_2" data-name="Layer 2"><g id="Layer_1-2" data-name="Layer 1"><path class="cls-1" d="M77.2,57.2H12.88a2.1,2.1,0,0,0,0,4.2H77.2a2.1,2.1,0,1,0,0-4.2Z"/><path class="cls-2" d="M30.32,39.36a2,2,0,0,0-2,2V54.55L22.2,57.6a2,2,0,0,0,.9,3.8,2.08,2.08,0,0,0,.9-.21l7.21-3.61a2,2,0,0,0,1.11-1.79V41.36A2,2,0,0,0,30.32,39.36Zm38,18.24-6.1-3.05V41.36a2,2,0,0,0-4,0V55.79a2,2,0,0,0,1.1,1.79l7.22,3.61a2,2,0,0,0,.9.21,2,2,0,0,0,1.79-1.11A2,2,0,0,0,68.36,57.6Z"/><path class="cls-3" d="M60.25,39.36a2,2,0,0,0-2,2v6.08c1.34.16,2.67.35,4,.56V41.36A2,2,0,0,0,60.25,39.36Z"/><path class="cls-3" d="M30.32,39.36a2,2,0,0,0-2,2V48c1.33-.21,2.67-.4,4-.56V41.36A2,2,0,0,0,30.32,39.36Z"/><path class="cls-2" d="M7.88,17a1.67,1.67,0,0,1,1.21.5,1.71,1.71,0,0,1,0,2.42L4.14,24.83l5,5a1.71,1.71,0,0,1-2.42,2.42L.5,26.05a1.72,1.72,0,0,1,0-2.43l6.17-6.16A1.67,1.67,0,0,1,7.88,17Z"/><path class="cls-2" d="M1.71,23.12H26.38a1.72,1.72,0,0,1,0,3.43H1.71a1.72,1.72,0,0,1,0-3.43Z"/><path class="cls-3" d="M10.59,25.19c0,.46,0,.91-.07,1.36H21.58a1.72,1.72,0,0,0,0-3.43H10.44A15.76,15.76,0,0,1,10.59,25.19Z"/><path class="cls-2" d="M82.2,32.71a1.69,1.69,0,0,1-1.21-.5,1.71,1.71,0,0,1,0-2.42l5-5-5-4.95a1.71,1.71,0,1,1,2.42-2.42l6.17,6.16a1.72,1.72,0,0,1,0,2.43l-6.17,6.16A1.67,1.67,0,0,1,82.2,32.71Z"/><path class="cls-2" d="M88.37,26.55H63.7a1.72,1.72,0,0,1,0-3.43H88.37a1.72,1.72,0,0,1,0,3.43Z"/><path class="cls-3" d="M80.87,24.48c0-.46,0-.91.06-1.36H69.87a1.72,1.72,0,0,0,0,3.43H81A15.76,15.76,0,0,1,80.87,24.48Z"/><path class="cls-2" d="M75.33,46.06a107.54,107.54,0,0,0-60.09,0,1.2,1.2,0,0,1-1.55-1.15V1.21A1.2,1.2,0,0,1,15.24.05a107.54,107.54,0,0,0,60.09,0,1.21,1.21,0,0,1,1.55,1.16v43.7A1.2,1.2,0,0,1,75.33,46.06Z"/><path class="cls-4" d="M45.28,31.75a108.44,108.44,0,0,1-21-2.06,1.71,1.71,0,1,1,.66-3.36,105.25,105.25,0,0,0,40.79,0,1.71,1.71,0,1,1,.66,3.36A108.55,108.55,0,0,1,45.28,31.75Z"/><path class="cls-4" d="M69.89,18a3,3,0,1,0-3,3A3,3,0,0,0,69.89,18Z"/><path class="cls-4" d="M26.77,18a3,3,0,1,0-3.05,3A3,3,0,0,0,26.77,18Z"/></g></g></svg>