<svg xmlns="http://www.w3.org/2000/svg" viewBox="0 0 83.01 72.58"><defs><style>.cls-1{fill:#aa60a6;}.cls-2{fill:#684581;}.cls-3{fill:#ddf1ee;}</style></defs><g id="Layer_2" data-name="Layer 2"><g id="Layer_1-2" data-name="Layer 1"><path class="cls-1" d="M81.14,54.21a1.85,1.85,0,0,0,1.32-.55,1.88,1.88,0,0,0,0-2.65L66.23,34.79a1.87,1.87,0,1,0-2.64,2.65L79.81,53.66A1.87,1.87,0,0,0,81.14,54.21Z"/><path class="cls-2" d="M67.66,36.21,71.4,40v2.28A13,13,0,0,1,71.12,45L67.66,41.5Z"/><path class="cls-1" d="M1.87,57.74a1.83,1.83,0,0,1-1.32-.55,1.88,1.88,0,0,1,0-2.65L16.78,38.32A1.87,1.87,0,0,1,19.42,41L3.2,57.19A1.87,1.87,0,0,1,1.87,57.74Z"/><path class="cls-2" d="M15.35,39.74l-3.74,3.74v2.28a13.06,13.06,0,0,0,.28,2.74L15.35,45Z"/><path class="cls-3" d="M77.16,69H5.62a1.81,1.81,0,1,0,0,3.61H77.16a1.81,1.81,0,0,0,0-3.61Z"/><path class="cls-1" d="M65.64,72.58a2,2,0,0,1-.84-.2L58.06,69a1.89,1.89,0,0,1-1-1.68V46.26a1.87,1.87,0,1,1,3.74,0V66.18L66.48,69a1.87,1.87,0,0,1-.84,3.55Z"/><polygon class="cls-2" points="58.9 50.62 57.03 50.62 57.03 54.36 58.9 54.36 60.77 54.36 60.77 50.62 58.9 50.62"/><path class="cls-1" d="M17.24,72.58a2,2,0,0,0,.84-.2L24.82,69a1.89,1.89,0,0,0,1-1.68V47.19a1.87,1.87,0,0,0-3.74,0v19L16.4,69a1.87,1.87,0,0,0,.84,3.55Z"/><polygon class="cls-2" points="23.98 48.82 25.85 48.82 25.85 52.57 23.98 52.57 22.11 52.57 22.11 48.82 23.98 48.82"/><path class="cls-1" d="M66.78,5h-3.6a.86.86,0,0,0-.85.82V9.47a.85.85,0,0,1-.85.85h-3.6A.85.85,0,0,1,57,9.47V6.14a.85.85,0,0,0-.84-.85h-3.6a.85.85,0,0,1-.85-.85V.85A.85.85,0,0,0,50.89,0h-3.6a.85.85,0,0,0-.84.82V9.08a.43.43,0,0,1,0-.05.85.85,0,0,1-.84.77H42a.84.84,0,0,1-.84-.8s0,.06,0,.08V2.61a.85.85,0,0,0-.84-.85H26.7a.85.85,0,0,0-.84.82V5a.85.85,0,0,1-.85.85H21.38a.83.83,0,0,0-.81.81v3a.86.86,0,0,1-.85.85h-3.6a.85.85,0,0,0-.85.85V52.09a.85.85,0,0,0,.85.85h3.6a.85.85,0,0,0,.84-.76V49.67a.85.85,0,0,1,.84-.85H25a.85.85,0,0,0,.85-.82V46.72a.85.85,0,0,1,.84-.84H40.3a.85.85,0,0,1,.84.84v.36h0v2.66a.85.85,0,0,0,.85.85h3.6a.85.85,0,0,0,.85-.85V45a.85.85,0,0,1,.84-.85h3.6a.85.85,0,0,1,.85.85V46.8a.85.85,0,0,0,.85.85h3.64a.84.84,0,0,1,.8.84v1.26a.86.86,0,0,0,.85.85h3.6a.85.85,0,0,0,.85-.85V48.62h0V48.2a.85.85,0,0,1,.85-.85h3.6a.85.85,0,0,0,.84-.84V5.85A.85.85,0,0,0,66.78,5Z"/><path class="cls-2" d="M29.61,24.32a4.72,4.72,0,1,1-4.72-4.71A4.73,4.73,0,0,1,29.61,24.32Zm-6.07,0A1.35,1.35,0,1,0,24.89,23,1.36,1.36,0,0,0,23.54,24.32Z"/><path class="cls-2" d="M61.74,20.55A4.72,4.72,0,1,1,57,15.83,4.72,4.72,0,0,1,61.74,20.55Zm-6.06,0A1.35,1.35,0,1,0,57,19.2,1.34,1.34,0,0,0,55.68,20.55Z"/><path class="cls-2" d="M29.72,19.61V23a1.35,1.35,0,1,1,0,2.69V29a4.72,4.72,0,1,0,0-9.43Z"/><path class="cls-2" d="M35,19.61V23a1.35,1.35,0,1,1,0,2.69V29a4.72,4.72,0,1,0,0-9.43Z"/><path class="cls-2" d="M42.42,19.61V23a1.35,1.35,0,1,1,0,2.69V29a4.72,4.72,0,0,0,0-9.43Z"/><path class="cls-2" d="M29.76,38.27A16.46,16.46,0,0,1,23.09,37l-.31-.11A1.68,1.68,0,1,1,24,33.76l.32.12a13.14,13.14,0,0,0,5.49,1"/><path class="cls-2" d="M38.28,33.32l-.32.12A14.17,14.17,0,0,1,35,34.3v3.38a16.47,16.47,0,0,0,4.12-1.11l.31-.11a1.68,1.68,0,1,0-1.17-3.14Z"/><path class="cls-2" d="M45.67,33.32l-.32.12a14.07,14.07,0,0,1-2.93.86v3.38a16.38,16.38,0,0,0,4.11-1.11l.32-.11a1.68,1.68,0,0,0-1.18-3.14Z"/><path class="cls-2" d="M34.34,32.8a12.82,12.82,0,0,1-4.64.73v3.35a16.59,16.59,0,0,0,4.64-.58Z"/></g></g></svg>