<svg xmlns="http://www.w3.org/2000/svg" viewBox="0 0 83.66 72.63"><defs><style>.cls-1{fill:#ddf1ee;}.cls-2{fill:#3fc3d8;}.cls-3{fill:#0096af;}.cls-4{fill:#fff;}.cls-5{fill:#407886;}</style></defs><g id="Layer_2" data-name="Layer 2"><g id="Layer_1-2" data-name="Layer 1"><path class="cls-1" d="M72.9,69H10.73a1.81,1.81,0,0,0,0,3.61H72.9a1.81,1.81,0,0,0,0-3.61Z"/><path class="cls-2" d="M16.69,72.61a1.72,1.72,0,0,1-.78-3.26l5.25-2.62V55.4a1.72,1.72,0,0,1,3.44,0V67.79a1.73,1.73,0,0,1-1,1.54l-6.2,3.1A1.73,1.73,0,0,1,16.69,72.61Z"/><rect class="cls-3" x="21.16" y="55.66" width="3.44" height="3.1"/><path class="cls-2" d="M66.9,72.61a1.77,1.77,0,0,1-.77-.18l-6.19-3.1A1.73,1.73,0,0,1,59,67.79V55.4a1.72,1.72,0,0,1,3.44,0V66.73l5.24,2.62a1.72,1.72,0,0,1-.77,3.26Z"/><rect class="cls-3" x="58.99" y="55.57" width="3.44" height="3.1"/><path class="cls-2" d="M1.8,42.88A1.79,1.79,0,0,1,0,41.09V34.63a1.8,1.8,0,0,1,1.8-1.8H6.46V28.17a1.81,1.81,0,0,1,1.8-1.8h6.46a1.8,1.8,0,0,1,0,3.59H10.05v4.67a1.79,1.79,0,0,1-1.79,1.79H3.59v4.67A1.79,1.79,0,0,1,1.8,42.88Z"/><polygon class="cls-3" points="15.43 28.17 15.43 26.37 12.2 26.37 12.2 28.17 12.2 29.96 15.43 29.96 15.43 28.17"/><path class="cls-2" d="M81.87,42.88a1.79,1.79,0,0,1-1.8-1.79V36.42H75.4a1.79,1.79,0,0,1-1.79-1.79V30H68.94a1.8,1.8,0,0,1,0-3.59H75.4a1.8,1.8,0,0,1,1.8,1.8v4.66h4.67a1.8,1.8,0,0,1,1.79,1.8v6.46A1.79,1.79,0,0,1,81.87,42.88Z"/><polygon class="cls-3" points="68.22 26.37 68.22 28.17 68.22 29.96 71.46 29.96 71.46 28.17 71.46 26.37 68.22 26.37"/><path class="cls-2" d="M68.39,28.53a1.72,1.72,0,0,0-1.72-1.72H17.12a1.72,1.72,0,0,0-1.72,1.72V55.67h53Z"/><path class="cls-2" d="M50.28,39.79c0,.61.8,1.1,1.78,1.1H66.61c1,0,1.78-.49,1.78-1.1v-17H50.28Z"/><path class="cls-2" d="M15.4,36.69a1.64,1.64,0,0,0,1.78,1.43H31.71a1.64,1.64,0,0,0,1.78-1.43v-22H15.4Z"/><path class="cls-2" d="M33.39,6.43V34.75a1.76,1.76,0,0,0,1.67,1.84H48.73a1.76,1.76,0,0,0,1.68-1.84V6.43Z"/><path class="cls-4" d="M13.9,41a6.2,6.2,0,1,1,6.19,6.19A6.2,6.2,0,0,1,13.9,41Z"/><path class="cls-5" d="M20.09,48.88A7.92,7.92,0,1,1,28,41,7.92,7.92,0,0,1,20.09,48.88Zm0-12.39A4.48,4.48,0,1,0,24.57,41,4.48,4.48,0,0,0,20.09,36.49Z"/><path class="cls-5" d="M17.56,41a2.54,2.54,0,1,1,2.53,2.53A2.54,2.54,0,0,1,17.56,41Z"/><path class="cls-4" d="M57.5,41a6.2,6.2,0,1,1,6.19,6.19A6.2,6.2,0,0,1,57.5,41Z"/><path class="cls-5" d="M63.69,48.88A7.92,7.92,0,1,1,71.61,41,7.92,7.92,0,0,1,63.69,48.88Zm0-12.39A4.48,4.48,0,1,0,68.17,41,4.48,4.48,0,0,0,63.69,36.49Z"/><path class="cls-5" d="M61.16,41a2.54,2.54,0,1,1,2.53,2.53A2.54,2.54,0,0,1,61.16,41Z"/><polygon class="cls-4" points="41.85 46.9 45.37 40.97 41.85 35.04 38.33 40.97 41.85 46.9"/><path class="cls-5" d="M36.61,41a1.74,1.74,0,0,1,.24-.88l3.52-5.93a1.72,1.72,0,0,1,3,0l3.52,5.93a1.73,1.73,0,0,1,0,1.76l-3.52,5.93a1.72,1.72,0,0,1-3,0l-3.52-5.93A1.74,1.74,0,0,1,36.61,41Zm5.24-2.56L40.33,41l1.52,2.56L43.37,41Z"/><polygon class="cls-3" points="53.85 62.51 48.95 62.51 48.95 59.06 50.41 59.06 50.41 55.77 53.85 55.77 53.85 62.51"/><rect class="cls-3" x="38.27" y="59.06" width="7.28" height="3.44"/><polygon class="cls-3" points="34.84 62.51 29.96 62.51 29.96 55.77 33.41 55.77 33.41 59.06 34.84 59.06 34.84 62.51"/><path class="cls-3" d="M33.41,14.65H30V9.17h3.45Z"/><polygon class="cls-3" points="33.41 6.43 29.96 6.43 29.96 0 34.8 0 34.8 3.44 33.41 3.44 33.41 6.43"/><rect class="cls-3" x="38.27" width="7.28" height="3.44"/><polygon class="cls-3" points="53.85 6.43 50.41 6.43 50.41 3.44 48.97 3.44 48.97 0 53.85 0 53.85 6.43"/><path class="cls-3" d="M53.85,22.87H50.41V17.39h3.44Zm0-8.22H50.41V9.17h3.44Z"/><rect class="cls-4" x="50.41" y="50.29" width="3.44" height="5.48"/><rect class="cls-4" x="50.41" y="42.06" width="3.44" height="5.48"/><rect class="cls-4" x="50.41" y="33.84" width="3.44" height="5.48"/><rect class="cls-4" x="50.41" y="25.62" width="3.44" height="5.48"/><rect class="cls-4" x="29.96" y="50.29" width="3.44" height="5.48"/><rect class="cls-4" x="29.96" y="42.06" width="3.44" height="5.48"/><rect class="cls-4" x="29.96" y="33.84" width="3.44" height="5.48"/><rect class="cls-4" x="29.96" y="25.62" width="3.44" height="5.48"/><rect class="cls-4" x="29.96" y="17.39" width="3.44" height="5.48"/></g></g></svg>