<svg xmlns="http://www.w3.org/2000/svg" viewBox="0 0 76.8 71.97"><defs><style>.cls-1{fill:#ddf1ee;}.cls-2{fill:#f285b5;}.cls-3{fill:#d8659a;}.cls-4{fill:#67306a;}.cls-5{fill:#4aa89e;}</style></defs><g id="Layer_2" data-name="Layer 2"><g id="Layer_1-2" data-name="Layer 1"><path class="cls-1" d="M73.3,67.77H3.5a2.1,2.1,0,0,0,0,4.2H73.3a2.1,2.1,0,0,0,0-4.2Z"/><path class="cls-2" d="M16.15,60.31a1.72,1.72,0,0,0-3.06,0L8.5,69.49A1.72,1.72,0,1,0,11.57,71l3-6.11L17.68,71a1.71,1.71,0,1,0,3.06-1.53Zm18.84,0a1.72,1.72,0,0,0-3.07,0l-4.58,9.18a1.72,1.72,0,0,0,.76,2.3,1.77,1.77,0,0,0,.77.18,1.71,1.71,0,0,0,1.53-1l3.06-6.11,3,6.11a1.72,1.72,0,1,0,3.07-1.53ZM65.4,69.49l-4.59-9.18a1.72,1.72,0,0,0-3.06,0l-4.59,9.18A1.71,1.71,0,1,0,56.22,71l3.06-6.11,3,6.11a1.72,1.72,0,0,0,1.54,1,1.7,1.7,0,0,0,.76-.18A1.72,1.72,0,0,0,65.4,69.49Z"/><path class="cls-3" d="M60.81,60.31a1.72,1.72,0,0,0-3.06,0l-3.1,6.2a12.77,12.77,0,0,0,3.46.74l1.17-2.34,1.15,2.31a12.86,12.86,0,0,0,3.4-.86Z"/><path class="cls-3" d="M19.07,66.14l-2.92-5.83a1.72,1.72,0,0,0-3.06,0l-2.9,5.81a9,9,0,0,0,3.28,1.09l1.15-2.3,1.15,2.31A9,9,0,0,0,19.07,66.14Z"/><path class="cls-3" d="M35,60.31a1.72,1.72,0,0,0-3.07,0l-3.05,6.1a10.88,10.88,0,0,0,3.41.85l1.18-2.35,1.14,2.28a10.72,10.72,0,0,0,3.33-1Z"/><path class="cls-2" d="M66.45,0a2.74,2.74,0,0,0-2.74,2.74v51.8a4.66,4.66,0,0,1-9.32,0V9.22A9.22,9.22,0,1,0,36,9.22V56.39a2.81,2.81,0,0,1-5.62,0v-49a2.81,2.81,0,0,0,0-.29A7.37,7.37,0,0,0,23,0H22.7a7.36,7.36,0,0,0-7.07,7.07,2.83,2.83,0,0,0,0,.29V58.24a1,1,0,1,1-1.92,0V6.92a2.66,2.66,0,0,0-.15-.9,6,6,0,0,0-5.9-4.9l-.28,0a6,6,0,0,0-5.7,5.71,2.46,2.46,0,0,0,0,.28V9.92a2.74,2.74,0,0,0,5.48,0V7.13a.52.52,0,0,1,.52-.52.52.52,0,0,1,.52.52,2.73,2.73,0,0,0,.05.5V58.24a2.64,2.64,0,0,0,0,.28,6.43,6.43,0,0,0,12.85,0,2.62,2.62,0,0,0,0-.28V7.37a1.89,1.89,0,1,1,3.77,0v49a8.29,8.29,0,1,0,16.58,0V9.22a3.74,3.74,0,1,1,7.47,0V54.54a10.14,10.14,0,0,0,20.28,0V2.74A2.74,2.74,0,0,0,66.45,0Z"/><circle class="cls-4" cx="72.27" cy="7.98" r="3.08"/><circle class="cls-4" cx="60.67" cy="7.98" r="3.08"/><path class="cls-4" d="M66.61,19.2a18.68,18.68,0,0,1-7.14-1.43,1.72,1.72,0,0,1,1.31-3.17,15.14,15.14,0,0,0,11.67,0,1.72,1.72,0,0,1,1.31,3.17A18.73,18.73,0,0,1,66.61,19.2Z"/><path class="cls-5" d="M74.4,36H2.4a2.4,2.4,0,0,1,0-4.8h72a2.4,2.4,0,0,1,0,4.8Z"/><rect class="cls-4" x="15.61" y="31.18" width="5.48" height="4.8"/><rect class="cls-4" x="8.21" y="31.18" width="5.48" height="4.8"/><rect class="cls-4" x="24.86" y="31.18" width="5.48" height="4.8"/><rect class="cls-4" x="35.96" y="31.18" width="5.48" height="4.8"/><rect class="cls-4" x="63.71" y="31.18" width="5.48" height="4.8"/><rect class="cls-4" x="48.91" y="31.18" width="5.48" height="4.8"/></g></g></svg>