<svg xmlns="http://www.w3.org/2000/svg" viewBox="0 0 80.54 76.89"><defs><style>.cls-1{fill:#ddf1ee;}.cls-2{fill:#d93f3f;}.cls-3{fill:#6f0000;}.cls-4{fill:#fff;}</style></defs><g id="Layer_2" data-name="Layer 2"><g id="Layer_1-2" data-name="Layer 1"><path class="cls-1" d="M70.75,72.76H2.07a2.07,2.07,0,1,0,0,4.13H70.75a2.07,2.07,0,1,0,0-4.13Z"/><path class="cls-2" d="M80.54,23.59a2.15,2.15,0,0,0-3.66-1.52l-18.6,18.6a2.14,2.14,0,0,0,3,3l18.6-18.6A2.14,2.14,0,0,0,80.54,23.59Z"/><polygon class="cls-3" points="70.08 34.94 70.12 28.83 66.85 32.1 66.8 38.21 70.08 34.94"/><path class="cls-2" d="M24.39,44.88,5.79,63.48a2.15,2.15,0,0,1-3-3l18.6-18.59"/><polyline class="cls-3" points="15.82 53.45 12.79 56.48 9.76 53.45 12.79 50.41"/><path class="cls-2" d="M52.47,76.89a2.09,2.09,0,0,1-1-.23L43.79,72.8a2.16,2.16,0,0,1-1.19-1.92V54.79a2.15,2.15,0,1,1,4.29,0V69.55l6.54,3.27a2.15,2.15,0,0,1-1,4.07Z"/><polygon class="cls-3" points="44.75 60.68 42.6 60.68 42.6 64.98 44.75 64.98 46.89 64.98 46.89 60.68 44.75 60.68"/><path class="cls-2" d="M20.59,76.89a2,2,0,0,0,1-.23l7.73-3.86a2.16,2.16,0,0,0,1.19-1.92v-15a2.15,2.15,0,0,0-4.3,0V69.55l-6.54,3.27a2.15,2.15,0,0,0,1,4.07Z"/><polygon class="cls-3" points="28.32 60.68 30.46 60.68 30.46 64.98 28.32 64.98 26.17 64.98 26.17 60.68 28.32 60.68"/><polygon class="cls-2" points="66.88 17.07 49.81 0 23.26 0 6.19 17.07 6.19 43.62 23.26 60.68 49.81 60.68 66.88 43.62 66.88 17.07"/><path class="cls-4" d="M47.85,4.72,62.16,19V41.66L47.85,56H25.21l-14.3-14.3V19l14.3-14.3H47.85m.84-2H24.38L8.89,18.18V42.5L24.38,58H48.69L64.18,42.5V18.18L48.69,2.7Z"/><path class="cls-3" d="M46.71,43.85H26.78a2.18,2.18,0,0,0,0,4.35H46.71a2.18,2.18,0,0,0,0-4.35Z"/><path class="cls-3" d="M24.79,31.25a4.08,4.08,0,1,0,4.08,4.08A4.08,4.08,0,0,0,24.79,31.25Z"/><path class="cls-3" d="M48.15,31.25a4.08,4.08,0,1,0,4.08,4.08A4.08,4.08,0,0,0,48.15,31.25Z"/></g></g></svg>