<svg xmlns="http://www.w3.org/2000/svg" viewBox="0 0 61.93 82.92"><defs><style>.cls-1{fill:#ddf1ee;}.cls-2{fill:#98d4cf;}.cls-3{fill:#4aa89e;}.cls-4{fill:#476f72;}.cls-5{fill:#fff;}</style></defs><g id="Layer_2" data-name="Layer 2"><g id="Layer_1-2" data-name="Layer 1"><path class="cls-1" d="M59.93,78.92H2a2,2,0,0,0,0,4H59.93a2,2,0,0,0,0-4Z"/><path class="cls-2" d="M17.41,56A15.68,15.68,0,0,0,1.75,71.68a1.92,1.92,0,0,0,1.17,1.77,2.11,2.11,0,0,0,.74.14A1.91,1.91,0,0,0,5,73L18.76,59.28A1.91,1.91,0,0,0,17.41,56Zm28,0a1.92,1.92,0,0,0-1.76,1.18,1.94,1.94,0,0,0,.41,2.09L57.84,73a1.91,1.91,0,0,0,1.35.56,2,2,0,0,0,.73-.14,1.92,1.92,0,0,0,1.18-1.77A15.69,15.69,0,0,0,45.43,56Z"/><path class="cls-3" d="M3.66,32.35a1.9,1.9,0,0,1-1.91-1.91V27.39a1.9,1.9,0,0,1,1.91-1.91H6.71a1.91,1.91,0,0,1,0,3.82H5.57v1.14A1.91,1.91,0,0,1,3.66,32.35Z"/><path class="cls-3" d="M50.19,29.3H44.76a1.91,1.91,0,0,1,0-3.82h5.43a1.91,1.91,0,1,1,0,3.82Zm-10.87,0H33.89a1.91,1.91,0,0,1,0-3.82h5.43a1.91,1.91,0,0,1,0,3.82Zm-10.87,0H23a1.91,1.91,0,1,1,0-3.82h5.43a1.91,1.91,0,1,1,0,3.82Zm-10.87,0H12.15a1.91,1.91,0,1,1,0-3.82h5.43a1.91,1.91,0,0,1,0,3.82Z"/><path class="cls-3" d="M58.68,32.35a1.91,1.91,0,0,1-1.91-1.91V29.3H55.63a1.91,1.91,0,0,1,0-3.82h3a1.9,1.9,0,0,1,1.91,1.91v3.05A1.9,1.9,0,0,1,58.68,32.35Z"/><path class="cls-3" d="M58.68,43.39a1.91,1.91,0,0,1-1.91-1.91V36a1.91,1.91,0,0,1,3.82,0v5.52A1.9,1.9,0,0,1,58.68,43.39Z"/><path class="cls-3" d="M58.68,52h-3a1.91,1.91,0,0,1,0-3.82h1.14V47a1.91,1.91,0,0,1,3.82,0v3.06A1.91,1.91,0,0,1,58.68,52Z"/><path class="cls-3" d="M50.19,52H44.76a1.91,1.91,0,1,1,0-3.82h5.43a1.91,1.91,0,1,1,0,3.82ZM39.32,52H33.89a1.91,1.91,0,0,1,0-3.82h5.43a1.91,1.91,0,0,1,0,3.82ZM28.45,52H23a1.91,1.91,0,0,1,0-3.82h5.43a1.91,1.91,0,0,1,0,3.82ZM17.58,52H12.15a1.91,1.91,0,1,1,0-3.82h5.43a1.91,1.91,0,0,1,0,3.82Z"/><path class="cls-3" d="M6.71,52h-3a1.91,1.91,0,0,1-1.91-1.91V47a1.91,1.91,0,0,1,3.82,0v1.15H6.71a1.91,1.91,0,0,1,0,3.82Z"/><path class="cls-3" d="M3.66,43.39a1.9,1.9,0,0,1-1.91-1.91V36a1.91,1.91,0,1,1,3.82,0v5.52A1.91,1.91,0,0,1,3.66,43.39Z"/><path class="cls-4" d="M38.3,22.46a1.93,1.93,0,0,1-.95-.25l-6.18-3.57L25,22.21a1.91,1.91,0,0,1-1.91-3.31l7.13-4.12a1.93,1.93,0,0,1,1.92,0l7.13,4.12a1.91,1.91,0,0,1-1,3.56Z"/><path class="cls-2" d="M17.41,82.92a1.91,1.91,0,0,1-.85-3.62l5.82-2.91V63.82a1.91,1.91,0,1,1,3.82,0V77.57a1.91,1.91,0,0,1-1.05,1.71l-6.88,3.44A1.9,1.9,0,0,1,17.41,82.92Z"/><path class="cls-2" d="M44.92,82.92a1.89,1.89,0,0,1-.85-.2l-6.88-3.44a1.91,1.91,0,0,1-1-1.71V63.82a1.91,1.91,0,1,1,3.82,0V76.39l5.82,2.91a1.91,1.91,0,0,1,.85,2.57A1.89,1.89,0,0,1,44.92,82.92Z"/><rect class="cls-2" x="17.41" y="8.79" width="27.51" height="55.03"/><path class="cls-2" d="M44.93,65.73H17.41a1.92,1.92,0,0,1-1.91-1.91v-55a1.91,1.91,0,0,1,1.91-1.91H44.93a1.91,1.91,0,0,1,1.91,1.91v55A1.92,1.92,0,0,1,44.93,65.73ZM19.32,61.9H43V10.7H19.32Z"/><path class="cls-5" d="M10.53,8.79a6.88,6.88,0,1,1,6.88,6.88A6.88,6.88,0,0,1,10.53,8.79Z"/><path class="cls-4" d="M17.41,17.58A8.79,8.79,0,1,1,26.2,8.79,8.8,8.8,0,0,1,17.41,17.58Zm0-13.76a5,5,0,1,0,5,5A5,5,0,0,0,17.41,3.82Z"/><path class="cls-4" d="M14.6,8.79a2.82,2.82,0,1,1,2.81,2.81A2.82,2.82,0,0,1,14.6,8.79Z"/><path class="cls-5" d="M38.05,8.79a6.88,6.88,0,1,1,6.88,6.88A6.88,6.88,0,0,1,38.05,8.79Z"/><path class="cls-4" d="M44.93,17.58a8.79,8.79,0,1,1,8.79-8.79A8.8,8.8,0,0,1,44.93,17.58Zm0-13.76a5,5,0,1,0,5,5A5,5,0,0,0,44.93,3.82Z"/><path class="cls-4" d="M42.11,8.79a2.82,2.82,0,1,1,2.82,2.81A2.82,2.82,0,0,1,42.11,8.79Z"/><polygon class="cls-5" points="37.88 18.21 31.3 14.31 24.71 18.21 31.3 22.12 37.88 18.21"/><path class="cls-4" d="M31.3,24a2,2,0,0,1-1-.26l-6.58-3.91a1.91,1.91,0,0,1,0-3.29l6.58-3.91a1.94,1.94,0,0,1,2,0l6.59,3.91a1.92,1.92,0,0,1,0,3.29l-6.59,3.91A2,2,0,0,1,31.3,24Zm-2.84-5.82L31.3,19.9l2.84-1.69L31.3,16.53Z"/><path class="cls-5" d="M28.45,25.48H23a1.91,1.91,0,1,0,0,3.82h5.43a1.91,1.91,0,1,0,0-3.82Z"/><path class="cls-5" d="M39.32,48.15H33.89a1.91,1.91,0,0,0,0,3.82h5.43a1.91,1.91,0,0,0,0-3.82Z"/><path class="cls-5" d="M39.32,25.48H33.89a1.91,1.91,0,0,0,0,3.82h5.43a1.91,1.91,0,0,0,0-3.82Z"/><path class="cls-5" d="M42.85,27.39a1.91,1.91,0,0,0,1.91,1.91h2.08V25.48H44.76A1.9,1.9,0,0,0,42.85,27.39Z"/><path class="cls-5" d="M19.49,50.06a1.9,1.9,0,0,0-1.91-1.91H15.5V52h2.08A1.91,1.91,0,0,0,19.49,50.06Z"/><path class="cls-5" d="M46.84,48.15H44.76a1.91,1.91,0,1,0,0,3.82h2.08Z"/><path class="cls-5" d="M28.45,48.15H23A1.91,1.91,0,0,0,23,52h5.43a1.91,1.91,0,0,0,0-3.82Z"/><path class="cls-5" d="M15.5,29.3h2.08a1.91,1.91,0,0,0,0-3.82H15.5Z"/><rect class="cls-3" x="22.38" y="65.73" width="3.82" height="3.44"/><rect class="cls-3" x="36.14" y="65.73" width="3.82" height="3.44"/><path class="cls-3" d="M12.13,65.91l3.37-3.37v-6.4a15.66,15.66,0,0,0-3.37.82Z"/><path class="cls-3" d="M50.37,56.84a16,16,0,0,0-3.53-.76v6l3.53,3.53Z"/></g></g></svg>