<?xml version="1.0" encoding="utf-8"?>
<!-- Generator: Adobe Illustrator 26.0.3, SVG Export Plug-In . SVG Version: 6.00 Build 0)  -->
<svg version="1.1" id="Layer_1" xmlns="http://www.w3.org/2000/svg" xmlns:xlink="http://www.w3.org/1999/xlink" x="0px" y="0px"
	 viewBox="0 0 72 72" style="enable-background:new 0 0 72 72;" xml:space="preserve">
<style type="text/css">
	.st0{fill:#A1CFE4;}
</style>
<g id="Layer_2_00000057126922258102368760000009213881880260712577_">
	<g id="Layer_1-2">
		<polygon class="st0" points="49.3,16.4 26.5,16.4 14.9,37.1 37.8,37.1 		"/>
		<path class="st0" d="M42.9,42.3c-0.6,1.1-1.8,1.8-3.1,1.8H29.1l-6.4,11.5h22.8L57,34.9H47L42.9,42.3z"/>
		<path class="st0" d="M0,72h72V0H0V72z M5.9,38.9l15.4-27.8c0.6-1.1,1.8-1.8,3.1-1.8h30.9c1.9,0,3.5,1.6,3.5,3.5
			c0,0.6-0.2,1.2-0.4,1.7L51,27.9h12c1.9,0,3.5,1.6,3.5,3.5c0,0.6-0.2,1.2-0.4,1.7L50.6,60.8c-0.6,1.1-1.8,1.8-3.1,1.8H16.7
			c-1.9,0-3.5-1.6-3.5-3.5c0-0.6,0.2-1.2,0.4-1.7L21,44.1H9c-1.9,0-3.5-1.6-3.5-3.5C5.5,40,5.7,39.5,5.9,38.9z"/>
	</g>
</g>
</svg>
