<svg xmlns="http://www.w3.org/2000/svg" viewBox="0 0 398.98 73.58"><defs><style>.cls-1{fill:#dcefed;}.cls-2{fill:#68bd64;}.cls-3{fill:#50703d;}.cls-4{fill:#fff;}.cls-5{fill:#a960a5;}.cls-6{fill:#684580;}.cls-7{fill:#3fc2d7;}.cls-8{fill:#0095af;}.cls-9{fill:#3f7885;}</style></defs><g id="Layer_2" data-name="Layer 2"><g id="Layer_1-2" data-name="Layer 1"><path class="cls-1" d="M71.32,70H9.78a1.81,1.81,0,0,0,0,3.61H71.32a1.81,1.81,0,0,0,0-3.61Z"/><path class="cls-2" d="M54.42,73.58a1.88,1.88,0,0,1-.83-.2L46.85,70a1.88,1.88,0,0,1-1-1.68V54.85a1.88,1.88,0,0,1,3.75,0V67.18L55.26,70a1.87,1.87,0,0,1-.84,3.55Z"/><polygon class="cls-3" points="47.68 55.16 45.81 55.16 45.81 58.91 47.68 58.91 49.55 58.91 49.55 55.16 47.68 55.16"/><path class="cls-2" d="M85.79,25.25a2,2,0,0,1-.73.46l-7.15,2.38A1.9,1.9,0,0,1,76,27.64L66.46,18.1a1.87,1.87,0,0,1,2.65-2.64l8.71,8.71,6.06-2a1.89,1.89,0,0,1,2.37,1.19A1.86,1.86,0,0,1,85.79,25.25Z"/><path class="cls-2" d="M28,73a1.87,1.87,0,0,0,3.2-1.33V48.76a1.87,1.87,0,0,0-3.74,0V71.71A1.87,1.87,0,0,0,28,73Z"/><polygon class="cls-3" points="29.3 55.16 31.17 55.16 31.17 58.91 29.3 58.91 27.43 58.91 27.43 55.16 29.3 55.16"/><path class="cls-2" d="M41.9,55.29h6.27A18.8,18.8,0,0,0,67,36.48V30.21L42.45,32Z"/><polygon class="cls-2" points="66.97 20.73 66.97 10.25 55.77 10.25 55.77 16.68 50.53 16.68 50.53 23.12 44.1 23.12 44.1 29.55 37.66 29.55 31.23 29.55 31.23 23.12 37.66 23.12 37.66 16.56 44.1 16.56 44.1 6.79 37.66 6.79 37.66 10.25 31.23 10.25 31.23 3.82 21.94 3.82 15.5 3.82 15.5 10.25 15.5 29.55 15.5 55.29 34.81 55.29 38.02 55.29 45.21 55.29 45.2 34.06 66.97 34.11 66.97 29.55 58.08 29.55 58.08 20.73 66.97 20.73"/><path class="cls-2" d="M1.87,50.79a1.83,1.83,0,0,1-1.32-.55,1.88,1.88,0,0,1,0-2.65L16.78,31.37A1.87,1.87,0,1,1,19.42,34L3.2,50.24A1.87,1.87,0,0,1,1.87,50.79Z"/><path class="cls-3" d="M21.58,16.16A17.59,17.59,0,0,1,22.93,9l.13-.34a1.8,1.8,0,1,1,3.37,1.26l-.13.35a14.13,14.13,0,0,0-1.12,5.9,14.18,14.18,0,0,0,1.12,5.91c.09.25.19.5.28.76a1.8,1.8,0,0,1-3.39,1.22l-.27-.71A17.89,17.89,0,0,1,21.58,16.16Z"/><circle class="cls-4" cx="30.99" cy="41.77" r="2.9"/><path class="cls-3" d="M35.45,41.78A4.49,4.49,0,1,1,31,37.29,4.49,4.49,0,0,1,35.45,41.78Zm-5.77,0A1.28,1.28,0,1,0,31,40.5,1.28,1.28,0,0,0,29.68,41.78Z"/><path class="cls-4" d="M44.69,37.15A6.86,6.86,0,1,1,51.55,44,6.86,6.86,0,0,1,44.69,37.15Z"/><path class="cls-3" d="M51.55,45.91a8.77,8.77,0,1,1,8.76-8.76A8.78,8.78,0,0,1,51.55,45.91Zm0-13.72a5,5,0,1,0,5,5A5,5,0,0,0,51.55,32.19Z"/><path class="cls-3" d="M48.74,37.15A2.81,2.81,0,1,1,51.55,40,2.81,2.81,0,0,1,48.74,37.15Z"/><polygon class="cls-3" points="70.4 16.75 66.94 13.29 66.94 18.58 70.4 22.05 70.4 16.75"/><polygon class="cls-3" points="11.92 36.22 11.92 41.52 15.35 38.08 15.35 32.79 11.92 36.22"/><path class="cls-5" d="M239.79,54.21a1.83,1.83,0,0,0,1.32-.55,1.86,1.86,0,0,0,0-2.65L224.89,34.79a1.87,1.87,0,1,0-2.65,2.65l16.23,16.22A1.83,1.83,0,0,0,239.79,54.21Z"/><path class="cls-6" d="M226.31,36.21,230.05,40v2.28a13.69,13.69,0,0,1-.27,2.74l-3.47-3.47Z"/><path class="cls-5" d="M160.53,57.74a1.88,1.88,0,0,1-1.33-3.2l16.23-16.22A1.87,1.87,0,0,1,178.08,41L161.85,57.19A1.85,1.85,0,0,1,160.53,57.74Z"/><path class="cls-6" d="M174,39.74l-3.75,3.74v2.28a13.77,13.77,0,0,0,.28,2.74L174,45Z"/><path class="cls-1" d="M235.81,69H164.27a1.81,1.81,0,0,0,0,3.61h71.54a1.81,1.81,0,1,0,0-3.61Z"/><path class="cls-5" d="M224.29,72.58a1.88,1.88,0,0,1-.83-.2L216.72,69a1.88,1.88,0,0,1-1-1.68V46.26a1.88,1.88,0,1,1,3.75,0V66.18l5.7,2.85a1.87,1.87,0,0,1-.84,3.55Z"/><polygon class="cls-6" points="217.55 50.62 215.68 50.62 215.68 54.36 217.55 54.36 219.43 54.36 219.43 50.62 217.55 50.62"/><path class="cls-5" d="M175.89,72.58a1.92,1.92,0,0,0,.84-.2L183.47,69a1.89,1.89,0,0,0,1-1.68V47.19a1.87,1.87,0,0,0-3.74,0v19L175.06,69a1.87,1.87,0,0,0,.83,3.55Z"/><polygon class="cls-6" points="182.63 48.82 184.5 48.82 184.5 52.57 182.63 52.57 180.76 52.57 180.76 48.82 182.63 48.82"/><path class="cls-5" d="M225.43,5h-3.6a.84.84,0,0,0-.84.82V9.47a.86.86,0,0,1-.85.85h-3.6a.85.85,0,0,1-.85-.85V6.14a.86.86,0,0,0-.85-.85h-3.6a.86.86,0,0,1-.85-.85V.85a.85.85,0,0,0-.84-.85H206a.86.86,0,0,0-.85.82V9.08a.11.11,0,0,0,0-.05.84.84,0,0,1-.83.77h-3.6a.85.85,0,0,1-.85-.8V2.61a.86.86,0,0,0-.85-.85h-13.6a.86.86,0,0,0-.85.82V5a.85.85,0,0,1-.84.85H180a.84.84,0,0,0-.81.81v3a.86.86,0,0,1-.85.85h-3.6a.86.86,0,0,0-.85.85V52.09a.86.86,0,0,0,.85.85h3.6a.85.85,0,0,0,.84-.76V49.67a.86.86,0,0,1,.85-.85h3.6a.85.85,0,0,0,.85-.82V46.72a.85.85,0,0,1,.85-.84H199a.85.85,0,0,1,.85.84v.36h0v2.66a.85.85,0,0,0,.84.85h3.6a.85.85,0,0,0,.85-.85V45a.85.85,0,0,1,.85-.85h3.6a.85.85,0,0,1,.84.85V46.8a.86.86,0,0,0,.85.85h3.65a.85.85,0,0,1,.8.84v1.26a.85.85,0,0,0,.85.85h3.6a.85.85,0,0,0,.84-.85V48.62h0V48.2a.85.85,0,0,1,.84-.85h3.6a.85.85,0,0,0,.85-.84V5.85A.85.85,0,0,0,225.43,5Z"/><path class="cls-6" d="M188.26,24.32a4.72,4.72,0,1,1-4.71-4.71A4.72,4.72,0,0,1,188.26,24.32Zm-6.06,0A1.35,1.35,0,1,0,183.55,23,1.35,1.35,0,0,0,182.2,24.32Z"/><path class="cls-6" d="M220.39,20.55a4.72,4.72,0,1,1-4.71-4.72A4.71,4.71,0,0,1,220.39,20.55Zm-6.06,0a1.35,1.35,0,1,0,1.35-1.35A1.35,1.35,0,0,0,214.33,20.55Z"/><path class="cls-6" d="M188.37,19.61V23a1.35,1.35,0,1,1,0,2.69V29a4.72,4.72,0,1,0,0-9.43Z"/><path class="cls-6" d="M193.68,19.61V23a1.35,1.35,0,1,1,0,2.69V29a4.72,4.72,0,0,0,0-9.43Z"/><path class="cls-6" d="M201.07,19.61V23a1.35,1.35,0,1,1,0,2.69V29a4.72,4.72,0,1,0,0-9.43Z"/><path class="cls-6" d="M188.41,38.27A16.5,16.5,0,0,1,181.74,37l-.31-.11a1.68,1.68,0,0,1,1.17-3.14l.33.12a13.06,13.06,0,0,0,5.48,1"/><path class="cls-6" d="M196.93,33.32l-.32.12a14.07,14.07,0,0,1-2.93.86v3.38a16.38,16.38,0,0,0,4.11-1.11l.32-.11a1.68,1.68,0,0,0-1.18-3.14Z"/><path class="cls-6" d="M204.33,33.32l-.33.12a13.89,13.89,0,0,1-2.93.86v3.38a16.59,16.59,0,0,0,4.12-1.11l.31-.11a1.68,1.68,0,0,0-1.17-3.14Z"/><path class="cls-6" d="M193,32.8a12.76,12.76,0,0,1-4.63.73v3.35A16.56,16.56,0,0,0,193,36.3Z"/><path class="cls-1" d="M388.21,70H326.05a1.81,1.81,0,1,0,0,3.61h62.16a1.81,1.81,0,1,0,0-3.61Z"/><path class="cls-7" d="M332,73.56a1.72,1.72,0,0,1-.77-3.26l5.24-2.62V56.35a1.72,1.72,0,0,1,3.44,0V68.74a1.71,1.71,0,0,1-1,1.54l-6.19,3.1A1.77,1.77,0,0,1,332,73.56Z"/><rect class="cls-8" x="336.47" y="56.61" width="3.44" height="3.1"/><path class="cls-7" d="M382.22,73.56a1.74,1.74,0,0,1-.77-.18l-6.2-3.1a1.73,1.73,0,0,1-.95-1.54V56.35a1.72,1.72,0,0,1,3.44,0V67.68L383,70.3a1.72,1.72,0,0,1-.77,3.26Z"/><rect class="cls-8" x="374.3" y="56.52" width="3.44" height="3.1"/><path class="cls-7" d="M317.11,43.83A1.79,1.79,0,0,1,315.32,42V35.58a1.8,1.8,0,0,1,1.79-1.8h4.67V29.12a1.79,1.79,0,0,1,1.79-1.8H330a1.8,1.8,0,1,1,0,3.59h-4.66v4.67a1.8,1.8,0,0,1-1.8,1.79h-4.66V42A1.8,1.8,0,0,1,317.11,43.83Z"/><polygon class="cls-8" points="330.75 29.12 330.75 27.32 327.52 27.32 327.52 29.12 327.52 30.91 330.75 30.91 330.75 29.12"/><path class="cls-7" d="M397.18,43.83A1.79,1.79,0,0,1,395.39,42V37.37h-4.67a1.79,1.79,0,0,1-1.79-1.79V30.91h-4.67a1.8,1.8,0,0,1,0-3.59h6.46a1.8,1.8,0,0,1,1.8,1.8v4.66h4.66a1.81,1.81,0,0,1,1.8,1.8V42A1.8,1.8,0,0,1,397.18,43.83Z"/><polygon class="cls-8" points="383.54 27.32 383.54 29.12 383.54 30.91 386.77 30.91 386.77 29.12 386.77 27.32 383.54 27.32"/><path class="cls-7" d="M383.71,29.48A1.72,1.72,0,0,0,382,27.76H332.43a1.72,1.72,0,0,0-1.72,1.72V56.62h53Z"/><path class="cls-7" d="M365.6,40.74c0,.61.79,1.1,1.78,1.1h14.54c1,0,1.79-.49,1.79-1.1v-17H365.6Z"/><path class="cls-7" d="M330.72,37.64a1.64,1.64,0,0,0,1.78,1.43H347a1.63,1.63,0,0,0,1.78-1.43v-22H330.72Z"/><path class="cls-7" d="M348.7,7.38V35.7a1.76,1.76,0,0,0,1.68,1.84h13.67a1.76,1.76,0,0,0,1.67-1.84V7.38Z"/><path class="cls-4" d="M329.22,41.92a6.19,6.19,0,1,1,6.19,6.19A6.2,6.2,0,0,1,329.22,41.92Z"/><path class="cls-9" d="M335.41,49.83a7.92,7.92,0,1,1,7.91-7.91A7.92,7.92,0,0,1,335.41,49.83Zm0-12.39a4.48,4.48,0,1,0,4.47,4.48A4.48,4.48,0,0,0,335.41,37.44Z"/><path class="cls-9" d="M332.88,41.92a2.53,2.53,0,1,1,2.53,2.53A2.54,2.54,0,0,1,332.88,41.92Z"/><path class="cls-4" d="M372.82,41.92A6.19,6.19,0,1,1,379,48.11,6.2,6.2,0,0,1,372.82,41.92Z"/><path class="cls-9" d="M379,49.83a7.92,7.92,0,1,1,7.91-7.91A7.92,7.92,0,0,1,379,49.83Zm0-12.39a4.48,4.48,0,1,0,4.47,4.48A4.48,4.48,0,0,0,379,37.44Z"/><path class="cls-9" d="M376.48,41.92A2.53,2.53,0,1,1,379,44.45,2.54,2.54,0,0,1,376.48,41.92Z"/><polygon class="cls-4" points="357.17 47.85 360.69 41.92 357.17 35.99 353.65 41.92 357.17 47.85"/><path class="cls-9" d="M351.92,41.92a1.63,1.63,0,0,1,.25-.88l3.52-5.93a1.72,1.72,0,0,1,2.95,0L362.16,41a1.73,1.73,0,0,1,0,1.76l-3.52,5.93a1.72,1.72,0,0,1-2.95,0l-3.52-5.93A1.66,1.66,0,0,1,351.92,41.92Zm5.25-2.56-1.52,2.56,1.52,2.56,1.51-2.56Z"/><polygon class="cls-8" points="369.16 63.45 364.27 63.45 364.27 60.01 365.72 60.01 365.72 56.72 369.16 56.72 369.16 63.45"/><rect class="cls-8" x="353.58" y="60.01" width="7.28" height="3.44"/><polygon class="cls-8" points="350.15 63.45 345.28 63.45 345.28 56.72 348.72 56.72 348.72 60.01 350.15 60.01 350.15 63.45"/><path class="cls-8" d="M348.72,15.6h-3.44V10.12h3.44Z"/><polygon class="cls-8" points="348.72 7.38 345.28 7.38 345.28 0.95 350.11 0.95 350.11 4.39 348.72 4.39 348.72 7.38"/><rect class="cls-8" x="353.58" y="0.95" width="7.28" height="3.44"/><polygon class="cls-8" points="369.16 7.38 365.72 7.38 365.72 4.39 364.28 4.39 364.28 0.95 369.16 0.95 369.16 7.38"/><path class="cls-8" d="M369.16,23.82h-3.44V18.34h3.44Zm0-8.22h-3.44V10.12h3.44Z"/><rect class="cls-4" x="365.72" y="51.24" width="3.44" height="5.48"/><rect class="cls-4" x="365.72" y="43.01" width="3.44" height="5.48"/><rect class="cls-4" x="365.72" y="34.79" width="3.44" height="5.48"/><rect class="cls-4" x="365.72" y="26.56" width="3.44" height="5.48"/><rect class="cls-4" x="345.28" y="51.24" width="3.44" height="5.48"/><rect class="cls-4" x="345.28" y="43.01" width="3.44" height="5.48"/><rect class="cls-4" x="345.28" y="34.79" width="3.44" height="5.48"/><rect class="cls-4" x="345.28" y="26.56" width="3.44" height="5.48"/><rect class="cls-4" x="345.28" y="18.34" width="3.44" height="5.48"/></g></g></svg>