<svg xmlns="http://www.w3.org/2000/svg" viewBox="0 0 81.07 81.36"><defs><style>.cls-1{fill:#ddf1ee;}.cls-2{fill:#ccc357;}.cls-3{fill:#606855;}.cls-4{fill:#9ea953;}.cls-5{fill:#fff;}</style></defs><g id="Layer_2" data-name="Layer 2"><g id="Layer_1-2" data-name="Layer 1"><path class="cls-1" d="M79.07,77.35H2.57a2,2,0,0,0,0,4h76.5a2,2,0,0,0,0-4Z"/><path class="cls-2" d="M22,45.35H16.83a1.43,1.43,0,0,1,0-2.85h3.71V35.37a1.43,1.43,0,0,1,2.86,0v8.56A1.42,1.42,0,0,1,22,45.35Z"/><path class="cls-2" d="M63.05,53.63a1.43,1.43,0,0,1-.74-.21l-5.14-3.14a1.44,1.44,0,0,1-.68-1.22v-20a1.43,1.43,0,0,1,2.86,0V48.26L63.8,51a1.43,1.43,0,0,1-.75,2.65Z"/><path class="cls-2" d="M16.84,81.3a1.42,1.42,0,0,1-.64-2.7l4.34-2.17V67a1.43,1.43,0,1,1,2.86,0V77.31a1.42,1.42,0,0,1-.79,1.27l-5.14,2.57A1.42,1.42,0,0,1,16.84,81.3Z"/><path class="cls-2" d="M63.05,81.3a1.42,1.42,0,0,1-.63-.15l-5.14-2.57a1.42,1.42,0,0,1-.79-1.27V67a1.43,1.43,0,1,1,2.86,0v9.39l4.34,2.17a1.42,1.42,0,0,1-.64,2.7Z"/><path class="cls-2" d="M74.33,68.6c-15.67-15.68-21-21-42.09-21H11.7a1.42,1.42,0,0,0-1.43,1.42V69.6A1.43,1.43,0,0,0,11.7,71H73.32a1.42,1.42,0,0,0,1-2.43Z"/><path class="cls-2" d="M67.9,35.37V14.83a1.42,1.42,0,0,0-1.42-1.43H45.94c-21.14,0-26.42,5.28-42.1,21a1.42,1.42,0,0,0,1,2.43H66.48A1.41,1.41,0,0,0,67.9,35.37Z"/><path class="cls-3" d="M40.89,59.11a2.57,2.57,0,1,0-2.56,2.57A2.56,2.56,0,0,0,40.89,59.11Z"/><path class="cls-3" d="M22,59.11a2.57,2.57,0,1,0-2.57,2.57A2.57,2.57,0,0,0,22,59.11Z"/><path class="cls-3" d="M28.78,65.9a9,9,0,0,1-5.12-1.59A1.42,1.42,0,1,1,25.27,62a6.27,6.27,0,0,0,7,0,1.42,1.42,0,1,1,1.59,2.36A9,9,0,0,1,28.78,65.9Z"/><path class="cls-3" d="M61.34,24.87a2.57,2.57,0,1,0-2.57,2.57A2.57,2.57,0,0,0,61.34,24.87Z"/><path class="cls-3" d="M42.42,24.87a2.57,2.57,0,1,0-2.57,2.57A2.57,2.57,0,0,0,42.42,24.87Z"/><path class="cls-3" d="M49.23,31.66a9,9,0,0,1-5.13-1.59,1.43,1.43,0,1,1,1.62-2.35,6.2,6.2,0,0,0,7,0,1.43,1.43,0,0,1,1.6,2.37A9.06,9.06,0,0,1,49.23,31.66Z"/><path class="cls-2" d="M1.43,71A1.43,1.43,0,0,1,0,69.6,11.71,11.71,0,0,1,11.7,57.91a1.43,1.43,0,0,1,0,2.85A8.86,8.86,0,0,0,2.85,69.6,1.43,1.43,0,0,1,1.43,71Z"/><path class="cls-2" d="M57.92,65.9a1.43,1.43,0,1,1,0-2.86,8.85,8.85,0,0,0,8.84-8.84,1.43,1.43,0,0,1,2.86,0A11.72,11.72,0,0,1,57.92,65.9Z"/><path class="cls-2" d="M66.48,31.66a1.43,1.43,0,1,1,0-2.85A8.86,8.86,0,0,0,75.32,20a1.43,1.43,0,0,1,2.86,0A11.72,11.72,0,0,1,66.48,31.66Z"/><path class="cls-2" d="M25.39,26.52A11.7,11.7,0,0,1,13.7,14.83a1.43,1.43,0,1,1,2.85,0,8.86,8.86,0,0,0,8.84,8.84,1.43,1.43,0,1,1,0,2.85Z"/><path class="cls-2" d="M66.48,31.66a1.43,1.43,0,1,1,0-2.85A8.86,8.86,0,0,0,75.32,20a1.43,1.43,0,0,1,2.86,0A11.72,11.72,0,0,1,66.48,31.66Z"/><path class="cls-4" d="M67.9,28.68v2.88a11.88,11.88,0,0,0,2.86-.72V27.7A9,9,0,0,1,67.9,28.68Z"/><rect class="cls-4" x="56.49" y="71.03" width="2.85" height="2.85"/><path class="cls-4" d="M16.49,22.39c.76-.62,1.51-1.2,2.26-1.75a8.68,8.68,0,0,1-1.52-2.42c-.77.56-1.54,1.15-2.31,1.78A11.22,11.22,0,0,0,16.49,22.39Z"/><path class="cls-4" d="M10.27,60.89V58a11.81,11.81,0,0,0-2.85.73v3.14A8.68,8.68,0,0,1,10.27,60.89Z"/><rect class="cls-4" x="20.54" y="71.03" width="2.85" height="2.85"/><path class="cls-4" d="M65,59.5c.69.62,1.38,1.27,2.1,2A11.72,11.72,0,0,0,68.59,59q-1.14-1.08-2.25-2.07A8.83,8.83,0,0,1,65,59.5Z"/><rect class="cls-4" x="56.49" y="36.79" width="2.85" height="2.85"/><rect class="cls-4" x="20.54" y="36.79" width="2.85" height="2.85"/><line class="cls-5" x1="38.16" y1="9.13" x2="58.7" y2="9.13"/><path class="cls-3" d="M58.7,10.56H38.16a1.43,1.43,0,1,1,0-2.86H58.7a1.43,1.43,0,0,1,0,2.86Z"/><path class="cls-5" d="M51,1.43a2.6,2.6,0,0,0-1.39.4,2.46,2.46,0,0,1-1.18.3,2.41,2.41,0,0,1-1.2-.31A2.58,2.58,0,0,0,43.29,4V9.13H53.56V4A2.56,2.56,0,0,0,51,1.43Z"/><path class="cls-3" d="M53.56,10.56H43.29a1.43,1.43,0,0,1-1.43-1.43V4A4,4,0,0,1,47.93.58a1.09,1.09,0,0,0,1,0A4,4,0,0,1,55,4V9.13A1.43,1.43,0,0,1,53.56,10.56ZM44.72,7.7h7.42V4a1.14,1.14,0,0,0-1.76-1l-.1.07a4,4,0,0,1-3.72,0L46.46,3a1.06,1.06,0,0,0-.6-.18A1.14,1.14,0,0,0,44.72,4Z"/></g></g></svg>