<svg xmlns="http://www.w3.org/2000/svg" viewBox="0 0 93.98 80.67"><defs><style>.cls-1{fill:#ddf1ee;}.cls-2{fill:#f9d95e;}.cls-3{fill:#415f32;}.cls-4{fill:#fff;}.cls-5{fill:#f0a85f;}</style></defs><g id="Layer_2" data-name="Layer 2"><g id="Layer_1-2" data-name="Layer 1"><path class="cls-1" d="M81.16,76.67H12.82a2,2,0,0,0,0,4H81.16a2,2,0,0,0,0-4Z"/><path class="cls-2" d="M64.7,0H60.09c-9.36,0-9.36,9.36-9.36,9.36s0,9.35-9.35,9.35S32,28.07,32,28.07v9.35h-15V59.88H76.93V35a7.83,7.83,0,1,1,0-10.14V0Z"/><path class="cls-2" d="M24.54,80.67a2.08,2.08,0,0,1-.94-3.94l6.34-3.17V59.88a2.08,2.08,0,1,1,4.16,0v15A2.08,2.08,0,0,1,33,76.71l-7.48,3.74A2.08,2.08,0,0,1,24.54,80.67Z"/><path class="cls-2" d="M69.44,80.67a2.08,2.08,0,0,1-.93-.22L61,76.71a2.08,2.08,0,0,1-1.15-1.86v-15a2.08,2.08,0,0,1,4.16,0V73.56l6.33,3.17a2.08,2.08,0,0,1-.93,3.94Z"/><path class="cls-2" d="M2.08,62A2.08,2.08,0,0,1,.61,58.41l18-18a2.08,2.08,0,1,1,2.94,2.94l-18,18A2.07,2.07,0,0,1,2.08,62Z"/><path class="cls-2" d="M73.32,50.59A2,2,0,0,1,71.86,50a2.06,2.06,0,0,1,0-2.94L90.43,28.47a2.08,2.08,0,1,1,2.94,2.94L74.79,50A2,2,0,0,1,73.32,50.59Z"/><path class="cls-2" d="M17.05,7.49h0V0h7.49a7.49,7.49,0,1,1-7.49,7.49Z"/><rect class="cls-2" x="17.05" y="22.45" width="7.49" height="7.49"/><circle class="cls-3" cx="70.97" cy="29.94" r="3.11"/><path class="cls-4" d="M47,29.94a3.74,3.74,0,1,1,3.74,3.74A3.73,3.73,0,0,1,47,29.94Z"/><path class="cls-3" d="M50.73,35.76a5.82,5.82,0,1,1,5.82-5.82A5.83,5.83,0,0,1,50.73,35.76Zm0-7.48a1.66,1.66,0,1,0,1.67,1.66A1.66,1.66,0,0,0,50.73,28.28Z"/><line class="cls-4" x1="46.99" y1="44.91" x2="69.44" y2="44.91"/><path class="cls-3" d="M69.44,47H47a2.08,2.08,0,1,1,0-4.16H69.44a2.08,2.08,0,0,1,0,4.16Z"/><path class="cls-5" d="M29.94,59.88V64H34.1V59.88Z"/><path class="cls-5" d="M17.05,42l-4.16,4.16v2.52a15.24,15.24,0,0,0,.31,3.05l3.85-3.85Z"/><polygon class="cls-5" points="61.96 59.88 59.88 59.88 59.88 64.04 61.96 64.04 64.04 64.04 64.04 59.88 61.96 59.88"/><polygon class="cls-5" points="76.93 41.97 76.93 47.85 81.09 43.69 81.09 37.84 81.09 37.81 76.93 41.97"/></g></g></svg>