<svg xmlns="http://www.w3.org/2000/svg" viewBox="0 0 72 72"><defs><style>.cls-1{fill:#a1cfe4;}</style></defs><g id="Layer_2" data-name="Layer 2"><g id="Layer_1-2" data-name="Layer 1"><path class="cls-1" d="M67.31,54.75a2,2,0,0,0-1.29.43,6.16,6.16,0,0,1-6.82,0,2.12,2.12,0,0,0-2.56,0,6,6,0,0,1-2.63,1v.05h-.78A4.78,4.78,0,0,1,49,53.42a4.9,4.9,0,0,1,.73-5.26,18.05,18.05,0,0,0,4.29-11.89A18.32,18.32,0,0,0,37,18.4,18.09,18.09,0,0,0,22.21,48.21,4.85,4.85,0,0,1,23,53.43a4.77,4.77,0,0,1-4.18,2.78H18.6a6,6,0,0,1-3.24-1,2.12,2.12,0,0,0-2.56,0,5.89,5.89,0,0,1-3.41,1,5.85,5.85,0,0,1-3.41-1,2,2,0,0,0-1.29-.43,1.94,1.94,0,0,0-1.28.43,5.85,5.85,0,0,1-3.41,1V72H72V56.21a5.85,5.85,0,0,1-3.41-1A1.94,1.94,0,0,0,67.31,54.75ZM36,52.45a16,16,0,1,1,16-16A16,16,0,0,1,36,52.45Z"/><path class="cls-1" d="M36,24.52A11.95,11.95,0,1,0,47.91,36.46,12,12,0,0,0,36,24.52Zm-1.7,2.67h3.34a9.47,9.47,0,0,1-.33,6H34.6A9.26,9.26,0,0,1,34.27,27.19ZM29,42.22l-1.68-2.9a9.46,9.46,0,0,1,5.38-2.72l1.34,2.32A9.3,9.3,0,0,1,29,42.22ZM36,38a1.52,1.52,0,1,1,1.51-1.52A1.52,1.52,0,0,1,36,38Zm7,4.18a9.48,9.48,0,0,1-5-3.3l1.34-2.32a9.22,9.22,0,0,1,5.38,2.72Z"/><path class="cls-1" d="M0,52.17a1.93,1.93,0,0,0,1.28-.43,5.88,5.88,0,0,1,3.41-1,5.85,5.85,0,0,1,3.41,1,2,2,0,0,0,1.29.43,1.93,1.93,0,0,0,1.28-.43,5.89,5.89,0,0,1,3.41-1,5.89,5.89,0,0,1,3.41,1,1.94,1.94,0,0,0,1.16.42.7.7,0,0,0,.63-.42.86.86,0,0,0-.14-.91,22.13,22.13,0,1,1,33.71,0,.85.85,0,0,0-.14.94.7.7,0,0,0,.65.44,1.92,1.92,0,0,0,1.15-.42,6.16,6.16,0,0,1,6.82,0,1.93,1.93,0,0,0,1.28.43,2,2,0,0,0,1.29-.43,6.16,6.16,0,0,1,6.82,0,1.93,1.93,0,0,0,1.28.43V0H0Z"/></g></g></svg>