<svg xmlns="http://www.w3.org/2000/svg" viewBox="0 0 88.94 78.06"><defs><style>.cls-1{fill:#ddf1ee;}.cls-2{fill:#d46d90;}.cls-3{fill:#fff;}.cls-4{fill:#7d3960;}.cls-5{fill:#9f4d7b;}</style></defs><g id="Layer_2" data-name="Layer 2"><g id="Layer_1-2" data-name="Layer 1"><path class="cls-1" d="M79.54,74.06H9.4a2,2,0,0,0,0,4H79.54a2,2,0,1,0,0-4Z"/><path class="cls-2" d="M30.16,45.78c-.19-.19-.39-.37-.61-.56l-.28-.2L29.2,45l-.3-.21-.26-.16-.13-.08a2.91,2.91,0,0,0-.3-.17l-.29-.15-.11,0L27.5,44l-.31-.12-.13-.05-.35-.11-.35-.1-.09,0L26,43.53l-.37-.06-.15,0-.28,0a7.32,7.32,0,0,0-.81,0H15a1.91,1.91,0,0,0-.54-.08A14.46,14.46,0,0,0,0,57.74a2,2,0,0,0,3.94,0A10.52,10.52,0,0,1,13.29,47.3H24.35l.49,0,.2,0,.15,0,1,.32.89.55c.11.1.22.19.32.3l8.82,8.81a1.94,1.94,0,0,0,1.39.58A2,2,0,0,0,39,54.6Z"/><path class="cls-2" d="M23.84,56.34a2,2,0,0,0-2,2v13l-6,3a2,2,0,1,0,1.76,3.53l7.1-3.55a2,2,0,0,0,1.09-1.76V58.31A2,2,0,0,0,23.84,56.34Z"/><path class="cls-2" d="M71.23,74.28l-6-3V59a2,2,0,0,0-3.94,0V72.5a2,2,0,0,0,1.09,1.76l7.1,3.55a2,2,0,0,0,1.76-3.53Z"/><path class="cls-2" d="M74.49,33.43a2,2,0,0,0-1.12.35H69.66l-.42,0-.55-.1-.09,0-1.13-.51L67.28,33l-.12-.08-.3-.27-8.38-8.38A2,2,0,0,0,55.7,27l8.38,8.38a7,7,0,0,0,.57.52l.23.17.07.06.33.24.32.19.08,0,.26.15.32.16.11,0,.26.12.42.15.32.11.31.08.09,0,.35.08.36.06.13,0,.26,0a7.09,7.09,0,0,0,.79,0h7.12l.25,0a10.51,10.51,0,0,1,8,10.18,2,2,0,0,0,3.94,0A14.47,14.47,0,0,0,74.49,33.43Z"/><path class="cls-2" d="M62.56,60.59a9.07,9.07,0,0,1-6.41-2.65L29.28,31.06a2,2,0,0,1,2.79-2.79L58.94,55.15a5.13,5.13,0,0,0,7.25-7.25L27.46,9.17a5.13,5.13,0,0,0-7.25,7.25l1.87,1.87a2,2,0,1,1-2.79,2.78l-1.86-1.86A9.07,9.07,0,1,1,30.25,6.39L69,45.12a9.06,9.06,0,0,1-6.41,15.47Z"/><path class="cls-2" d="M64.79,35.36a2,2,0,0,1-1.39-.57L38,9.42a5.52,5.52,0,0,1,7.8-7.81L52,7.77a2,2,0,0,1-2.79,2.79L43.05,4.4a1.63,1.63,0,0,0-2.23,0,1.57,1.57,0,0,0,0,2.23L66.18,32a2,2,0,0,1-1.39,3.36Z"/><path class="cls-2" d="M27.38,60.28a12.61,12.61,0,0,1-8.92-21.53L49.87,7.34A12.61,12.61,0,0,1,67.71,25.18L36.3,56.58A12.5,12.5,0,0,1,27.38,60.28ZM58.79,7.59a8.58,8.58,0,0,0-6.13,2.54L21.25,41.53A8.68,8.68,0,0,0,33.52,53.8l31.4-31.41a8.67,8.67,0,0,0-6.13-14.8Z"/><path class="cls-2" d="M41.32,60.28a5.5,5.5,0,0,1-3.9-1.62l-8.35-8.35a2,2,0,0,1,2.79-2.78l8.35,8.34a1.57,1.57,0,0,0,2.23,0,1.57,1.57,0,0,0,0-2.22L19.86,31.07A9.07,9.07,0,0,1,32.68,18.25L54.5,40.06a2,2,0,0,1-2.79,2.79L29.89,21a5.12,5.12,0,0,0-8.74,3.63,5.07,5.07,0,0,0,1.5,3.62L45.22,50.86a5.52,5.52,0,0,1-3.9,9.42Z"/><path class="cls-2" d="M50.76,11.28a2,2,0,0,1-1.4-.57L44,5.39A2,2,0,0,1,46.83,2.6l5.32,5.32a2,2,0,0,1-1.39,3.36Z"/><path class="cls-2" d="M62.73,48.68A12.45,12.45,0,0,1,53.89,45L34.47,25.6a2,2,0,0,1,2.78-2.78L56.68,42.24A8.56,8.56,0,0,0,68.79,30.13l-4.21-4.21a2,2,0,1,1,2.79-2.78l4.2,4.2a12.5,12.5,0,0,1-8.84,21.34Z"/><path class="cls-3" d="M62.6,15.6a3.55,3.55,0,1,0-3.55,3.55A3.55,3.55,0,0,0,62.6,15.6Z"/><path class="cls-4" d="M59.05,21.12a5.52,5.52,0,1,1,5.52-5.52A5.52,5.52,0,0,1,59.05,21.12Zm0-7.09a1.58,1.58,0,1,0,1.58,1.57A1.57,1.57,0,0,0,59.05,14Z"/><path class="cls-4" d="M29.29,24.8A3.29,3.29,0,1,0,26,28.09,3.28,3.28,0,0,0,29.29,24.8Z"/><path class="cls-4" d="M47.24,35.7a6.46,6.46,0,0,1-4.6-1.91l-1.41-1.41a2.57,2.57,0,0,0-3.63,0l-3.25,3.25a2,2,0,1,1-2.79-2.78l3.25-3.25a6.52,6.52,0,0,1,9.21,0l1.4,1.4a2.64,2.64,0,0,0,3.64,0l3.17-3.17A2,2,0,0,1,55,30.62l-3.18,3.17A6.46,6.46,0,0,1,47.24,35.7Z"/><path class="cls-5" d="M13.45,47.31h1.34a12.45,12.45,0,0,1,.74-3.94H15a1.91,1.91,0,0,0-.54-.08,14.46,14.46,0,0,0-3.11.34,16.92,16.92,0,0,0-.51,4c0,.08,0,.15,0,.22a10.55,10.55,0,0,1,2.45-.58Z"/><path class="cls-5" d="M75.13,37.72h1.65l.25,0a10.3,10.3,0,0,1,2,.72,16.27,16.27,0,0,0,0-4.24,14.36,14.36,0,0,0-4.12-.73A12.77,12.77,0,0,1,75.13,37.72Z"/><path class="cls-5" d="M38.63,54.25l0,0,.58.57A2.52,2.52,0,0,0,39,54.6Z"/><path class="cls-5" d="M25.81,60.17A12.46,12.46,0,0,1,21.87,59v4.26a15.86,15.86,0,0,0,3.94.88Z"/><path class="cls-5" d="M65.22,64.25V60.19a9.22,9.22,0,0,1-2.66.4,9.32,9.32,0,0,1-1.28-.1v4c.43,0,.85.06,1.28.06A13,13,0,0,0,65.22,64.25Z"/></g></g></svg>