<svg xmlns="http://www.w3.org/2000/svg" viewBox="0 0 86.34 69.76"><defs><style>.cls-1{fill:#ddf1ee;}.cls-2{fill:#67be64;}.cls-3{fill:#51713e;}.cls-4{fill:#fff;}</style></defs><g id="Layer_2" data-name="Layer 2"><g id="Layer_1-2" data-name="Layer 1"><path class="cls-1" d="M71.32,66.16H9.78a1.8,1.8,0,1,0,0,3.6H71.32a1.8,1.8,0,1,0,0-3.6Z"/><path class="cls-2" d="M54.42,69.76a1.75,1.75,0,0,1-.83-.2l-6.74-3.37a1.86,1.86,0,0,1-1-1.67V51a1.88,1.88,0,1,1,3.75,0V63.36l5.7,2.85a1.87,1.87,0,0,1-.84,3.55Z"/><polygon class="cls-3" points="47.68 51.35 45.81 51.35 45.81 55.09 47.68 55.09 49.55 55.09 49.55 51.35 47.68 51.35"/><path class="cls-2" d="M85.79,21.44a2,2,0,0,1-.73.45l-7.15,2.38A1.87,1.87,0,0,1,76,23.82l-9.53-9.53a1.87,1.87,0,0,1,2.65-2.65l8.71,8.71,6.06-2a1.87,1.87,0,0,1,1.91,3.1Z"/><path class="cls-2" d="M28,69.21a1.87,1.87,0,0,0,3.2-1.32v-23a1.87,1.87,0,0,0-3.74,0v23A1.85,1.85,0,0,0,28,69.21Z"/><polygon class="cls-3" points="29.3 51.35 31.17 51.35 31.17 55.09 29.3 55.09 27.43 55.09 27.43 51.35 29.3 51.35"/><path class="cls-2" d="M41.9,51.47h6.27A18.8,18.8,0,0,0,67,32.66V26.4L42.45,28.17Z"/><polygon class="cls-2" points="66.97 16.92 66.97 6.43 55.77 6.43 55.77 12.87 50.53 12.87 50.53 19.3 44.1 19.3 44.1 25.73 37.66 25.73 31.23 25.73 31.23 19.3 37.66 19.3 37.66 12.75 44.1 12.75 44.1 2.98 37.66 2.98 37.66 6.43 31.23 6.43 31.23 0 21.94 0 15.5 0 15.5 6.43 15.5 25.73 15.5 51.47 34.81 51.47 38.02 51.47 45.21 51.47 45.2 30.25 66.97 30.29 66.97 25.73 58.08 25.73 58.08 16.92 66.97 16.92"/><path class="cls-2" d="M1.87,47A1.87,1.87,0,0,1,.55,43.78L16.78,27.55a1.87,1.87,0,0,1,2.64,2.65L3.2,46.43A1.9,1.9,0,0,1,1.87,47Z"/><path class="cls-3" d="M21.58,12.35a17.69,17.69,0,0,1,1.35-7.18l.13-.34a1.8,1.8,0,1,1,3.37,1.26l-.13.35a14.18,14.18,0,0,0-1.12,5.91,14.13,14.13,0,0,0,1.12,5.9c.09.25.19.5.28.76a1.8,1.8,0,1,1-3.39,1.22l-.27-.71A17.8,17.8,0,0,1,21.58,12.35Z"/><circle class="cls-4" cx="30.99" cy="37.95" r="2.9"/><path class="cls-3" d="M35.45,38A4.49,4.49,0,1,1,31,33.48,4.5,4.5,0,0,1,35.45,38Zm-5.77,0A1.28,1.28,0,1,0,31,36.68,1.28,1.28,0,0,0,29.68,38Z"/><path class="cls-4" d="M44.69,33.33a6.86,6.86,0,1,1,6.86,6.86A6.86,6.86,0,0,1,44.69,33.33Z"/><path class="cls-3" d="M51.55,42.09a8.76,8.76,0,1,1,8.76-8.76A8.78,8.78,0,0,1,51.55,42.09Zm0-13.71a4.95,4.95,0,1,0,5,4.95A5,5,0,0,0,51.55,28.38Z"/><path class="cls-3" d="M48.74,33.33a2.81,2.81,0,1,1,2.81,2.81A2.81,2.81,0,0,1,48.74,33.33Z"/><polygon class="cls-3" points="70.4 12.94 66.94 9.47 66.94 14.76 70.4 18.23 70.4 12.94"/><polygon class="cls-3" points="11.92 32.41 11.92 37.7 15.35 34.27 15.35 28.97 11.92 32.41"/></g></g></svg>